<svg width="16" height="16" viewBox="0 0 16 16" fill="none" xmlns="http://www.w3.org/2000/svg">
<path d="M5.05835 2.1333C4.20982 2.1333 3.39585 2.4708 2.79585 3.0708L0.689603 5.17705C0.48107 5.38558 0.48107 5.72322 0.689603 5.93122L2.06877 7.31038C2.2773 7.51892 2.61494 7.51892 2.82294 7.31038L3.73335 6.39997V12.8C3.73335 13.3893 4.21069 13.8666 4.80002 13.8666H8.00002H11.2C11.7894 13.8666 12.2667 13.3893 12.2667 12.8V6.39997L13.1771 7.31038C13.3856 7.51892 13.7233 7.51892 13.9313 7.31038L15.3104 5.93122C15.519 5.72322 15.519 5.38558 15.3104 5.17705L13.2042 3.0708C12.6042 2.4708 11.7902 2.1333 10.9417 2.1333H10.6667H10.1334H5.86669H5.33335H5.05835ZM6.26773 3.19997H9.73231C9.42091 3.7333 8.88775 4.26663 8.00002 4.26663C7.11229 4.26663 6.57913 3.7333 6.26773 3.19997Z" fill="#0B4299"/>
</svg>
