<svg width="16" height="16" viewBox="0 0 16 16" fill="none" xmlns="http://www.w3.org/2000/svg">
<path d="M3.19997 2.1333C2.61063 2.1333 2.1333 2.61063 2.1333 3.19997V12.8C2.1333 13.3893 2.61063 13.8666 3.19997 13.8666C3.19997 14.161 3.4389 14.4 3.7333 14.4C4.0277 14.4 4.26663 14.161 4.26663 13.8666H11.7333C11.7333 14.161 11.9722 14.4 12.2666 14.4C12.561 14.4 12.8 14.161 12.8 13.8666C13.3893 13.8666 13.8666 13.3893 13.8666 12.8V3.19997C13.8666 2.61063 13.3893 2.1333 12.8 2.1333H3.19997ZM3.19997 3.19997H12.8V5.3333H3.19997V3.19997ZM4.79997 3.7333C4.65852 3.7333 4.52286 3.78949 4.42284 3.88951C4.32282 3.98953 4.26663 4.12519 4.26663 4.26663C4.26663 4.40808 4.32282 4.54374 4.42284 4.64376C4.52286 4.74378 4.65852 4.79997 4.79997 4.79997C4.94142 4.79997 5.07707 4.74378 5.17709 4.64376C5.27711 4.54374 5.3333 4.40808 5.3333 4.26663C5.3333 4.12519 5.27711 3.98953 5.17709 3.88951C5.07707 3.78949 4.94142 3.7333 4.79997 3.7333ZM6.39997 3.7333C6.25852 3.7333 6.12286 3.78949 6.02284 3.88951C5.92282 3.98953 5.86663 4.12519 5.86663 4.26663C5.86663 4.40808 5.92282 4.54374 6.02284 4.64376C6.12286 4.74378 6.25852 4.79997 6.39997 4.79997C6.54142 4.79997 6.67707 4.74378 6.77709 4.64376C6.87711 4.54374 6.9333 4.40808 6.9333 4.26663C6.9333 4.12519 6.87711 3.98953 6.77709 3.88951C6.67707 3.78949 6.54142 3.7333 6.39997 3.7333ZM7.99997 3.7333C7.85852 3.7333 7.72286 3.78949 7.62284 3.88951C7.52282 3.98953 7.46663 4.12519 7.46663 4.26663C7.46663 4.40808 7.52282 4.54374 7.62284 4.64376C7.72286 4.74378 7.85852 4.79997 7.99997 4.79997C8.14142 4.79997 8.27707 4.74378 8.37709 4.64376C8.47711 4.54374 8.5333 4.40808 8.5333 4.26663C8.5333 4.12519 8.47711 3.98953 8.37709 3.88951C8.27707 3.78949 8.14142 3.7333 7.99997 3.7333ZM8.5333 6.39997C9.12263 6.39997 9.59997 6.8773 9.59997 7.46663V11.7333C9.59997 12.3226 9.12263 12.8 8.5333 12.8V6.39997ZM10.6666 6.39997C11.5504 6.39997 12.2666 7.11623 12.2666 7.99997V11.2C12.2666 12.0837 11.5504 12.8 10.6666 12.8V6.39997ZM3.19997 8.5333H7.46663V9.59997C7.46663 10.4837 6.75037 11.2 5.86663 11.2V11.8812C6.18397 12.0658 6.39997 12.4058 6.39997 12.8H4.26663C4.26663 12.4064 4.48263 12.0663 4.79997 11.8812V11.2C3.91623 11.2 3.19997 10.4837 3.19997 9.59997V8.5333Z" fill="#0B4299"/>
</svg>
