<svg width="16" height="16" viewBox="0 0 16 16" fill="none" xmlns="http://www.w3.org/2000/svg">
<g clip-path="url(#clip0_1840_10244)">
<path d="M11.1917 -0.00725916C11.0504 -0.00505094 10.9158 0.0531144 10.8174 0.154471C10.7189 0.255828 10.6647 0.392095 10.6667 0.533366V2.13337C10.6657 2.20404 10.6787 2.27421 10.7051 2.33979C10.7314 2.40537 10.7706 2.46506 10.8202 2.51539C10.8698 2.56572 10.9289 2.60569 10.9941 2.63297C11.0593 2.66025 11.1293 2.6743 11.2 2.6743C11.2707 2.6743 11.3407 2.66025 11.4059 2.63297C11.4711 2.60569 11.5302 2.56572 11.5798 2.51539C11.6294 2.46506 11.6686 2.40537 11.6949 2.33979C11.7213 2.27421 11.7343 2.20404 11.7333 2.13337V0.533366C11.7343 0.462011 11.721 0.391187 11.6941 0.325085C11.6672 0.258984 11.6273 0.19895 11.5768 0.148538C11.5263 0.098127 11.4662 0.0583634 11.4 0.0316022C11.3339 0.00484102 11.263 -0.00837362 11.1917 -0.00725916ZM13.325 0.526074C13.1837 0.528282 13.0491 0.586448 12.9507 0.687805C12.8523 0.789161 12.7981 0.925429 12.8 1.0667V2.13337C12.799 2.20404 12.8121 2.27421 12.8384 2.33979C12.8648 2.40537 12.9039 2.46506 12.9535 2.51539C13.0031 2.56572 13.0623 2.60569 13.1275 2.63297C13.1927 2.66025 13.2627 2.6743 13.3333 2.6743C13.404 2.6743 13.474 2.66025 13.5392 2.63297C13.6044 2.60569 13.6635 2.56572 13.7132 2.51539C13.7628 2.46506 13.8019 2.40537 13.8283 2.33979C13.8546 2.27421 13.8677 2.20404 13.8667 2.13337V1.0667C13.8676 0.995345 13.8543 0.92452 13.8274 0.858418C13.8005 0.792317 13.7606 0.732283 13.7101 0.681872C13.6596 0.63146 13.5995 0.591697 13.5334 0.564936C13.4672 0.538174 13.3964 0.52496 13.325 0.526074ZM9.05833 1.05941C8.91707 1.06162 8.78245 1.11978 8.68402 1.22114C8.58559 1.32249 8.5314 1.45876 8.53333 1.60003V2.13337C8.53233 2.20404 8.54539 2.27421 8.57174 2.33979C8.5981 2.40537 8.63722 2.46506 8.68685 2.51539C8.73647 2.56572 8.7956 2.60569 8.86081 2.63297C8.92601 2.66025 8.99599 2.6743 9.06667 2.6743C9.13735 2.6743 9.20732 2.66025 9.27253 2.63297C9.33773 2.60569 9.39686 2.56572 9.44649 2.51539C9.49611 2.46506 9.53524 2.40537 9.56159 2.33979C9.58794 2.27421 9.601 2.20404 9.6 2.13337V1.60003C9.60098 1.52868 9.58763 1.45785 9.56074 1.39175C9.53385 1.32565 9.49397 1.26562 9.44346 1.21521C9.39295 1.16479 9.33284 1.12503 9.26669 1.09827C9.20054 1.07151 9.12969 1.05829 9.05833 1.05941ZM6.4 3.73337C5.824 3.73337 5.28529 3.96253 4.89063 4.36253C4.68796 4.29853 4.48 4.2667 4.26667 4.2667C3.41333 4.2667 2.66633 4.76237 2.325 5.52503C1.56233 5.86637 1.06667 6.61337 1.06667 7.4667H0.533333C0.24 7.4667 0 7.7067 0 8.00003C0 8.29337 0.24 8.53337 0.533333 8.53337H0.564583C0.827308 10.6382 2.61845 12.2667 4.79479 12.2667H0C0 12.856 0.477333 13.3334 1.06667 13.3334H14.9333C15.5227 13.3334 16 12.856 16 12.2667H12.8865C13.4193 12.2667 13.8707 11.8733 13.9438 11.3459L14.8969 4.44066C14.9411 4.12012 14.6925 3.83441 14.3698 3.83441H8.03125C7.70592 3.83441 7.45619 4.12322 7.50313 4.44482L8.50833 11.3542C8.58513 11.8827 9.03658 12.2667 9.56458 12.2667H7.73854C7.59454 12.0267 7.49371 11.7549 7.45104 11.4563L6.94896 8.00003H6.94688L6.86979 7.4667H2.13333C2.13333 6.99737 2.43717 6.58649 2.89583 6.45316C3.0665 6.39982 3.19979 6.26653 3.25313 6.09587C3.38646 5.6372 3.79733 5.33337 4.26667 5.33337C4.44267 5.33337 4.61892 5.38112 4.78958 5.47712C5.03492 5.61578 5.3495 5.54107 5.50417 5.30107C5.7015 4.98641 6.032 4.80003 6.4 4.80003C6.42667 4.80003 6.45354 4.79991 6.48021 4.80524L6.44792 4.59691C6.40525 4.30357 6.44308 4.01045 6.56042 3.74378C6.50708 3.73312 6.45333 3.73337 6.4 3.73337Z" fill="#0B4299"/>
</g>
<defs>
<clipPath id="clip0_1840_10244">
<rect width="16" height="16" fill="white"/>
</clipPath>
</defs>
</svg>
