<svg width="16" height="16" viewBox="0 0 16 16" fill="none" xmlns="http://www.w3.org/2000/svg">
<path d="M8 1.6001C7.91202 1.60016 7.82542 1.62199 7.74792 1.66364L0.286458 5.39385V5.39489C0.200208 5.43993 0.127923 5.50771 0.0774299 5.59088C0.026937 5.67406 0.00016056 5.76946 0 5.86676C0.00016056 5.96407 0.026937 6.05947 0.0774299 6.14265C0.127923 6.22582 0.200208 6.2936 0.286458 6.33864V6.33968L7.74479 10.0678C7.82303 10.1107 7.91078 10.1332 8 10.1334C8.08798 10.1334 8.17458 10.1115 8.25208 10.0699L15.7083 6.34176C15.7101 6.34108 15.7118 6.34038 15.7135 6.33968V6.33864C15.7998 6.2936 15.8721 6.22582 15.9226 6.14265C15.9731 6.05947 15.9998 5.96407 16 5.86676C15.9998 5.76946 15.9731 5.67406 15.9226 5.59088C15.8721 5.50771 15.7998 5.43993 15.7135 5.39489V5.39385L8.25521 1.66572C8.17697 1.62285 8.08922 1.60028 8 1.6001ZM15.4667 7.65531L14.4 8.18864V12.948C14.0823 13.1327 13.8667 13.4727 13.8667 13.8668C13.8667 14.4561 14.9333 16.0001 14.9333 16.0001C14.9333 16.0001 16 14.4561 16 13.8668C16 13.4727 15.7843 13.1327 15.4667 12.948V7.65531ZM3.2 8.9876V11.2001C3.2 12.6726 5.3488 13.8668 8 13.8668C10.6512 13.8668 12.8 12.6726 12.8 11.2001V8.9876L8.72813 11.0241C8.68333 11.0465 8.63858 11.0648 8.59271 11.0803C8.39964 11.1598 8.20107 11.2001 8 11.2001C7.79947 11.2001 7.60138 11.1598 7.40938 11.0803C7.36298 11.0648 7.31721 11.0459 7.27188 11.023L3.2 8.9876Z" fill="#0B4299"/>
</svg>
