<svg width="16" height="16" viewBox="0 0 16 16" fill="none" xmlns="http://www.w3.org/2000/svg">
<path d="M5.0906 2.1333C3.1626 2.1333 1.59998 3.69593 1.59998 5.62393C1.59998 5.88366 1.63071 6.14237 1.67498 6.39997H2.75518C3.17172 6.39997 3.56439 6.56136 3.86039 6.85309L4.11768 7.10518L5.38956 4.56143C5.48609 4.36836 5.68014 4.25218 5.90414 4.26872C6.11908 4.28365 6.30358 4.42642 6.37185 4.63122L7.51248 8.04997L7.77393 7.39476C8.01607 6.78996 8.59253 6.39997 9.24373 6.39997H10.2812C10.4658 6.08263 10.8058 5.86663 11.2 5.86663C11.7893 5.86663 12.2666 6.34397 12.2666 6.9333C12.2666 7.52263 11.7893 7.99997 11.2 7.99997C10.8064 7.99997 10.4663 7.78397 10.2812 7.46663H9.24373C9.03146 7.46663 8.84296 7.59379 8.76456 7.79059L7.96248 9.79788C7.88088 10.0011 7.68424 10.1333 7.46664 10.1333H7.45102C7.22702 10.1264 7.03183 9.98098 6.96143 9.76872L5.76768 6.18955L4.74373 8.23851C4.66693 8.39104 4.52214 8.49774 4.35414 8.52601C4.18614 8.55268 4.01479 8.49964 3.89373 8.38018L3.11352 7.61351C3.01698 7.51911 2.89012 7.46663 2.75518 7.46663H1.96664C2.97648 10.1076 5.8222 12.4441 7.30414 13.6083C7.31203 13.615 7.32002 13.6216 7.3281 13.6281C7.3365 13.6347 7.35 13.6455 7.35831 13.6521L7.35935 13.651C7.54387 13.7904 7.76871 13.8661 7.99998 13.8666C8.2316 13.8663 8.45684 13.7906 8.64164 13.651V13.6521C8.64523 13.6492 8.65054 13.6455 8.65414 13.6427C8.65689 13.6405 8.66077 13.6375 8.66352 13.6354C8.66701 13.6323 8.67048 13.6292 8.67393 13.626C10.487 12.2031 14.4 8.98788 14.4 5.62393C14.4 3.69593 12.8374 2.1333 10.9094 2.1333C9.06668 2.1333 7.99998 3.7333 7.99998 3.7333C7.99998 3.7333 6.93327 2.1333 5.0906 2.1333Z" fill="#0B4299"/>
</svg>
