<svg width="16" height="16" viewBox="0 0 16 16" fill="none" xmlns="http://www.w3.org/2000/svg">
<path d="M7.99998 1.06665C7.86057 1.06666 7.72671 1.12125 7.62706 1.21873L1.80935 5.97707C1.80263 5.98212 1.79603 5.98733 1.78956 5.99269L1.76977 6.00936V6.0104C1.71628 6.06023 1.6736 6.12053 1.64439 6.18755C1.61518 6.25457 1.60006 6.32688 1.59998 6.39998C1.59998 6.54143 1.65617 6.67709 1.75619 6.77711C1.8562 6.87713 1.99186 6.93332 2.13331 6.93332H2.66664V12.8C2.66664 13.3893 3.14398 13.8667 3.73331 13.8667H12.2666C12.856 13.8667 13.3333 13.3893 13.3333 12.8V6.93332H13.8666C14.0081 6.93332 14.1437 6.87713 14.2438 6.77711C14.3438 6.67709 14.4 6.54143 14.4 6.39998C14.4 6.3267 14.385 6.25419 14.3558 6.18699C14.3266 6.11978 14.2838 6.05931 14.2302 6.00936L14.2219 6.00311C14.2102 5.99251 14.198 5.98243 14.1854 5.9729L12.2666 4.40311V2.13332C12.2666 1.83892 12.0277 1.59998 11.7333 1.59998H11.2C10.9056 1.59998 10.6666 1.83892 10.6666 2.13332V3.09478L8.36143 1.20936C8.26318 1.11802 8.13412 1.06707 7.99998 1.06665ZM6.39998 8.53332H9.59998V12.8H6.39998V8.53332Z" fill="#FAFCFF"/>
</svg>
