<svg width="16" height="16" viewBox="0 0 16 16" fill="none" xmlns="http://www.w3.org/2000/svg">
<path d="M4.80004 8.00015C4.80004 8.8838 4.08369 9.60015 3.20004 9.60015C2.31638 9.60015 1.60004 8.8838 1.60004 8.00015C1.60004 7.11649 2.31638 6.40015 3.20004 6.40015C4.08369 6.40015 4.80004 7.11649 4.80004 8.00015Z" fill="#0B4299"/>
<path d="M9.60004 8.00015C9.60004 8.8838 8.88369 9.60015 8.00004 9.60015C7.11638 9.60015 6.40004 8.8838 6.40004 8.00015C6.40004 7.11649 7.11638 6.40015 8.00004 6.40015C8.88369 6.40015 9.60004 7.11649 9.60004 8.00015Z" fill="#0B4299"/>
<path d="M12.8 9.60015C13.6837 9.60015 14.4 8.8838 14.4 8.00015C14.4 7.11649 13.6837 6.40015 12.8 6.40015C11.9164 6.40015 11.2 7.11649 11.2 8.00015C11.2 8.8838 11.9164 9.60015 12.8 9.60015Z" fill="#0B4299"/>
</svg>
