<svg width="16" height="16" viewBox="0 0 16 16" fill="none" xmlns="http://www.w3.org/2000/svg">
<path d="M5.3344 3.73438C5.11733 3.73471 4.90047 3.83341 4.7594 4.03021L0.158359 10.4458C-0.227774 10.984 0.157417 11.7333 0.819817 11.7333H9.81357C10.5037 11.7333 10.9038 10.9517 10.5 10.3917L5.9094 4.02917C5.7678 3.83263 5.55147 3.73404 5.3344 3.73438ZM11.7417 3.73854C11.5508 3.74208 11.3607 3.83287 11.2396 4.00833L9.26982 6.86354L11.3646 9.76771C11.4478 9.88291 11.5128 10.0064 11.5677 10.1333H15.1438C15.8414 10.1333 16.2405 9.3381 15.824 8.77917L12.2521 3.98958C12.1246 3.81865 11.9326 3.73501 11.7417 3.73854Z" fill="#0B4299"/>
</svg>
