<svg width="16" height="16" viewBox="0 0 16 16" fill="none" xmlns="http://www.w3.org/2000/svg">
<path d="M2.13332 1.6001L1.06665 2.66676L2.13332 4.8001L3.73332 5.33343L5.59998 7.2001L6.66665 6.13343L4.79998 4.26676L4.26665 2.66676L2.13332 1.6001ZM11.7687 1.60531C10.8842 1.57033 9.98913 1.88948 9.31353 2.56468C8.44096 3.43725 8.36283 4.48672 8.79686 5.47406L2.60207 11.6688C1.977 12.2939 1.977 13.3063 2.60207 13.9313C3.22713 14.5564 4.2395 14.5564 4.86457 13.9313L11.0594 7.73656C12.0466 8.17042 13.0962 8.09171 13.9687 7.21885C14.8695 6.31805 15.1366 5.0267 14.775 3.89176L12.7989 5.86885L11.0917 5.44176L10.6646 3.73447L12.6417 1.75843C12.3578 1.66816 12.0636 1.61696 11.7687 1.60531ZM10.9448 9.40635L8.93748 11.4136L11.5073 13.9845C12.0619 14.5391 12.9615 14.5391 13.5156 13.9845C14.0703 13.4298 14.0703 12.5308 13.5156 11.9761L10.9448 9.40635ZM3.73332 12.2668C4.02772 12.2668 4.26665 12.5057 4.26665 12.8001C4.26665 13.0945 4.02772 13.3334 3.73332 13.3334C3.43892 13.3334 3.19998 13.0945 3.19998 12.8001C3.19998 12.5057 3.43892 12.2668 3.73332 12.2668Z" fill="#0B4299"/>
</svg>
