<svg width="16" height="16" viewBox="0 0 16 16" fill="none" xmlns="http://www.w3.org/2000/svg">
<path d="M3.19998 1.6001C2.31624 1.6001 1.59998 2.31636 1.59998 3.2001V11.2001V12.0001C1.59998 12.4417 1.95838 12.8001 2.39998 12.8001C2.84158 12.8001 3.19998 12.4417 3.19998 12.0001V11.5199C3.86974 11.6118 4.75239 11.6942 5.86664 11.722V11.3636C5.86664 10.7007 6.17555 10.0875 6.68435 9.69176L7.1406 8.37093C7.187 8.23706 7.24886 8.11278 7.31873 7.99385C7.11073 7.99758 6.89384 8.0001 6.66664 8.0001C4.80424 8.0001 3.59178 7.83781 3.03018 7.73968C2.81792 7.70288 2.66664 7.51765 2.66664 7.30218V4.8001H10.6666V6.93343H11.7333V3.2001C11.7333 2.31636 11.017 1.6001 10.1333 1.6001H3.19998ZM4.79998 2.66676H8.53331C8.82771 2.66676 9.06664 2.9057 9.06664 3.2001C9.06664 3.4945 8.82771 3.73343 8.53331 3.73343H4.79998C4.50558 3.73343 4.26664 3.4945 4.26664 3.2001C4.26664 2.9057 4.50558 2.66676 4.79998 2.66676ZM9.15727 8.0001C8.70233 8.0001 8.29773 8.28845 8.14893 8.71885L7.56977 10.397C7.1863 10.5634 6.93331 10.9396 6.93331 11.3636V12.8001V13.498V13.8668C6.93331 14.1612 7.17224 14.4001 7.46664 14.4001C7.76104 14.4001 7.99998 14.1612 7.99998 13.8668V13.6636C8.72744 13.7618 9.72371 13.8668 10.6666 13.8668C11.6096 13.8668 12.6058 13.7618 13.3333 13.6636V13.8668C13.3333 14.1612 13.5722 14.4001 13.8666 14.4001C14.161 14.4001 14.4 14.1612 14.4 13.8668V13.498V12.8001V11.3636C14.4 10.9396 14.147 10.5629 13.7635 10.3959L13.1844 8.71885C13.0361 8.28898 12.631 8.0001 12.176 8.0001H9.15727ZM3.46664 9.06676C3.90824 9.06676 4.26664 9.42516 4.26664 9.86677C4.26664 10.3084 3.90824 10.6668 3.46664 10.6668C3.02504 10.6668 2.66664 10.3084 2.66664 9.86677C2.66664 9.42516 3.02504 9.06676 3.46664 9.06676ZM8.53331 11.2001C8.82771 11.2001 9.06664 11.439 9.06664 11.7334C9.06664 12.0278 8.82771 12.2668 8.53331 12.2668C8.23891 12.2668 7.99998 12.0278 7.99998 11.7334C7.99998 11.439 8.23891 11.2001 8.53331 11.2001ZM12.8 11.2001C13.0944 11.2001 13.3333 11.439 13.3333 11.7334C13.3333 12.0278 13.0944 12.2668 12.8 12.2668C12.5056 12.2668 12.2666 12.0278 12.2666 11.7334C12.2666 11.439 12.5056 11.2001 12.8 11.2001ZM10.2479 11.7334H11.0958C11.3251 11.7334 11.5295 11.8799 11.6021 12.098L11.826 12.7699C11.001 12.788 10.9578 12.8001 10.6666 12.8001C10.3754 12.8001 10.3443 12.7875 9.51873 12.7688L9.74164 12.098C9.81418 11.8799 10.018 11.7334 10.2479 11.7334Z" fill="#0B4299"/>
</svg>
