<svg width="16" height="16" viewBox="0 0 16 16" fill="none" xmlns="http://www.w3.org/2000/svg">
<path d="M11.3573 1.97823C11.2773 1.71636 11.0138 1.57023 10.752 1.61716C10.7226 1.61236 10.6965 1.6001 10.6666 1.6001H5.3333C5.3237 1.6001 5.3157 1.6049 5.30664 1.60543C5.2677 1.60756 5.23304 1.6177 5.19624 1.62783C5.1653 1.63636 5.13384 1.6417 5.10557 1.65556C5.0741 1.6705 5.0485 1.69236 5.02024 1.71263C4.99304 1.7329 4.96584 1.75103 4.9429 1.7761C4.92104 1.79956 4.90664 1.82836 4.88904 1.8561C4.86877 1.8881 4.84904 1.9185 4.83624 1.95423C4.83304 1.96276 4.82557 1.96916 4.8229 1.97823L4.07037 4.45236C3.69917 5.93716 4.00264 7.49343 4.88317 8.61556C5.5509 9.46516 6.4373 9.96863 7.4661 10.0977V13.8668H5.33277C5.03837 13.8668 4.79944 14.1052 4.79944 14.4001C4.79944 14.695 5.03837 14.9334 5.33277 14.9334H10.6661C10.9605 14.9334 11.1994 14.695 11.1994 14.4001C11.1994 14.1052 10.9605 13.8668 10.6661 13.8668H8.53277V10.1148C9.6389 10.0246 10.5898 9.5137 11.2965 8.6145C12.1765 7.49343 12.481 5.93716 12.1024 4.4257L11.3573 1.97823ZM5.0981 4.73663L5.72797 2.66676H10.4517L11.0746 4.7105C11.1269 4.91743 11.1562 5.12596 11.1754 5.33343H5.00157C5.02024 5.13396 5.0485 4.93396 5.0981 4.73663Z" fill="#0B4299"/>
</svg>
