<svg width="208" height="72" viewBox="0 0 208 72" fill="none" xmlns="http://www.w3.org/2000/svg">
<rect width="208" height="72" rx="8" fill="white"/>
<path d="M82.0612 35.9178C82.0209 34.9323 82.1786 33.9487 82.5256 33.0237C82.8732 32.0986 83.4024 31.2505 84.0847 30.5282C84.7662 29.8059 85.5857 29.2237 86.4975 28.8153C87.4085 28.4068 88.3926 28.1802 89.3931 28.1484H89.7038C93.5705 28.1484 95.8529 30.3896 96.5276 33.0118L94.1244 33.8037C93.9079 32.8266 93.3431 31.9585 92.5311 31.3577C91.7198 30.7571 90.7166 30.4638 89.7038 30.5315C87.2016 30.5315 84.6925 32.3319 84.6925 35.9627C84.6925 39.5934 87.1415 41.3265 89.7338 41.3265C90.7521 41.354 91.7492 41.0442 92.5673 40.4469C93.3848 39.8496 93.9762 38.9994 94.2453 38.032L96.6034 38.7791C96.1964 40.2547 95.2908 41.5494 94.037 42.4499C92.7824 43.3503 91.254 43.8026 89.7038 43.7321C87.7124 43.7681 85.7879 43.0234 84.3531 41.6618C82.9189 40.3001 82.0912 38.4329 82.0536 36.4707C82.0461 36.2914 82.0536 36.1046 82.0612 35.9178Z" fill="#4F4F4F"/>
<path d="M101.282 43.3903H98.7947V28.1055H101.282V34.0819C101.643 33.66 102.097 33.3249 102.61 33.1022C103.122 32.8795 103.679 32.7751 104.239 32.797C106.809 32.797 108.03 34.6123 108.03 36.8759V43.3903H105.634V37.3092C105.706 36.7908 105.568 36.2654 105.25 35.8461C104.932 35.4269 104.46 35.1475 103.936 35.068C103.787 35.053 103.637 35.053 103.488 35.068C102.913 35.068 102.362 35.2931 101.955 35.6938C101.548 36.0945 101.319 36.6379 101.319 37.2046C101.316 37.2668 101.316 37.3291 101.319 37.3914L101.282 43.3903Z" fill="#4F4F4F"/>
<path d="M113.61 37.5037L116.279 37.0928C116.885 37.0181 117.037 36.7118 117.037 36.3458C117.037 35.4792 116.445 34.7844 115.065 34.7844C114.544 34.7429 114.028 34.9055 113.628 35.2369C113.227 35.5684 112.975 36.042 112.928 36.5549V36.667L110.653 36.1665C110.843 34.3885 112.48 32.8047 115.043 32.8047C118.257 32.8047 119.478 34.5976 119.478 36.6894V41.7919C119.475 42.3447 119.519 42.8969 119.607 43.4428H117.332C117.251 43.0095 117.218 42.5685 117.234 42.128C116.889 42.6516 116.41 43.0768 115.846 43.3612C115.282 43.6457 114.652 43.7794 114.019 43.7492C113.155 43.8194 112.297 43.549 111.635 42.9973C110.972 42.4454 110.559 41.6573 110.486 40.8057C110.486 40.7534 110.486 40.7011 110.486 40.6563C110.448 38.7662 111.821 37.7502 113.61 37.5037ZM117.052 39.1547V38.684L114.33 39.0875C113.961 39.099 113.61 39.2509 113.351 39.5112C113.093 39.7715 112.946 40.1202 112.943 40.4845C112.945 40.665 112.985 40.8431 113.058 41.0084C113.132 41.1738 113.238 41.323 113.371 41.4475C113.503 41.572 113.66 41.6692 113.831 41.7334C114.003 41.7976 114.185 41.8277 114.368 41.8217H114.482C114.792 41.8537 115.105 41.8249 115.405 41.7369C115.704 41.649 115.982 41.5036 116.224 41.3092C116.466 41.1148 116.666 40.8751 116.813 40.6041C116.96 40.333 117.052 40.036 117.083 39.7299C117.093 39.5374 117.08 39.3443 117.044 39.1547H117.052Z" fill="#4F4F4F"/>
<path d="M123.709 27.8938C123.923 27.8909 124.135 27.9295 124.333 28.0076C124.532 28.0857 124.713 28.2017 124.866 28.3488C125.018 28.496 125.14 28.6715 125.224 28.8652C125.308 29.0589 125.352 29.267 125.354 29.4776C125.354 29.7928 125.259 30.101 125.082 30.3634C124.905 30.6258 124.653 30.8307 124.358 30.9524C124.063 31.074 123.738 31.1069 123.423 31.0471C123.109 30.9871 122.82 30.8371 122.592 30.6157C122.364 30.3944 122.209 30.1116 122.143 29.803C122.078 29.4944 122.107 29.1737 122.226 28.8812C122.345 28.5887 122.55 28.3375 122.814 28.1592C123.077 27.9809 123.389 27.8833 123.709 27.8789V27.8938ZM122.496 43.4327V33.1083H124.983V43.3878L122.496 43.4327Z" fill="#4F4F4F"/>
<path d="M130.647 43.3889H128.168V33.1094H130.586V34.4765C130.901 33.9515 131.354 33.5199 131.897 33.2267C132.44 32.9336 133.053 32.7898 133.672 32.8106C136.219 32.8106 137.463 34.6259 137.463 36.8895V43.3889H134.984V37.3078C134.984 36.0453 134.4 35.0218 132.838 35.0218C132.549 35.0238 132.264 35.0818 131.998 35.1924C131.732 35.3031 131.491 35.4644 131.288 35.6669C131.085 35.8695 130.925 36.1094 130.816 36.373C130.708 36.6366 130.652 36.9187 130.654 37.2033C130.654 37.2854 130.654 37.3676 130.654 37.4498L130.647 43.3889Z" fill="#4F4F4F"/>
<path d="M140.465 43.3903V28.1055H142.953V43.3903H140.465Z" fill="#4F4F4F"/>
<path d="M147.387 27.8945C147.707 27.8931 148.02 27.9853 148.288 28.1596C148.554 28.3339 148.762 28.5824 148.885 28.8734C149.009 29.1645 149.041 29.485 148.979 29.7944C148.917 30.1038 148.763 30.388 148.537 30.611C148.311 30.834 148.022 30.9856 147.708 31.0468C147.394 31.108 147.068 31.0758 146.773 30.9545C146.478 30.8331 146.226 30.628 146.049 30.3652C145.872 30.1023 145.778 29.7937 145.78 29.4784C145.784 29.0595 145.955 28.6589 146.255 28.3628C146.556 28.0666 146.962 27.8984 147.387 27.8945ZM146.166 43.4334V33.109H148.63V43.3886L146.166 43.4334Z" fill="#4F4F4F"/>
<path d="M154.332 43.3888H151.846V33.1092H154.264V34.4764C154.58 33.9519 155.033 33.5207 155.576 33.2277C156.119 32.9346 156.732 32.7906 157.35 32.8104C159.898 32.8104 161.141 34.6258 161.141 36.8893V43.3888H158.654V37.3078C158.726 36.7893 158.588 36.2639 158.271 35.8447C157.953 35.4254 157.481 35.146 156.956 35.0665C156.805 35.0515 156.652 35.0515 156.501 35.0665C155.922 35.0725 155.368 35.3033 154.961 35.709C154.554 36.1146 154.325 36.6623 154.325 37.233C154.317 37.32 154.317 37.4075 154.325 37.4945L154.332 43.3888Z" fill="#4F4F4F"/>
<path d="M169.626 37.4511L174 43.4276H170.968L167.935 39.1918L166.653 40.5216V43.3903H164.189V28.1055H166.653V37.2644L170.657 33.1107H173.955L169.626 37.4511Z" fill="#4F4F4F"/>
<path d="M52.6212 23.9647L63.3723 30.0457V42.2676L52.6515 48.386L41.9079 42.32V30.1055L52.6212 23.9647ZM52.6212 15L48.6786 17.2411L37.9426 23.382L34 25.6232V46.8172L37.9426 49.0584L48.6937 55.1395L52.6363 57.3806L56.5789 55.1395L67.2922 49.0136L71.2347 46.7724V25.5485L67.2922 23.3073L56.5486 17.2411L52.606 15H52.6212Z" fill="#4F4F4F"/>
<rect x="0.341247" y="0.341247" width="207.318" height="71.3175" rx="7.65875" stroke="black" stroke-opacity="0.08" stroke-width="0.682494"/>
</svg>
