<svg width="40" height="40" viewBox="0 0 40 40" fill="none" xmlns="http://www.w3.org/2000/svg">
<rect width="40" height="40" rx="20" fill="#E0F2FF"/>
<path d="M27.5925 12H13.4075C13.1901 12 13 12.1903 13 12.4075V27.8968C13 28.1142 13.1903 28.3044 13.4075 28.3044H27.5925C27.8099 28.3044 28 28.114 28 27.8968V12.4075C28 12.1903 27.8099 12 27.5925 12ZM15.4728 15.2065C15.4728 14.989 15.6631 14.7989 15.8803 14.7989H20.1738C20.3912 14.7989 20.5814 14.9892 20.5814 15.2065V18.4946C20.5814 18.712 20.3911 18.9022 20.1738 18.9022H15.8805C15.663 18.9022 15.4729 18.7119 15.4729 18.4946L15.4728 15.2065ZM25.1196 25.5055H15.8804C15.663 25.5055 15.4729 25.3152 15.4729 25.0979C15.4729 24.8805 15.6632 24.6904 15.8804 24.6904L25.1196 24.6902C25.337 24.6902 25.5271 24.8805 25.5271 25.0978C25.5273 25.3152 25.3641 25.5055 25.1196 25.5055ZM25.1196 21.9999H15.8804C15.663 21.9999 15.4729 21.8096 15.4729 21.5924C15.4729 21.375 15.6632 21.1848 15.8804 21.1848H25.1196C25.337 21.1848 25.5271 21.3752 25.5271 21.5924C25.5273 21.8098 25.3641 21.9999 25.1196 21.9999ZM25.1196 18.9021H22.9456C22.7282 18.9021 22.5381 18.7117 22.5381 18.4945C22.5381 18.2771 22.7284 18.087 22.9456 18.087H25.1196C25.337 18.087 25.5271 18.2773 25.5271 18.4945C25.5273 18.7119 25.3641 18.9021 25.1196 18.9021ZM25.1196 15.6141H22.9456C22.7282 15.6141 22.5381 15.4238 22.5381 15.2065C22.5381 14.9891 22.7284 14.799 22.9456 14.799L25.1196 14.7988C25.337 14.7988 25.5271 14.9891 25.5271 15.2063C25.5273 15.4238 25.3641 15.6141 25.1196 15.6141Z" fill="#0D58C6"/>
</svg>
