<svg width="410" height="263" viewBox="0 0 410 263" fill="none" xmlns="http://www.w3.org/2000/svg">
<path fill-rule="evenodd" clip-rule="evenodd" d="M243.422 9.13028C243.422 14.6371 243.767 18.2606 244.292 18.2606C244.816 18.2606 245.161 14.6371 245.161 9.13028C245.161 3.62342 244.816 0 244.292 0C243.767 0 243.422 3.62342 243.422 9.13028ZM233.857 12.6085C237.42 16.1954 240.727 19.1301 241.205 19.1301C241.683 19.1301 239.159 16.1954 235.596 12.6085C232.034 9.02159 228.727 6.08686 228.249 6.08686C227.77 6.08686 230.295 9.02159 233.857 12.6085ZM252.987 12.6085C249.425 16.1954 246.9 19.1301 247.379 19.1301C247.857 19.1301 251.164 16.1954 254.726 12.6085C258.289 9.02159 260.813 6.08686 260.335 6.08686C259.857 6.08686 256.55 9.02159 252.987 12.6085ZM226.281 22.3822C229.048 22.5553 233.352 22.5535 235.846 22.3788C238.339 22.204 236.074 22.0622 230.814 22.064C225.553 22.0657 223.513 22.2092 226.281 22.3822ZM252.335 22.3814C255.085 22.5535 259.585 22.5535 262.335 22.3814C265.085 22.2092 262.835 22.0675 257.335 22.0675C251.835 22.0675 249.585 22.2092 252.335 22.3814ZM61.1695 27.8187C59.7748 31.6969 59.187 32.3134 55.647 33.6142C49.881 35.7325 49.8228 36.0759 54.9053 38.0046C59.1383 39.6115 59.653 40.1159 61.2452 44.2236C62.1982 46.6827 63.1764 48.6905 63.4191 48.6853C63.6617 48.6801 64.6425 46.6618 65.599 44.2001C67.199 40.0837 67.7077 39.5863 71.945 37.9907C74.4789 37.0368 76.2397 35.9898 75.858 35.6629C75.4763 35.3368 73.3372 34.3977 71.105 33.5768C67.4633 32.2377 66.8868 31.6421 65.4982 27.7813C64.6477 25.4144 63.6764 23.4779 63.3408 23.4779C63.0052 23.4779 62.0278 25.4309 61.1695 27.8187ZM234.266 31.3299C230.476 35.142 227.769 38.2602 228.247 38.2602C229.382 38.2602 242.159 25.4022 241.59 24.8335C241.351 24.5952 238.055 27.5187 234.266 31.3299ZM246.9 24.8257C246.9 25.3039 249.835 28.6108 253.422 32.1734C257.009 35.7359 259.944 38.2602 259.944 37.782C259.944 37.3037 257.009 33.9968 253.422 30.4343C249.835 26.8717 246.9 24.3474 246.9 24.8257ZM243.422 35.2168C243.422 40.7237 243.767 44.3471 244.292 44.3471C244.816 44.3471 245.161 40.7237 245.161 35.2168C245.161 29.7099 244.816 26.0865 244.292 26.0865C243.767 26.0865 243.422 29.7099 243.422 35.2168ZM173.399 38.2968C149.077 41.4776 126.487 56.4104 114.65 77.1326L112.562 80.7891L81.2335 81.0456L49.9054 81.303L43.8681 84.2769C28.5275 91.8315 20.3537 108.101 23.7701 124.278C26.9536 139.349 38.6873 150.518 53.9349 152.992C57.0026 153.491 71.4894 153.9 86.1274 153.904L112.743 153.911L116.094 159.34C120.6 166.641 131.937 178.294 139.287 183.18C146.377 187.894 156.132 192.134 165.163 194.427C174.591 196.822 193.363 196.62 202.988 194.021C220.16 189.385 235.815 178.975 246.151 165.323C250.373 159.745 250.379 159.742 250.379 162.59C250.379 165.376 250.45 165.43 253.494 164.936C257.5 164.287 265.473 165.764 269.76 167.952C271.603 168.892 274.822 171.447 276.913 173.629L280.715 177.598L282.864 175.102C284.046 173.729 285.181 172.801 285.388 173.041C285.595 173.28 292.712 192.453 301.204 215.649C318.171 261.99 318.678 263 325.008 263C326.841 263 329.301 262.37 330.474 261.602C331.784 260.743 337.588 251.109 345.512 236.64C352.608 223.68 358.857 212.73 359.396 212.307C359.935 211.883 370.708 205.908 383.335 199.028C408.481 185.326 409.944 184.131 409.182 177.907C408.939 175.923 407.927 173.696 406.746 172.544C405.479 171.309 393.522 166.469 374.724 159.583C358.225 153.538 341.94 147.568 338.535 146.315L332.347 144.038L336.151 138.869C348.792 121.699 344.243 97.6775 326.18 86.2099C318.297 81.2056 315.597 80.8682 283.388 80.8682H254.104L250.971 75.7918C238.101 54.9426 216.596 41.2289 192.141 38.2794C183.952 37.2916 181.064 37.2942 173.399 38.2968ZM172.554 42.7054C165.297 46.9314 160.491 50.6566 153.294 57.6347L147.947 62.8181L140.323 60.3903L132.698 57.9625L136.105 55.0687C143.289 48.9653 159.544 41.9558 170.954 40.0411C178.516 38.7715 178.722 39.1133 172.554 42.7054ZM203.069 41.7845C206.462 42.6384 211.868 44.5297 215.084 45.9879C221.577 48.9322 232.988 56.2234 232.988 57.4286C232.988 57.8547 229.688 59.2321 225.656 60.4894L218.326 62.7755L213.265 57.639C207.098 51.3792 200.103 46.061 192.816 42.0897L187.336 39.1037L192.119 39.668C194.749 39.9785 199.677 40.9306 203.069 41.7845ZM178.241 44.5645C176.746 47.0749 173.681 52.7861 171.429 57.2556L167.336 65.3824L161.684 64.8163C158.576 64.505 154.695 63.9694 153.06 63.6259L150.089 63.0007L152.924 59.7712C157.064 55.0556 166.027 48.1549 173.662 43.8036C177.334 41.7115 180.477 39.9993 180.648 39.9993C180.819 39.9993 179.735 42.0532 178.241 44.5645ZM195.098 45.1271C198.909 47.3401 205.305 52.2765 209.408 56.1713L216.826 63.212L210.089 64.2146C198.806 65.8928 199.625 66.2763 195.055 57.173C192.835 52.7487 189.718 47.094 188.127 44.6062C184.741 39.3063 185.125 39.335 195.098 45.1271ZM182.554 53.4774V66.0859H176.032C172.147 66.0859 169.51 65.725 169.51 65.192C169.51 63.4259 181.371 40.8689 182.3 40.8689C182.439 40.8689 182.554 46.5427 182.554 53.4774ZM193.006 56.2921C195.336 60.8964 197.045 64.9842 196.803 65.3746C196.561 65.7659 193.648 66.0859 190.328 66.0859H184.293V53.7104V41.335L186.53 44.628C187.761 46.4392 190.675 51.6878 193.006 56.2921ZM341.922 43.2602C337.452 55.1165 338.215 54.1322 331.389 56.8547C327.932 58.2338 325.341 59.5999 325.631 59.8912C325.923 60.1816 328.734 61.439 331.879 62.6859C337.583 64.9468 337.603 64.9668 339.864 70.671C341.111 73.8162 342.369 76.6292 342.661 76.9213C342.954 77.2135 344.325 74.6527 345.709 71.2319L348.226 65.0111L354.019 62.7155C357.205 61.452 360.066 60.1651 360.378 59.8538C360.688 59.5425 358.045 58.2103 354.502 56.893L348.061 54.4974L345.626 48.1183C344.287 44.6088 343.034 41.7384 342.843 41.7384C342.653 41.7384 342.238 42.4228 341.922 43.2602ZM139.076 61.4825C143.141 62.8059 146.603 63.9642 146.768 64.0563C146.934 64.1485 145.911 65.9154 144.494 67.9815C143.078 70.0475 140.881 73.7927 139.613 76.3031L137.307 80.8682H126.018C119.809 80.8682 114.729 80.5213 114.729 80.0978C114.729 77.8987 129.324 59.1834 131.102 59.1034C131.422 59.0886 135.011 60.159 139.076 61.4825ZM240.075 64.1294C244.593 68.8919 248.913 74.6588 251.15 78.9117L252.179 80.8682H240.541H228.904L227.375 77.4796C226.535 75.6153 224.331 71.8066 222.477 69.0145L219.106 63.9389L224.09 62.4955C226.832 61.7025 230.053 60.6451 231.248 60.146C234.714 58.7008 235.082 58.8669 240.075 64.1294ZM159.635 66.1128L166.716 67.1285L164.291 73.7805L161.867 80.4335L150.472 80.6761C144.204 80.8091 139.076 80.6482 139.076 80.3178C139.076 79.5213 143.055 72.684 146.26 67.9711C148.269 65.0181 149.226 64.3007 150.689 64.6511C151.715 64.8972 155.74 65.5546 159.635 66.1128ZM222.349 71.5745C224.852 75.5492 226.901 79.2665 226.901 79.8352C226.901 80.5787 223.796 80.8682 215.809 80.8682H204.718L202.323 74.2101C201.005 70.5475 200.056 67.4232 200.213 67.2667C200.37 67.1102 203.602 66.5511 207.395 66.0241C211.189 65.4972 214.456 64.9042 214.655 64.7068C216.121 63.2511 218.373 65.2615 222.349 71.5745ZM179.632 67.825H182.554V74.3466V80.8682H172.989C167.728 80.8682 163.423 80.6813 163.423 80.4535C163.423 79.8109 167.66 68.7084 168.301 67.6711C168.65 67.1076 170.391 66.9589 172.789 67.2876C174.946 67.5832 178.024 67.825 179.632 67.825ZM199.857 71.7023C200.833 74.3136 201.882 77.4439 202.187 78.6587L202.742 80.8682H193.517H184.293V74.3918V67.9163L188.858 67.5963C191.368 67.4206 194.471 67.205 195.752 67.1163C197.822 66.9737 198.278 67.4824 199.857 71.7023ZM312.396 82.5769C315.179 83.0325 319.589 84.3812 322.194 85.5742C328.236 88.3403 335.928 96.0071 338.669 101.996C344.405 114.525 342.26 130.1 333.455 139.846L330.245 143.398L326.181 141.836C323.945 140.976 321.373 140.005 320.464 139.678C318.88 139.107 318.891 138.999 320.749 137.021L322.685 134.96L318.636 130.911C313.286 125.561 311.05 120.341 310.559 112.06L310.166 105.427L303.533 105.034C295.28 104.545 290.034 102.308 284.749 97.0245C282.559 94.8341 280.581 93.0419 280.353 93.0419C280.125 93.0419 278.535 94.5958 276.82 96.4941C272.158 101.654 265.517 104.563 257.315 105.037L250.532 105.43V111.348C250.532 119.001 247.382 126.357 241.968 131.347L238.142 134.874L242.019 138.642C245.886 142.401 249.509 148.297 249.509 150.832C249.509 152.03 239.237 152.171 152.211 152.171C57.7626 152.171 54.7496 152.121 49.3497 150.453C35.0674 146.042 25.6571 134.36 24.5449 119.662C23.2076 101.977 35.9134 85.5812 53.1871 82.7047C59.5478 81.6456 305.966 81.5239 312.396 82.5769ZM292.735 104.107C296.123 105.658 299.193 106.35 302.99 106.421L308.409 106.52L308.911 112.424C309.526 119.668 312.445 126.332 317.314 131.614L320.927 135.534L318.818 136.916C316.807 138.234 315.943 138.017 300.058 132.192C290.9 128.833 282.589 126.085 281.591 126.085C279.04 126.085 275.066 128.607 273.754 131.06C271.896 134.529 272.637 138.068 278.58 154.122C281.721 162.607 284.291 169.891 284.291 170.309C284.291 170.726 283.497 172.076 282.527 173.31L280.762 175.553L277.092 171.885C271.995 166.79 266.097 164.182 258.53 163.676L252.332 163.261L251.932 157.017C251.468 149.794 247.729 141.669 242.931 137.456L240.106 134.975L243.546 131.617C248.574 126.707 251.435 120.266 251.923 112.757L252.328 106.52L257.223 106.46C264.5 106.37 270.578 103.981 275.837 99.1427L280.378 94.9654L284.139 98.4288C286.208 100.334 290.075 102.89 292.735 104.107ZM315.265 142.826C311.994 147.115 310.378 152.477 310.378 159.04V164.82L304.073 164.877C297.629 164.936 291.017 167.058 287.578 170.17C286.721 170.946 285.79 171.352 285.51 171.071C284.676 170.237 291.631 166.061 296.084 164.72C298.359 164.036 302.212 163.476 304.646 163.476H309.073L309.189 157.905C309.307 152.239 312.198 144.141 315.34 140.668C317.706 138.054 317.649 139.701 315.265 142.826ZM16.8268 150.867C16.4468 151.824 15.3085 154.757 14.2955 157.385C12.5034 162.038 12.3016 162.223 6.65652 164.394C3.46787 165.62 0.639225 166.842 0.372273 167.109C0.104452 167.376 2.73658 168.749 6.22 170.158L12.5547 172.721L14.7816 178.512C16.0059 181.698 17.2268 184.523 17.4946 184.79C17.7616 185.058 19.1267 182.444 20.5267 178.982L23.0728 172.688L29.3883 170.134C32.8613 168.729 35.3865 167.286 34.9987 166.928C34.6117 166.569 31.8065 165.382 28.7648 164.289C23.6406 162.449 23.1128 162.011 21.5858 158.324C17.9068 149.441 17.5894 148.944 16.8268 150.867ZM138.207 155.058C138.207 155.69 140.261 159.329 142.772 163.144L147.337 170.082L139.251 172.682L131.166 175.283L126.597 170.466C122.232 165.864 117.909 160.074 115.696 155.867L114.668 153.911H126.437C135.606 153.911 138.207 154.164 138.207 155.058ZM164.374 160.45C166.977 168 168.016 166.963 156.084 168.724L149.178 169.742L146.856 166.897C145.579 165.332 143.279 161.77 141.746 158.981L138.959 153.911L150.538 153.911H162.119L164.374 160.45ZM182.554 160.432V166.954H175.323H168.092L165.793 160.432L163.494 153.911H173.024H182.554V160.432ZM202.553 154.674C202.553 155.094 201.617 157.931 200.473 160.978L198.392 166.519L191.343 166.771L184.293 167.024V160.467V153.911H193.423C198.445 153.911 202.553 154.254 202.553 154.674ZM226.516 155.432C225.807 157.327 221.218 164.982 219.143 167.733C217.644 169.72 217.412 169.755 211.959 168.805C208.859 168.265 205.107 167.823 203.62 167.823C202.133 167.823 200.705 167.479 200.445 167.059C200.185 166.639 201.001 163.509 202.259 160.103L204.545 153.911H215.816C226.188 153.911 227.042 154.032 226.516 155.432ZM250.379 155.596C250.379 157.4 241.762 169.295 237.581 173.264L235.055 175.661L229.89 173.581C227.05 172.437 223.496 171.239 221.99 170.917L219.255 170.333L223.947 162.859C226.529 158.748 228.64 155.052 228.64 154.647C228.64 154.242 233.531 153.911 239.509 153.911C249.684 153.911 250.379 154.018 250.379 155.596ZM182.554 180.634V193.444L180.499 190.416C177.812 186.456 170.71 173.136 169.993 170.711C169.369 168.602 170.596 168.201 178.423 167.954L182.554 167.823V180.634ZM195.051 168.578L197.547 169.128L192.618 178.693C189.907 183.953 186.933 189.236 186.01 190.432L184.331 192.606L184.312 180.214L184.293 167.823L188.423 167.926C190.695 167.982 193.677 168.276 195.051 168.578ZM170.705 175.533C172.513 179.294 175.494 184.87 177.33 187.924C179.167 190.977 180.529 193.615 180.359 193.785C179.829 194.315 170.233 188.629 164.293 184.267C161.184 181.983 156.722 178.154 154.376 175.759C149.559 170.839 149.319 171.182 158.653 169.622C167.443 168.153 167.071 167.971 170.705 175.533ZM207.491 169.628C211.231 170.142 214.662 170.922 215.114 171.363C216.111 172.334 209.203 179.174 201.471 184.872C196.613 188.452 186.032 194.442 186.032 193.612C186.032 193.435 187.918 190.006 190.224 185.991C192.529 181.977 195.442 176.443 196.697 173.693C197.952 170.942 199.364 168.693 199.833 168.693C200.304 168.693 203.749 169.114 207.491 169.628ZM164.338 186.273C166.036 187.508 169.949 189.922 173.034 191.639C179.33 195.144 178.505 195.488 168.5 193.532C156.714 191.227 145.596 186.335 136.691 179.536L132.785 176.554L135.278 175.543C136.65 174.988 140.12 173.846 142.989 173.007L148.206 171.482L154.728 177.755C158.315 181.205 162.639 185.039 164.338 186.273ZM227.118 174.155C230.346 175.165 232.988 176.273 232.988 176.616C232.988 177.785 224.514 183.465 217.655 186.893C210.084 190.678 200.954 193.468 193.253 194.352L188.206 194.932L194.261 191.325C201.617 186.944 210.611 179.769 214.727 175C218.067 171.129 217.557 171.163 227.118 174.155ZM232.742 190.525C230.762 194.999 230.218 195.532 226.132 197.001C223.683 197.882 221.975 198.865 222.334 199.185C222.694 199.505 224.808 200.445 227.033 201.272C230.58 202.591 231.262 203.274 232.581 206.821C233.409 209.046 234.345 211.157 234.662 211.514C234.98 211.87 235.966 210.023 236.854 207.409C238.376 202.933 238.714 202.576 242.675 201.26C244.987 200.492 247.074 199.549 247.312 199.165C247.549 198.78 245.718 197.734 243.242 196.84C239.06 195.329 238.605 194.876 236.821 190.432L234.9 185.649L232.742 190.525Z" fill="black"/>
</svg>
