<svg width="121" height="28" viewBox="0 0 121 28" fill="none" xmlns="http://www.w3.org/2000/svg">
<path d="M7.37942 6.80524H10.1258L9.64022 10.678H6.92567L6.20922 16.5387C6.06593 17.5366 6.44008 17.9088 7.09284 17.9088C7.55455 17.9088 8.00831 17.8217 8.54962 17.6791L8.29488 21.5519C7.00528 21.837 6.08981 21.9796 4.9435 21.9796C1.31349 21.9796 0.565198 20.1264 0.995068 16.6258L1.7354 10.6463H0L0.374145 7.80314L2.17323 7.14579L2.54737 4.18379L7.80929 3.30469L7.37942 6.80524Z" fill="white"/>
<path d="M21.6389 6.83665L20.5483 11.644C20.1184 11.446 19.7204 11.3589 19.2587 11.3589C18.0885 11.3589 17.1412 11.8182 16.369 13.2121L15.3421 21.6388H10.1677L11.9986 6.80497H16.3212L16.2337 7.46231L15.7162 9.28386H16.0904C17.1491 7.43063 18.6059 6.49609 20.1821 6.49609C20.7791 6.49609 21.209 6.60697 21.6389 6.83665Z" fill="white"/>
<path d="M34.0453 21.6346H30.2083L29.866 19.8447H29.6909C28.863 21.2703 27.2311 21.983 25.631 21.983C22.5423 21.983 21.396 20.1615 21.8577 16.4629L23.0598 6.81662H28.2023L27.1196 15.6789C26.9445 16.9619 27.1754 17.643 28.067 17.643C28.6401 17.643 29.1257 17.247 29.468 16.6768L30.7019 6.80078H35.8444L34.0453 21.6346Z" fill="white"/>
<path d="M54.3409 17.9265C54.5956 17.9265 54.8026 17.8711 55.0255 17.8156V21.6013C54.0782 21.7993 53.107 21.9419 52.1915 21.9419C48.9834 21.9419 47.9247 20.4054 48.4182 16.4772L49.875 4.6054C49.0153 4.51828 48.2431 4.46284 47.5266 4.46284C45.7276 4.46284 44.9235 4.89051 44.7803 6.05472L44.6927 6.79127H47.1286L46.643 10.6324H44.2071L42.201 27.4303L36.8516 28.0005L39.0248 10.6324H37.3053L37.6795 7.52781L39.4547 7.06846L39.5422 6.35568C40.0597 2.2849 43.2598 0.574219 48.1555 0.574219C49.1586 0.574219 50.6711 0.685096 51.8492 0.891011L55.5429 0.574219L53.5687 16.6039C53.4254 17.586 53.7677 17.9265 54.3409 17.9265Z" fill="white"/>
<path d="M66.6549 8.19574H66.7107L67.3953 6.80186H70.9695L69.1068 21.6357H64.8161L64.8718 21.0654L65.5007 19.2439H65.1026C64.2429 20.8912 62.6667 21.9762 60.7243 21.9762C57.4924 21.9762 55.8923 19.2993 56.4893 14.2623C57.174 8.68677 59.379 6.43755 62.7543 6.43755C64.8479 6.42963 66.1375 7.40376 66.6549 8.19574ZM61.9582 13.7475C61.5841 16.7967 61.9901 17.9609 62.9851 17.9609C63.6459 17.9609 64.2429 17.4461 64.5613 16.765L65.3016 10.9281C65.0469 10.3579 64.617 9.93018 63.9006 9.93018C62.8737 9.93018 62.3085 10.9281 61.9582 13.7475Z" fill="white"/>
<path d="M79.8007 6.80524H82.5471L82.0615 10.678H79.3469L78.6305 16.5387C78.4872 17.5366 78.8613 17.9088 79.5141 17.9088C79.9758 17.9088 80.4296 17.8217 80.9709 17.6791L80.7161 21.5519C79.4265 21.837 78.5111 21.9796 77.3648 21.9796C73.7348 21.9796 72.9865 20.1264 73.4164 16.6258L74.1567 10.6463H72.4133L72.7875 7.80314L74.5865 7.14579L74.9607 4.18379L80.2226 3.30469L79.8007 6.80524Z" fill="white"/>
<path d="M87.7634 21.6369H82.5811L84.3881 6.80311H89.5704L87.7634 21.6369ZM90.3346 2.70065C90.1595 4.21334 88.6788 5.40131 87.1902 5.40131C85.6459 5.40131 84.4995 4.20542 84.6747 2.70065C84.8498 1.21965 86.2748 0 87.8509 0C89.3396 0 90.5416 1.22757 90.3346 2.70065Z" fill="white"/>
<path d="M104.608 14.096C103.892 20.0992 100.915 21.9841 96.7433 21.9841C92.7949 21.9841 90.1043 20.0754 90.8207 14.096C91.5371 8.29073 94.4268 6.4375 98.6618 6.4375C102.698 6.4375 105.325 8.34617 104.608 14.096ZM96.2259 14.0405C95.8279 17.2322 96.1702 18.6498 97.1732 18.6498C98.2001 18.6498 98.8927 17.2243 99.2907 14.0405C99.6649 10.9914 99.2907 9.7955 98.2638 9.7955C97.2608 9.7955 96.6 10.9914 96.2259 14.0405Z" fill="white"/>
<path d="M119.967 12.1874L118.821 21.6357H113.639L114.729 12.6943C114.928 11.3004 114.586 10.7618 113.782 10.7618C113.185 10.7618 112.58 11.1578 112.182 11.728L110.98 21.6357H105.798L107.629 6.80192H111.951L111.895 7.34046L111.354 9.13034H111.728C112.755 7.56222 114.363 6.42969 116.361 6.42969C119.219 6.43761 120.453 8.34628 119.967 12.1874Z" fill="white"/>
</svg>
