<?xml version="1.0" standalone="no"?>
<!DOCTYPE svg PUBLIC "-//W3C//DTD SVG 20010904//EN"
 "http://www.w3.org/TR/2001/REC-SVG-20010904/DTD/svg10.dtd">
<svg version="1.0" xmlns="http://www.w3.org/2000/svg"
 width="1216.000000pt" height="1216.000000pt" viewBox="0 0 1216.000000 1216.000000"
 preserveAspectRatio="xMidYMid meet">
<metadata>
Created by potrace 1.14, written by Peter Selinger 2001-2017
</metadata>
<g transform="translate(0.000000,1216.000000) scale(0.100000,-0.100000)"
fill="#000000" stroke="none">
<path d="M7528 11965 c-6 -7 -39 -14 -88 -20 -37 -5 -82 -12 -116 -20 -11 -2
-40 -7 -65 -10 -24 -3 -55 -8 -69 -11 -14 -3 -41 -7 -60 -10 -19 -3 -46 -7
-60 -11 -14 -3 -36 -7 -50 -9 -14 -1 -54 -8 -90 -14 -36 -7 -74 -13 -85 -15
-11 -1 -47 -7 -80 -13 -33 -6 -78 -14 -100 -17 -23 -3 -52 -7 -65 -10 -28 -5
-85 -14 -129 -20 -17 -2 -34 -6 -38 -8 -4 -3 -33 -8 -63 -12 -70 -9 -87 -12
-130 -20 -19 -4 -44 -8 -55 -9 -11 -1 -33 -5 -50 -9 -16 -4 -47 -9 -67 -12
-64 -9 -102 -15 -128 -20 -41 -10 -74 -16 -90 -16 -8 -1 -49 -7 -90 -15 -41
-7 -93 -15 -115 -19 -22 -3 -47 -7 -55 -10 -8 -2 -35 -6 -60 -9 -25 -4 -58 -9
-75 -12 -16 -3 -41 -7 -55 -9 -14 -2 -25 -4 -25 -5 0 -1 -13 -3 -30 -5 -16 -2
-46 -7 -65 -10 -43 -9 -46 -9 -205 -35 -71 -12 -141 -24 -155 -26 -14 -2 -65
-11 -115 -19 -49 -8 -101 -17 -115 -20 -14 -2 -78 -13 -143 -24 -64 -11 -122
-23 -129 -27 -6 -4 -8 -3 -5 3 4 6 -14 5 -44 -3 -27 -7 -77 -16 -110 -20 -33
-4 -62 -10 -65 -15 -5 -8 -7 -24 -20 -124 -2 -22 -7 -51 -9 -65 -2 -14 -7 -54
-10 -90 -4 -36 -8 -72 -10 -80 -2 -9 -6 -40 -10 -70 -3 -30 -8 -66 -10 -80 -1
-14 -12 -104 -24 -200 -25 -201 -30 -238 -35 -265 -2 -11 -7 -49 -11 -85 -3
-36 -9 -78 -12 -95 -2 -16 -6 -46 -8 -65 -2 -19 -6 -53 -9 -75 -3 -22 -8 -65
-11 -95 -3 -30 -8 -62 -10 -70 -2 -8 -7 -42 -10 -75 -3 -33 -8 -73 -10 -90 -2
-16 -7 -52 -10 -80 -3 -27 -8 -63 -11 -80 -3 -16 -7 -48 -9 -69 -3 -21 -6 -40
-7 -41 -5 -3 -163 -59 -173 -61 -5 -1 -39 -14 -74 -29 -35 -15 -73 -27 -83
-28 -10 -1 -18 -5 -18 -9 0 -4 -3 -7 -7 -6 -5 0 -15 -1 -23 -5 -8 -3 -91 -33
-185 -67 -403 -146 -576 -210 -583 -215 -5 -4 -11 -47 -17 -110 -3 -33 -8 -67
-10 -75 -2 -8 -7 -42 -10 -75 -3 -33 -8 -72 -11 -85 -3 -14 -6 -38 -8 -55 -9
-74 -19 -152 -22 -170 -5 -21 -13 -96 -19 -156 -1 -20 -6 -50 -10 -67 -3 -17
-8 -52 -10 -79 -2 -26 -4 -48 -5 -48 -1 0 -3 -15 -6 -34 -2 -19 -6 -46 -9 -60
-3 -14 -8 -53 -11 -86 -3 -33 -8 -71 -10 -85 -3 -14 -7 -36 -8 -50 -2 -14 -7
-52 -11 -85 -4 -33 -9 -73 -11 -90 -6 -53 -13 -99 -18 -130 -8 -47 -29 -227
-30 -255 l-1 -24 553 0 553 0 -7 -50 c-3 -28 -8 -62 -9 -76 -9 -73 -19 -156
-30 -240 -2 -19 -7 -60 -11 -90 -4 -30 -8 -64 -10 -75 -3 -11 -7 -47 -9 -80
-3 -33 -7 -69 -9 -80 -2 -12 -7 -48 -11 -80 -8 -66 -8 -67 -31 -245 -8 -69
-17 -145 -19 -170 -2 -25 -6 -56 -9 -70 -2 -14 -7 -49 -10 -78 -3 -28 -8 -67
-11 -85 -6 -36 -13 -102 -20 -162 -2 -22 -6 -53 -9 -70 -2 -16 -8 -57 -11 -90
-11 -99 -12 -108 -19 -150 -5 -35 -12 -91 -21 -175 -1 -14 -5 -43 -9 -65 -3
-22 -8 -62 -11 -90 -11 -102 -16 -141 -20 -165 -2 -14 -7 -50 -10 -80 -3 -30
-8 -66 -10 -80 -2 -14 -7 -52 -10 -85 -3 -33 -8 -73 -11 -90 -2 -16 -6 -50 -9
-75 -2 -25 -7 -61 -10 -80 -3 -19 -8 -55 -10 -79 -2 -24 -7 -60 -10 -80 -4
-34 -9 -71 -19 -151 -2 -19 -7 -62 -10 -95 -4 -33 -9 -71 -12 -85 -2 -14 -6
-41 -8 -60 -11 -96 -18 -155 -21 -169 -2 -9 -6 -47 -10 -86 -4 -38 -9 -79 -12
-90 -2 -11 -6 -45 -9 -75 -2 -30 -6 -66 -9 -80 -2 -14 -6 -54 -10 -90 -3 -36
-8 -87 -11 -115 -8 -79 -13 -133 -20 -240 -3 -55 -8 -122 -10 -150 -4 -71 -4
-550 0 -610 12 -147 18 -214 22 -245 3 -19 6 -48 8 -65 4 -32 8 -55 32 -185
48 -267 159 -552 291 -754 29 -44 53 -81 53 -83 0 -2 10 -14 23 -27 12 -13 40
-45 62 -71 44 -52 131 -137 185 -181 19 -16 37 -31 40 -35 3 -3 50 -35 105
-71 86 -56 215 -124 345 -181 56 -24 251 -87 271 -87 11 0 19 -5 19 -11 0 -6
6 -9 13 -6 6 2 26 0 42 -5 17 -5 39 -11 50 -13 11 -3 40 -9 65 -14 25 -6 62
-13 84 -16 21 -3 41 -7 45 -9 3 -2 31 -7 61 -10 30 -3 64 -8 75 -10 19 -4 113
-14 195 -22 276 -25 686 -25 1110 1 46 3 152 13 205 20 17 2 55 6 85 10 30 3
71 8 90 10 19 3 53 7 76 10 22 2 54 6 70 9 41 7 83 14 129 21 48 6 150 24 185
31 14 3 39 7 56 9 17 1 39 5 50 8 10 4 33 9 49 11 17 3 55 10 85 16 30 6 66
13 80 16 14 2 45 9 70 14 25 6 56 13 70 15 14 3 39 8 55 12 17 4 32 7 35 8 3
1 19 4 35 8 17 4 45 9 64 12 19 2 38 8 42 12 4 4 10 49 13 98 4 50 8 117 11
150 3 33 7 96 10 140 4 79 11 189 20 315 3 36 7 103 10 150 3 47 7 112 10 145
2 33 7 107 10 165 4 58 9 132 11 165 5 60 9 119 18 275 3 47 8 119 11 161 3
42 8 112 10 155 2 44 5 79 5 79 1 0 3 29 5 65 2 36 6 103 9 150 3 47 8 125 11
174 l6 89 -33 -7 c-18 -4 -40 -9 -48 -11 -59 -16 -150 -37 -180 -41 -19 -3
-39 -8 -44 -11 -4 -3 -20 -7 -35 -9 -14 -2 -51 -9 -81 -15 -73 -14 -116 -21
-235 -35 -176 -22 -408 -18 -473 7 -15 6 -38 13 -52 16 -13 2 -30 9 -37 15 -7
6 -13 7 -13 4 0 -14 -97 59 -142 106 -26 28 -60 78 -76 112 -27 57 -38 95 -60
216 -10 53 -8 220 3 305 4 33 8 71 10 85 1 14 5 48 9 75 3 28 8 70 11 94 3 23
7 55 9 70 3 14 7 55 11 91 4 36 8 76 10 90 3 14 7 50 10 80 3 30 8 66 10 80 2
14 6 46 10 72 3 27 8 69 11 95 3 27 7 62 9 78 2 17 7 53 10 80 8 56 11 87 19
160 5 44 8 67 21 165 5 38 27 221 30 250 2 14 5 43 8 65 3 22 9 65 12 95 4 30
8 66 10 80 2 14 7 54 10 90 4 36 9 72 10 81 2 9 6 40 9 70 4 30 9 70 11 89 3
19 7 55 10 80 3 25 7 56 10 70 2 14 7 55 10 91 3 36 7 76 10 90 2 13 6 44 9
69 3 25 8 65 11 90 8 57 11 90 19 165 4 33 9 76 12 95 7 41 9 63 18 150 4 36
9 76 11 90 2 14 6 48 10 75 4 28 9 61 10 75 10 103 17 157 20 170 2 8 6 42 10
75 3 33 9 78 12 100 2 22 6 51 8 65 8 70 17 136 20 140 2 3 385 6 852 5 466 0
857 2 868 6 13 4 20 16 21 35 0 16 3 45 7 64 3 19 9 67 12 105 4 39 9 79 12
90 8 39 26 188 27 232 1 18 3 33 6 33 3 0 5 12 6 28 1 29 12 126 19 160 2 11
6 49 10 84 3 35 8 74 10 88 2 14 7 45 9 70 3 25 8 61 11 80 2 19 7 55 10 80 3
25 7 61 10 80 6 47 14 106 20 158 3 23 7 61 10 85 3 23 8 60 10 82 5 49 16
134 20 157 2 9 6 44 10 77 3 33 7 68 9 78 2 10 7 45 10 78 4 33 8 71 11 85 2
14 7 50 10 80 3 30 7 66 10 80 2 14 7 48 10 75 3 28 8 70 12 95 3 25 6 61 7
80 l1 35 -875 0 -875 0 4 35 c2 19 5 51 6 70 2 19 4 35 5 35 1 0 3 20 5 44 3
25 7 61 10 80 4 20 8 56 10 81 3 25 7 59 9 75 3 17 8 53 11 80 3 28 8 64 10
81 2 17 7 57 10 90 3 32 8 70 10 84 2 14 7 50 10 80 3 30 8 66 10 80 3 14 7
50 10 81 3 31 8 67 10 80 5 25 18 141 19 172 0 9 3 17 6 17 3 0 6 19 6 43 1
40 11 122 14 122 2 0 5 32 14 130 3 39 8 81 11 95 8 46 16 105 20 150 3 25 7
63 10 85 2 22 7 60 10 85 3 25 7 54 9 65 2 11 7 54 11 95 4 41 9 78 11 81 5 9
-21 30 -28 24z"/>
</g>
</svg>
