<svg width="16" height="16" viewBox="0 0 16 16" fill="none" xmlns="http://www.w3.org/2000/svg">
<path d="M6.93332 1.6001C3.69332 1.6001 1.06665 3.98783 1.06665 6.93343C1.06665 8.44629 1.76432 9.80691 2.87811 10.7761C2.71835 11.2993 2.3851 11.8197 1.7729 12.2834C1.77255 12.2838 1.77221 12.2841 1.77186 12.2845C1.72136 12.3037 1.67789 12.3378 1.6472 12.3822C1.61651 12.4267 1.60004 12.4794 1.59998 12.5334C1.59998 12.6042 1.62808 12.672 1.67809 12.722C1.7281 12.772 1.79593 12.8001 1.86665 12.8001C1.88487 12.7999 1.90302 12.7978 1.92082 12.7938C2.95552 12.7908 3.83835 12.3489 4.54061 11.7949C4.87386 11.9304 5.22173 12.0422 5.58436 12.1199C5.42222 11.6612 5.33332 11.1729 5.33332 10.6668C5.33332 8.01983 7.72585 5.86676 10.6666 5.86676C11.4037 5.86676 12.1063 6.00217 12.7458 6.24697C12.3746 3.62617 9.91678 1.6001 6.93332 1.6001ZM10.6666 6.93343C9.53506 6.93343 8.44982 7.32676 7.64966 8.0269C6.84951 8.72703 6.39998 9.67662 6.39998 10.6668C6.39998 11.6569 6.84951 12.6065 7.64966 13.3066C8.44982 14.0068 9.53506 14.4001 10.6666 14.4001C11.2122 14.3993 11.7525 14.3071 12.2583 14.1282C12.9124 14.5851 13.7039 14.924 14.6104 14.9272C14.6289 14.9313 14.6477 14.9333 14.6666 14.9334C14.7374 14.9334 14.8052 14.9053 14.8552 14.8553C14.9052 14.8053 14.9333 14.7375 14.9333 14.6668C14.9332 14.6122 14.9164 14.559 14.8851 14.5143C14.8538 14.4696 14.8096 14.4355 14.7583 14.4168C14.2702 14.0462 13.9574 13.6383 13.7698 13.223C14.5154 12.5316 14.9316 11.6174 14.9333 10.6668C14.9333 9.67662 14.4838 8.72703 13.6836 8.0269C12.8835 7.32676 11.7982 6.93343 10.6666 6.93343Z" fill="#0B4299"/>
</svg>
