<svg width="40" height="40" viewBox="0 0 40 40" fill="none" xmlns="http://www.w3.org/2000/svg">
<rect width="40" height="40" rx="20" fill="#E0F2FF"/>
<path d="M12.5 28L26.5 28C26.6326 28 26.7598 27.9473 26.8536 27.8536C26.9473 27.7598 27 27.6326 27 27.5L27 13.5C27 13.3674 26.9473 13.2402 26.8536 13.1464C26.7598 13.0527 26.6326 13 26.5 13L12.5 13C12.3674 13 12.2402 13.0527 12.1464 13.1464C12.0527 13.2402 12 13.3674 12 13.5L12 27.5C12 27.6326 12.0527 27.7598 12.1464 27.8536C12.2402 27.9473 12.3674 28 12.5 28ZM22.3126 23.1551L19.8376 25.1352L19.8126 25.1551L19.7525 25.1977L19.7175 25.2176L19.665 25.2402L19.5825 25.2602C19.556 25.2627 19.5292 25.2627 19.5025 25.2602C19.4751 25.2626 19.4475 25.2626 19.42 25.2602C19.3928 25.2562 19.366 25.2495 19.34 25.2401C19.3141 25.2305 19.2891 25.2188 19.265 25.2051C19.2394 25.1908 19.2151 25.174 19.1926 25.1551L19.1676 25.1352L16.6926 23.1551C16.5843 23.0739 16.5138 22.9522 16.4968 22.818C16.4799 22.6837 16.518 22.5483 16.6027 22.4427C16.6873 22.3371 16.8111 22.2703 16.9458 22.2576C17.0805 22.2449 17.2147 22.2873 17.3176 22.3751L19.0001 23.7251L19.0001 18.5151C19.0001 18.3365 19.0954 18.1715 19.2501 18.0822C19.4048 17.9928 19.5954 17.9928 19.7501 18.0822C19.9048 18.1715 20.0001 18.3365 20.0001 18.5151L20.0001 23.7251L21.6876 22.3751C21.8274 22.2701 22.012 22.2458 22.1743 22.3109C22.3366 22.3761 22.4531 22.5214 22.4813 22.6941C22.5096 22.8666 22.4456 23.0415 22.3126 23.1551ZM16 15.7351L23 15.7351C23.1787 15.7351 23.3437 15.8303 23.433 15.9851C23.5223 16.1398 23.5223 16.3303 23.433 16.4851C23.3437 16.6398 23.1787 16.7351 23 16.7351L16 16.7351C15.8213 16.7351 15.6563 16.6398 15.567 16.4851C15.4777 16.3303 15.4777 16.1398 15.567 15.9851C15.6563 15.8303 15.8213 15.7351 16 15.7351Z" fill="#0D58C6"/>
</svg>
