<svg width="542" height="164" viewBox="0 0 542 164" fill="none" xmlns="http://www.w3.org/2000/svg">
<mask id="mask0_1315_12184" style="mask-type:alpha" maskUnits="userSpaceOnUse" x="31" y="-19" width="482" height="288">
<path d="M271.781 269C404.629 269 512.323 204.529 512.323 125C512.323 45.471 404.629 -19 271.781 -19C138.933 -19 31.2393 45.471 31.2393 125C31.2393 204.529 138.933 269 271.781 269Z" fill="url(#paint0_radial_1315_12184)"/>
</mask>
<g mask="url(#mask0_1315_12184)">
<path opacity="0.2" d="M-533.272 141.212L-519.171 130.626L-505.711 122.287C-505.291 122.027 -504.762 121.832 -504.174 121.722L-491.458 119.33C-491.134 119.27 -490.796 119.235 -490.454 119.228L-477.814 118.97C-477.194 118.957 -476.589 118.853 -476.058 118.669L-463.856 114.425C-463.151 114.179 -462.612 113.804 -462.329 113.36L-448.665 92.0062L-434.811 73.9413C-434.647 73.728 -434.423 73.5318 -434.145 73.3611L-421.209 65.3855C-420.722 65.0856 -420.092 64.8744 -419.398 64.7785L-408.578 63.2831C-407.222 63.0958 -405.8 63.3689 -404.914 63.9861L-392.26 72.8139L-381.287 78.7998C-379.652 79.691 -377.012 79.5238 -375.758 78.4497L-364.56 68.8634C-364.231 68.5813 -363.785 68.3496 -363.263 68.1885L-351.447 64.5359C-350.502 64.2439 -349.38 64.2059 -348.383 64.4321L-336.894 67.0357C-336.218 67.1892 -335.636 67.4556 -335.227 67.8005L-321.754 79.1368L-308.276 94.5343C-307.874 94.993 -307.192 95.3507 -306.36 95.5388L-293.552 98.429L-279.451 100.688L-265.695 103.777C-265.465 103.829 -265.245 103.894 -265.038 103.971L-251.613 108.977C-251.371 109.067 -251.148 109.174 -250.95 109.294L-237.147 117.686L-223.381 128.117C-223.159 128.285 -222.893 128.433 -222.594 128.555L-210.374 133.555C-209.471 133.924 -208.323 134.037 -207.257 133.861L-195.699 131.959C-195.137 131.867 -194.622 131.698 -194.198 131.468L-181.167 124.375C-180.886 124.222 -180.563 124.096 -180.213 124.001L-167.849 120.662C-167.069 120.452 -166.184 120.407 -165.352 120.535L-153.738 122.33C-152.961 122.45 -152.137 122.42 -151.394 122.243L-139.17 119.329C-138.688 119.213 -138.255 119.04 -137.9 118.822L-124.906 110.789C-124.532 110.557 -124.254 110.28 -124.094 109.978L-110.391 84.1329C-110.288 83.939 -110.137 83.7548 -109.941 83.5859L-96.4213 71.9213C-96.2313 71.7574 -96.0018 71.6097 -95.7395 71.4827L-82.6037 65.1207C-82.2276 64.9386 -81.7909 64.802 -81.32 64.7195L-70.1146 62.7553C-68.7804 62.5214 -67.3301 62.7456 -66.3822 63.3322L-53.8314 71.1L-42.7399 79.1295C-41.2352 80.2189 -38.3263 80.1754 -36.923 79.0425L-25.8421 70.097C-25.7003 69.9826 -25.5386 69.8766 -25.3597 69.7808L-13.2161 63.2781C-12.1857 62.7264 -10.6913 62.5657 -9.38206 62.8659L1.4939 65.3593C2.19626 65.5204 2.79338 65.8028 3.20211 66.1674L16.6748 78.1791L30.4847 89.2758C30.6779 89.4311 30.9076 89.5705 31.167 89.69L44.4406 95.8036C44.7299 95.9369 45.0532 96.044 45.399 96.1212L58.9785 99.1521L72.3494 101.008C72.8312 101.075 73.2839 101.198 73.6799 101.368L86.8321 107.04C87.0637 107.14 87.2737 107.255 87.4575 107.384L101.282 117.046L114.875 128.681C115.209 128.967 115.66 129.201 116.191 129.362L129.195 133.322C129.388 133.38 129.589 133.428 129.797 133.467L141.113 135.535C142.591 135.805 144.208 135.508 145.135 134.794L157.517 125.258C157.629 125.171 157.755 125.088 157.891 125.011L170.391 118.01C171.264 117.522 172.506 117.317 173.698 117.463L185.286 118.893C185.686 118.942 186.097 118.952 186.502 118.923L199.458 117.996C199.811 117.97 200.155 117.915 200.48 117.833L212.62 114.752C213.558 114.514 214.277 114.061 214.598 113.505L228.066 90.3035C228.149 90.1571 228.264 90.0166 228.402 89.8845L241.911 77.0581C242.164 76.818 242.498 76.6096 242.895 76.4454L255.746 71.1288C256.173 70.9517 256.664 70.8302 257.182 70.7726L268.358 69.5311C269.675 69.385 271.024 69.6655 271.871 70.261L283.249 78.268C284.082 78.8536 285.402 79.1354 286.7 79.0043L297.837 77.8809C298.404 77.8238 298.939 77.6905 299.397 77.4921L312.8 71.6977L326.309 67.001C326.7 66.8649 327.133 66.7722 327.584 66.7282L338.442 65.6687C339.973 65.5192 341.502 65.9439 342.246 66.7257L355.104 80.2471L368.818 92.2458C369.075 92.4687 369.402 92.6616 369.782 92.8139L383.058 98.1117C383.224 98.1775 383.397 98.2352 383.578 98.2844L396.811 101.882C397.206 101.989 397.629 102.055 398.066 102.076L411.135 102.708C411.384 102.72 411.629 102.746 411.868 102.787L424.455 104.938C425.204 105.067 425.862 105.33 426.331 105.689L439.711 115.972L453.813 125.906L467.002 132.898C467.593 133.211 468.349 133.403 469.151 133.445L480.697 134.029C481.548 134.073 482.398 133.943 483.1 133.661L495.795 128.58C496.008 128.495 496.206 128.397 496.382 128.287L509.244 120.322C509.869 119.934 510.727 119.698 511.646 119.659L524.037 119.136C524.224 119.128 524.413 119.129 524.6 119.137L537.149 119.724C537.971 119.762 538.793 119.638 539.477 119.374L551.509 114.726C552.166 114.473 552.66 114.104 552.917 113.675L566.524 90.968C566.589 90.8597 566.669 90.7548 566.764 90.654L580.118 76.4985C580.509 76.0834 581.137 75.7567 581.893 75.5719L594.824 72.4204L606.373 69.4689C607.878 69.0841 609.646 69.3277 610.682 70.0622L622.464 78.4163C622.833 78.6787 623.309 78.8858 623.849 79.0195L635.315 81.8566C636.446 82.1364 637.748 82.0692 638.771 81.6782L650.893 77.0551C651.117 76.9697 651.322 76.8706 651.508 76.7593L664.051 69.2315C664.855 68.7488 666.013 68.516 667.168 68.6055L678.031 69.4467C678.933 69.5165 679.755 69.7768 680.337 70.1764L693.533 79.2352L707.391 91.5355C707.553 91.6782 707.744 91.8092 707.96 91.9255L721.068 98.9656C721.506 99.2011 722.04 99.3707 722.62 99.4592L735.32 101.392C735.662 101.445 735.989 101.525 736.291 101.632L749.702 106.359C749.858 106.414 750.022 106.463 750.191 106.504L763.037 109.615C763.689 109.774 764.249 110.038 764.644 110.377L777.778 121.645C778.018 121.85 778.319 122.029 778.668 122.174L792.242 127.813L805.555 134.409C806.069 134.664 806.698 134.831 807.371 134.892L818.604 135.899C819.758 136.002 820.931 135.781 821.753 135.305L834.546 127.888L847.033 121.534C848.028 121.028 849.426 120.874 850.678 121.131L862.017 123.469C862.498 123.568 863.011 123.607 863.522 123.585L875.993 123.047C876.557 123.022 877.1 122.923 877.584 122.757L889.984 118.515C890.613 118.3 891.115 117.981 891.422 117.6L905.051 100.699L918.837 86.1824C919.046 85.9631 919.32 85.7671 919.649 85.6037L932.1 79.4217C932.839 79.0553 933.802 78.8743 934.775 78.9195L945.288 79.4077C946.569 79.4671 947.7 79.9095 948.264 80.5712L960.653 95.1317C961.158 95.725 962.124 96.1461 963.257 96.2669L973.488 97.3586C974.768 97.4952 976.078 97.2292 976.922 96.6612L989.389 88.2744C989.568 88.154 989.771 88.0456 989.993 87.9514L1002.43 82.6692C1003.27 82.311 1004.35 82.1792 1005.37 82.3077L1016.78 83.7358C1017.48 83.8241 1018.13 84.0308 1018.63 84.3295L1031.77 92.1885C1031.9 92.2628 1032.01 92.3421 1032.12 92.4261L1045.01 102.858C1045.67 103.393 1046.74 103.719 1047.88 103.736L1059.19 103.912C1059.83 103.922 1060.45 104.027 1060.99 104.218L1074.27 108.873L1088.06 114.65C1088.26 114.736 1088.45 114.834 1088.62 114.943L1102.24 123.665C1102.39 123.76 1102.56 123.848 1102.73 123.926L1116.57 130.038L1130.39 135.432C1130.58 135.505 1130.75 135.588 1130.91 135.681L1144.77 143.623L1157.84 150.067C1158.51 150.395 1159.36 150.574 1160.24 150.571L1172.25 150.523C1172.73 150.521 1173.2 150.465 1173.64 150.36L1186.52 147.263C1186.89 147.176 1187.28 147.123 1187.67 147.107L1201.18 146.554L1214.95 145.878C1215.17 145.868 1215.38 145.846 1215.59 145.812L1229.38 143.661L1242.85 141.894C1243.27 141.839 1243.66 141.744 1244.02 141.611L1257.58 136.579L1271.24 132.539C1271.53 132.453 1271.85 132.389 1272.17 132.351L1285.21 130.801C1285.59 130.756 1285.98 130.746 1286.36 130.771L1299.89 131.658L1313.71 131.876C1313.89 131.879 1314.08 131.874 1314.26 131.86L1327.76 130.879C1327.98 130.863 1328.19 130.836 1328.4 130.798L1341.9 128.345C1342.09 128.31 1342.28 128.267 1342.45 128.214L1356.29 124.175L1368.33 121.419C1369.59 121.129 1371.04 121.269 1372.07 121.782L1383.47 127.476C1384.13 127.804 1384.97 127.986 1385.84 127.988L1397.44 128.025C1398.19 128.027 1398.92 128.162 1399.53 128.411L1411.75 133.396C1412.37 133.646 1413.1 133.781 1413.85 133.781L1425.91 133.795C1426.49 133.796 1427.06 133.876 1427.58 134.028L1440.9 137.979L1454.29 143.303C1454.76 143.487 1455.29 143.607 1455.85 143.653L1468.02 144.653C1468.73 144.711 1469.38 144.885 1469.91 145.155L1482.19 151.374C1482.84 151.703 1483.68 151.888 1484.55 151.896L1497.3 152.003L1510.47 152.799C1511.08 152.836 1511.7 152.783 1512.27 152.645L1525.5 149.422L1539.19 147.189C1539.47 147.145 1539.75 147.119 1540.03 147.111L1553.71 146.779L1567.81 145.496L1581.33 143.146C1581.71 143.079 1582.07 142.977 1582.4 142.843L1595.39 137.479C1595.8 137.309 1596.27 137.192 1596.76 137.131L1609.85 135.54C1610.03 135.52 1610.19 135.493 1610.36 135.458L1623.32 132.724C1623.9 132.6 1624.54 132.565 1625.16 132.623L1637.07 133.732C1637.87 133.808 1638.7 133.725 1639.42 133.498L1651.54 129.638C1652.11 129.456 1652.76 129.365 1653.41 129.377L1665.74 129.581C1666.25 129.589 1666.76 129.536 1667.23 129.424L1680.62 126.246L1694.12 122.458C1694.52 122.349 1694.94 122.28 1695.38 122.256L1708.2 121.556C1708.61 121.533 1709.03 121.551 1709.43 121.609L1722.54 123.487C1722.79 123.524 1723.04 123.577 1723.28 123.644L1736.29 127.358C1736.76 127.496 1737.31 127.571 1737.84 127.577L1749.96 127.709C1750.73 127.718 1751.45 127.859 1752.05 128.114L1764.44 133.34C1764.96 133.556 1765.56 133.692 1766.18 133.732L1778.53 134.536C1779.05 134.571 1779.56 134.67 1780 134.826L1793.42 139.496L1807.53 143.581L1820.04 146.343C1821.04 146.567 1822.18 146.519 1823.13 146.213L1835.15 142.333C1835.53 142.207 1835.87 142.04 1836.16 141.842L1849.84 132.319L1862.25 122.096C1863.24 121.288 1865.07 120.984 1866.65 121.365L1876.62 123.776C1877.53 123.994 1878.55 123.994 1879.44 123.777L1892.13 120.73L1905.07 116.552C1905.82 116.308 1906.4 115.918 1906.69 115.451L1920.35 94.0226L1933.96 75.1311C1934.27 74.6958 1934.84 74.3341 1935.55 74.1054L1947.11 70.4217C1948.02 70.1332 1949.11 70.08 1950.07 70.2752L1961.76 72.6078C1962.35 72.7217 1962.85 72.9154 1963.25 73.1712L1976.45 81.4537C1976.64 81.5759 1976.87 81.6843 1977.11 81.7768L1988.35 86.1188C1989.78 86.6801 1991.73 86.5683 1992.96 85.8529L2004.95 78.8766L2018.71 69.6976C2018.93 69.5452 2019.2 69.4126 2019.49 69.3037L2030.35 65.2955C2031.93 64.7094 2034.04 64.9165 2035.18 65.7721L2046.98 74.507C2047.16 74.6405 2047.31 74.7861 2047.44 74.9405L2060.93 92.4619C2061.2 92.8271 2061.65 93.1383 2062.24 93.3586L2074.89 98.1552C2075.25 98.2947 2075.67 98.3947 2076.11 98.4503L2089.55 100.183L2103.13 103.092C2103.47 103.168 2103.85 103.211 2104.22 103.222L2115.64 103.526C2116.95 103.561 2118.13 103.999 2118.71 104.672L2131.56 119.321C2131.76 119.537 2132.02 119.732 2132.33 119.899L2145.96 127.286L2159.33 133.848C2159.8 134.083 2160.38 134.244 2161 134.311L2172.31 135.552C2173.47 135.679 2174.67 135.476 2175.51 135.005L2188.25 127.957L2201.53 120.477C2202.07 120.172 2202.76 119.972 2203.51 119.904L2216.45 118.732L2230.56 116.57L2242.98 114.205C2244.05 114.004 2244.89 113.535 2245.27 112.933L2258.76 91.439L2272.47 74.8542C2272.73 74.5465 2273.11 74.2792 2273.6 74.0758L2285.87 68.8309C2286.58 68.5301 2287.45 68.3855 2288.33 68.424L2299.73 68.9246C2300.6 68.9629 2301.42 69.1791 2302.02 69.5339L2314.69 76.8432C2315.02 77.0257 2315.38 77.1731 2315.8 77.2778L2326.98 80.1393C2328.36 80.4913 2329.98 80.32 2331.04 79.7086L2343.38 72.6295L2356.49 63.8939C2357.13 63.4718 2358.02 63.2126 2358.98 63.1739L2369.36 62.7601C2370.73 62.7056 2372.02 63.0937 2372.73 63.7647L2385.67 76.1072L2399.78 87.9387L2413.38 96.7804C2413.71 96.9968 2414.11 97.1714 2414.58 97.2929L2427.98 100.858L2442.09 105.08L2455.51 108.784C2455.95 108.908 2456.35 109.084 2456.67 109.301L2470.29 118.344L2483.76 128.449C2484.16 128.753 2484.71 128.987 2485.35 129.126L2498.49 132.046L2510.75 133.806C2511.89 133.973 2513.13 133.803 2514.02 133.353L2526.69 126.993L2539.44 120.756C2540.29 120.34 2541.44 120.172 2542.53 120.3L2554.09 121.649C2554.62 121.711 2555.16 121.704 2555.69 121.629L2568.66 119.785C2568.87 119.753 2569.11 119.708 2569.31 119.652L2581.8 116.318C2582.64 116.095 2583.29 115.698 2583.64 115.208L2597.2 95.9046L2611.04 81.8104C2611.22 81.6387 2611.42 81.4817 2611.67 81.3439L2624.98 73.8723C2625.25 73.717 2625.58 73.588 2625.93 73.4903L2636.96 70.3866C2638.45 69.9677 2640.25 70.1804 2641.33 70.9035L2652.87 78.6391C2653.35 78.9574 2653.98 79.1862 2654.69 79.296L2665.91 81.0438C2667.04 81.2193 2668.24 81.0739 2669.15 80.653L2681.8 74.7862L2694.75 69.9026C2695.49 69.6221 2696.4 69.5077 2697.27 69.5809L2708.45 70.5103C2709.44 70.5926 2710.33 70.9052 2710.91 71.3743L2724.11 82.1376L2737.65 95.0892C2738.02 95.4353 2738.55 95.7136 2739.18 95.8906L2752.04 99.4884C2752.22 99.5377 2752.4 99.5787 2752.6 99.6111L2765.96 101.917C2766.25 101.969 2766.55 102.042 2766.82 102.136L2780.15 106.811C2780.38 106.899 2780.66 106.969 2780.93 107.02L2793.71 109.358C2794.31 109.467 2794.84 109.66 2795.25 109.922L2808.71 118.177L2822.82 128.106L2836.38 136.098C2836.75 136.303 2837.16 136.465 2837.62 136.574L2848.69 139.163C2850.09 139.493 2851.71 139.286 2852.73 138.648L2865.13 130.96L2877.82 123.532C2878.69 123.021 2879.96 122.802 2881.18 122.953L2893 124.418C2893.22 124.446 2893.42 124.484 2893.64 124.534L2905.55 127.404C2906.71 127.685 2908.05 127.598 2909.07 127.174L2920.64 122.396C2921.22 122.158 2921.65 121.83 2921.91 121.452L2935.62 100.964L2949.2 86.604C2949.55 86.2466 2950.06 85.9537 2950.69 85.7614L2963.58 81.7927C2963.75 81.7414 2963.91 81.6977 2964.09 81.6618L2975.49 79.3751C2976.95 79.0812 2978.58 79.3513 2979.55 80.0478L2991.2 88.4887C2991.75 88.8745 2992.49 89.1397 2993.33 89.2374L3004.22 90.4996C3005.42 90.6378 3006.66 90.4257 3007.51 89.9342L3020.24 82.6791L3033.4 74.2022C3034 73.8168 3034.84 73.5725 3035.73 73.5164L3046.33 72.8523C3047.64 72.7709 3048.91 73.0957 3049.67 73.703L3062.53 83.9001L3076.36 97.2107C3076.55 97.3837 3076.76 97.5409 3077.02 97.6774L3090.31 104.683C3090.6 104.836 3090.93 104.96 3091.27 105.053L3104.84 108.529L3118.95 111.181L3132.13 113.552C3132.73 113.66 3133.27 113.854 3133.69 114.118L3147.15 122.359L3161.24 131.303L3174.27 137.973C3174.96 138.325 3175.85 138.513 3176.78 138.502L3187.64 138.365C3188.78 138.351 3189.84 138.028 3190.51 137.496L3202.71 127.736C3203.24 127.302 3204.05 127.003 3204.98 126.903L3217.38 125.538C3217.56 125.519 3217.75 125.507 3217.91 125.503L3231.13 125.185C3231.55 125.175 3231.95 125.206 3232.35 125.277L3244.13 127.374C3245.22 127.567 3246.4 127.458 3247.33 127.082L3259.24 122.225C3259.71 122.034 3260.09 121.783 3260.36 121.492L3274.05 106.478L3288.16 91.7876" stroke="black" stroke-width="2.25"/>
<path opacity="0.05" d="M-78.7271 56.4297H526.727" stroke="black" stroke-linecap="round" stroke-dasharray="8 8"/>
<path opacity="0.1" d="M-78.7271 87.6797H526.727" stroke="black" stroke-linecap="round" stroke-dasharray="8 8"/>
<path opacity="0.15" d="M-78.7271 118.93H526.727" stroke="black" stroke-linecap="round" stroke-dasharray="8 8"/>
<path opacity="0.1" d="M-78.7271 150.18H526.727" stroke="black" stroke-linecap="round" stroke-dasharray="8 8"/>
</g>
<path d="M272 159C310.66 159 342 127.66 342 89C342 50.34 310.66 19 272 19C233.34 19 202 50.34 202 89C202 127.66 233.34 159 272 159Z" fill="white" stroke="url(#paint1_linear_1315_12184)" stroke-width="1.5"/>
<path d="M272 142C301.272 142 325 118.271 325 89C325 59.7289 301.272 36 272 36C242.728 36 219 59.7289 219 89C219 118.271 242.728 142 272 142Z" stroke="url(#paint2_linear_1315_12184)" stroke-width="3"/>
<path d="M228.827 96.0775L229.814 93.9424C230.683 92.0647 233.04 91.3052 234.911 92.3005C235.77 92.7569 236.401 93.5266 236.66 94.4353L240.236 106.929C240.698 108.546 242.454 109.484 244.13 109.01C245.223 108.7 246.054 107.841 246.296 106.771L247.18 102.861C248.111 98.7509 254.142 98.558 255.354 102.6C255.485 103.037 255.693 103.45 255.966 103.822L258.119 106.735C259.409 108.481 261.85 109.03 263.813 108.016C264.712 107.552 265.414 106.805 265.803 105.9L270.025 96.0775L274.85 85.4972L279.26 77.9717C279.535 77.5022 279.895 77.084 280.323 76.7369L284.208 73.5938C284.402 73.4366 284.583 73.2644 284.748 73.079L287.574 69.9095C288.641 68.7118 290.336 68.2184 291.916 68.6453C293.306 69.0209 294.8 68.6869 295.874 67.7602L298.419 65.5651C298.786 65.248 299.1 64.8772 299.346 64.4662L303.798 57.0547" stroke="#1E90FF" stroke-width="3" stroke-linecap="round" stroke-linejoin="round"/>
<rect x="288" y="20" width="64" height="31" rx="9" fill="#0D58C6"/>
<path d="M300.92 31.576V40.04H298.76V31.576H300.92ZM303.848 34.824V36.776H295.816V34.824H303.848ZM310.194 41V39.24C311.101 38.6747 311.874 38.1467 312.514 37.656C313.154 37.1653 313.672 36.7013 314.066 36.264C314.472 35.8267 314.77 35.4107 314.962 35.016C315.154 34.6213 315.25 34.2373 315.25 33.864C315.25 33.4587 315.128 33.1227 314.882 32.856C314.648 32.5787 314.296 32.44 313.826 32.44C313.325 32.44 312.936 32.6267 312.658 33C312.381 33.3627 312.232 33.896 312.21 34.6L309.858 33.88C309.88 33.0907 310.066 32.4293 310.418 31.896C310.781 31.3627 311.272 30.9627 311.89 30.696C312.509 30.4187 313.213 30.28 314.002 30.28C314.696 30.28 315.293 30.3813 315.794 30.584C316.306 30.776 316.722 31.0373 317.042 31.368C317.362 31.688 317.597 32.0507 317.746 32.456C317.906 32.8507 317.986 33.256 317.986 33.672C317.986 34.3547 317.81 34.9947 317.458 35.592C317.106 36.1787 316.594 36.7493 315.922 37.304C315.261 37.848 314.456 38.3973 313.506 38.952V38.968C313.688 38.9573 313.901 38.9467 314.146 38.936C314.392 38.9253 314.648 38.92 314.914 38.92C315.181 38.9093 315.421 38.904 315.634 38.904H318.114V41H310.194ZM323.918 41.16C322.478 41.16 321.384 40.7013 320.638 39.784C319.902 38.8667 319.534 37.512 319.534 35.72C319.534 33.928 319.902 32.5733 320.638 31.656C321.384 30.7387 322.478 30.28 323.918 30.28C325.358 30.28 326.446 30.7387 327.182 31.656C327.928 32.5733 328.302 33.928 328.302 35.72C328.302 37.512 327.928 38.8667 327.182 39.784C326.446 40.7013 325.358 41.16 323.918 41.16ZM323.918 39.016C324.312 39.016 324.632 38.9093 324.878 38.696C325.123 38.472 325.299 38.12 325.406 37.64C325.523 37.1493 325.582 36.5093 325.582 35.72C325.582 34.9307 325.523 34.296 325.406 33.816C325.299 33.3253 325.123 32.9733 324.878 32.76C324.632 32.536 324.312 32.424 323.918 32.424C323.534 32.424 323.214 32.536 322.958 32.76C322.712 32.9733 322.531 33.3253 322.414 33.816C322.307 34.296 322.254 34.9307 322.254 35.72C322.254 36.5093 322.307 37.1493 322.414 37.64C322.531 38.12 322.712 38.472 322.958 38.696C323.214 38.9093 323.534 39.016 323.918 39.016ZM331.863 41L339.207 30.424H341.287L333.943 41H331.863ZM332.519 30.28C333.127 30.28 333.649 30.408 334.087 30.664C334.535 30.9093 334.881 31.256 335.127 31.704C335.372 32.152 335.495 32.68 335.495 33.288C335.495 33.896 335.372 34.424 335.127 34.872C334.881 35.32 334.535 35.672 334.087 35.928C333.649 36.1733 333.127 36.296 332.519 36.296C331.921 36.296 331.399 36.1733 330.951 35.928C330.513 35.672 330.167 35.32 329.911 34.872C329.665 34.424 329.543 33.896 329.543 33.288C329.543 32.68 329.665 32.152 329.911 31.704C330.167 31.256 330.513 30.9093 330.951 30.664C331.399 30.408 331.921 30.28 332.519 30.28ZM332.519 32.104C332.316 32.104 332.145 32.152 332.007 32.248C331.868 32.3333 331.761 32.4667 331.687 32.648C331.612 32.8187 331.575 33.032 331.575 33.288C331.575 33.5333 331.612 33.7467 331.687 33.928C331.761 34.1093 331.868 34.248 332.007 34.344C332.145 34.4293 332.316 34.472 332.519 34.472C332.732 34.472 332.908 34.4293 333.047 34.344C333.185 34.248 333.292 34.1093 333.367 33.928C333.441 33.7467 333.479 33.5333 333.479 33.288C333.479 33.032 333.441 32.8187 333.367 32.648C333.292 32.4667 333.185 32.3333 333.047 32.248C332.908 32.152 332.732 32.104 332.519 32.104ZM340.599 35.144C341.196 35.144 341.719 35.272 342.167 35.528C342.615 35.7733 342.961 36.12 343.207 36.568C343.452 37.016 343.575 37.544 343.575 38.152C343.575 38.76 343.452 39.288 343.207 39.736C342.961 40.184 342.615 40.536 342.167 40.792C341.719 41.0373 341.196 41.16 340.599 41.16C340.001 41.16 339.479 41.0373 339.031 40.792C338.583 40.536 338.236 40.184 337.991 39.736C337.745 39.288 337.623 38.76 337.623 38.152C337.623 37.544 337.745 37.016 337.991 36.568C338.236 36.12 338.583 35.7733 339.031 35.528C339.479 35.272 340.001 35.144 340.599 35.144ZM340.599 36.968C340.396 36.968 340.22 37.016 340.071 37.112C339.932 37.1973 339.825 37.3307 339.751 37.512C339.676 37.6827 339.639 37.896 339.639 38.152C339.639 38.3973 339.676 38.6107 339.751 38.792C339.825 38.9733 339.932 39.112 340.071 39.208C340.22 39.2933 340.396 39.336 340.599 39.336C340.812 39.336 340.988 39.2933 341.127 39.208C341.265 39.112 341.372 38.9733 341.447 38.792C341.521 38.6107 341.559 38.3973 341.559 38.152C341.559 37.896 341.521 37.6827 341.447 37.512C341.372 37.3307 341.265 37.1973 341.127 37.112C340.988 37.016 340.812 36.968 340.599 36.968Z" fill="white"/>
<rect x="288" y="20" width="64" height="31" rx="9" stroke="white" stroke-width="2"/>
<path d="M284.016 1.44V12H282.432L278.016 4.928L276.896 2.944H276.88L276.944 4.544V12H275.728V1.44H277.312L281.712 8.48L282.848 10.512H282.864L282.8 8.896V1.44H284.016ZM290.457 12.16C289.7 12.16 289.022 11.9947 288.425 11.664C287.838 11.3333 287.38 10.8587 287.049 10.24C286.718 9.61067 286.553 8.864 286.553 8C286.553 7.136 286.718 6.39467 287.049 5.776C287.38 5.14667 287.833 4.66667 288.409 4.336C288.985 4.00533 289.641 3.84 290.377 3.84C291.124 3.84 291.758 4 292.281 4.32C292.814 4.64 293.22 5.07733 293.497 5.632C293.774 6.176 293.913 6.78933 293.913 7.472C293.913 7.65333 293.908 7.81867 293.897 7.968C293.886 8.11733 293.87 8.25067 293.849 8.368H287.385V7.232H293.289L292.633 7.36C292.633 6.592 292.42 6 291.993 5.584C291.577 5.168 291.028 4.96 290.345 4.96C289.822 4.96 289.369 5.08267 288.985 5.328C288.612 5.56267 288.318 5.90933 288.105 6.368C287.902 6.816 287.801 7.36 287.801 8C287.801 8.62933 287.908 9.17333 288.121 9.632C288.334 10.0907 288.633 10.4427 289.017 10.688C289.412 10.9227 289.881 11.04 290.425 11.04C291.012 11.04 291.486 10.928 291.849 10.704C292.222 10.48 292.521 10.176 292.745 9.792L293.753 10.384C293.55 10.7467 293.289 11.0613 292.969 11.328C292.66 11.5947 292.292 11.8027 291.865 11.952C291.449 12.0907 290.98 12.16 290.457 12.16ZM296.819 4L299.203 7.344L299.283 7.456L302.562 12H300.995L298.515 8.528L298.371 8.352L295.219 4H296.819ZM302.515 4L299.347 8.272H299.266L296.515 12H295.027L298.515 7.408H298.611L301.011 4H302.515ZM306.47 1.728V9.792C306.47 10.1867 306.582 10.48 306.806 10.672C307.03 10.864 307.318 10.96 307.67 10.96C307.979 10.96 308.246 10.9067 308.47 10.8C308.694 10.6933 308.896 10.5493 309.078 10.368L309.526 11.44C309.28 11.664 308.987 11.84 308.646 11.968C308.315 12.096 307.931 12.16 307.494 12.16C307.088 12.16 306.71 12.0907 306.358 11.952C306.006 11.8027 305.723 11.5733 305.51 11.264C305.307 10.944 305.2 10.528 305.19 10.016V2.08L306.47 1.728ZM309.382 4V5.104H303.59V4H309.382ZM316.738 12V4H317.858L317.938 5.248C318.226 4.75733 318.599 4.4 319.058 4.176C319.527 3.952 320.007 3.84 320.498 3.84C321.063 3.84 321.597 3.968 322.098 4.224C322.599 4.48 322.983 4.87467 323.25 5.408C323.421 5.04533 323.661 4.752 323.97 4.528C324.279 4.29333 324.615 4.12267 324.978 4.016C325.351 3.89867 325.703 3.84 326.034 3.84C326.546 3.84 327.031 3.94667 327.49 4.16C327.959 4.37333 328.343 4.704 328.642 5.152C328.941 5.6 329.09 6.176 329.09 6.88V12H327.81V7.008C327.81 6.28267 327.629 5.76 327.266 5.44C326.903 5.12 326.455 4.96 325.922 4.96C325.506 4.96 325.117 5.06133 324.754 5.264C324.391 5.46667 324.098 5.76533 323.874 6.16C323.661 6.55467 323.554 7.04 323.554 7.616V12H322.274V7.008C322.274 6.28267 322.093 5.76 321.73 5.44C321.367 5.12 320.919 4.96 320.386 4.96C320.034 4.96 319.671 5.056 319.298 5.248C318.935 5.42933 318.631 5.72267 318.386 6.128C318.141 6.53333 318.018 7.06667 318.018 7.728V12H316.738ZM335.3 3.84C336.057 3.84 336.724 4.00533 337.3 4.336C337.887 4.66667 338.345 5.14667 338.676 5.776C339.007 6.39467 339.172 7.136 339.172 8C339.172 8.864 339.007 9.61067 338.676 10.24C338.345 10.8587 337.887 11.3333 337.3 11.664C336.724 11.9947 336.057 12.16 335.3 12.16C334.553 12.16 333.887 11.9947 333.3 11.664C332.713 11.3333 332.255 10.8587 331.924 10.24C331.593 9.61067 331.428 8.864 331.428 8C331.428 7.136 331.593 6.39467 331.924 5.776C332.255 5.14667 332.713 4.66667 333.3 4.336C333.887 4.00533 334.553 3.84 335.3 3.84ZM335.3 4.944C334.756 4.944 334.292 5.06667 333.908 5.312C333.524 5.55733 333.225 5.90933 333.012 6.368C332.809 6.816 332.708 7.36 332.708 8C332.708 8.62933 332.809 9.17333 333.012 9.632C333.225 10.0907 333.524 10.4427 333.908 10.688C334.292 10.9333 334.756 11.056 335.3 11.056C335.844 11.056 336.308 10.9333 336.692 10.688C337.076 10.4427 337.369 10.0907 337.572 9.632C337.785 9.17333 337.892 8.62933 337.892 8C337.892 7.36 337.785 6.816 337.572 6.368C337.369 5.90933 337.076 5.55733 336.692 5.312C336.308 5.06667 335.844 4.944 335.3 4.944ZM341.582 12V4H342.702L342.814 5.792L342.606 5.616C342.776 5.18933 343.006 4.848 343.294 4.592C343.582 4.32533 343.912 4.13333 344.286 4.016C344.67 3.89867 345.064 3.84 345.47 3.84C346.046 3.84 346.568 3.952 347.038 4.176C347.507 4.38933 347.88 4.72 348.158 5.168C348.446 5.616 348.59 6.18667 348.59 6.88V12H347.31V7.328C347.31 6.44267 347.118 5.82933 346.734 5.488C346.36 5.136 345.896 4.96 345.342 4.96C344.958 4.96 344.574 5.05067 344.19 5.232C343.806 5.41333 343.486 5.70667 343.23 6.112C342.984 6.51733 342.862 7.06133 342.862 7.744V12H341.582ZM353.267 1.728V9.792C353.267 10.1867 353.379 10.48 353.603 10.672C353.827 10.864 354.115 10.96 354.467 10.96C354.776 10.96 355.043 10.9067 355.267 10.8C355.491 10.6933 355.693 10.5493 355.875 10.368L356.323 11.44C356.077 11.664 355.784 11.84 355.443 11.968C355.112 12.096 354.728 12.16 354.291 12.16C353.885 12.16 353.507 12.0907 353.155 11.952C352.803 11.8027 352.52 11.5733 352.307 11.264C352.104 10.944 351.997 10.528 351.987 10.016V2.08L353.267 1.728ZM356.179 4V5.104H350.387V4H356.179ZM358.082 12V0.32H359.362V5.2C359.639 4.72 360.007 4.37333 360.466 4.16C360.924 3.94667 361.426 3.84 361.97 3.84C362.546 3.84 363.068 3.952 363.538 4.176C364.007 4.38933 364.38 4.72 364.658 5.168C364.946 5.616 365.09 6.18667 365.09 6.88V12H363.81V7.328C363.81 6.44267 363.618 5.82933 363.234 5.488C362.86 5.136 362.396 4.96 361.842 4.96C361.458 4.96 361.074 5.05067 360.69 5.232C360.306 5.41333 359.986 5.712 359.73 6.128C359.484 6.53333 359.362 7.07733 359.362 7.76V12H358.082Z" fill="black"/>
<defs>
<radialGradient id="paint0_radial_1315_12184" cx="0" cy="0" r="1" gradientUnits="userSpaceOnUse" gradientTransform="translate(271.781 125) rotate(90) scale(144 240.542)">
<stop offset="0.463542" stop-color="#D9D9D9"/>
<stop offset="1" stop-color="#D9D9D9" stop-opacity="0"/>
</radialGradient>
<linearGradient id="paint1_linear_1315_12184" x1="195.304" y1="8.25093" x2="410.748" y2="99.4095" gradientUnits="userSpaceOnUse">
<stop stop-opacity="0.2"/>
<stop offset="0.125" stop-opacity="0.4"/>
<stop offset="0.347973"/>
<stop offset="0.567708" stop-opacity="0.4"/>
<stop offset="1" stop-opacity="0"/>
</linearGradient>
<linearGradient id="paint2_linear_1315_12184" x1="219" y1="14" x2="272" y2="226.5" gradientUnits="userSpaceOnUse">
<stop stop-opacity="0.2"/>
<stop offset="0.125" stop-opacity="0.4"/>
<stop offset="0.347973"/>
<stop offset="0.567708" stop-opacity="0.4"/>
<stop offset="1" stop-opacity="0"/>
</linearGradient>
</defs>
</svg>
