<svg width="131" height="164" viewBox="0 0 131 164" fill="none" xmlns="http://www.w3.org/2000/svg">
<path opacity="0.3" fill-rule="evenodd" clip-rule="evenodd" d="M168.216 0.610278C168.058 1.11012 167.622 1.51883 167.248 1.51883C166.874 1.51883 166.568 1.73244 166.568 1.99352C166.568 2.2546 166.856 2.46821 167.207 2.46821C167.559 2.46821 168.062 2.94907 168.324 3.53626L168.801 4.60431L169.141 3.53626C169.327 2.94907 169.786 2.46821 170.16 2.46821C171.097 2.46821 171.021 2.21757 169.672 0.868984C168.569 -0.234666 168.489 -0.248908 168.216 0.610278ZM16.2644 7.29579C15.7067 7.56541 15.0127 8.30878 14.7217 8.94723C14.341 9.78268 14.1929 28.774 14.1929 76.7147V143.321L15.4442 144.573C16.4852 145.614 17.1241 145.824 19.2417 145.824H21.7879L21.795 153.063C21.7993 157.044 22.0048 160.623 22.2526 161.014C22.6438 161.634 26.8832 161.743 54.8295 161.855C83.1362 161.968 87.0898 161.896 88.0753 161.251C89.1704 160.533 89.1937 160.364 89.1937 153.171V145.824H92.5165H95.8393V153.431V161.038L97.0825 161.51C99.098 162.276 161.607 161.893 162.391 161.11C163.176 160.324 163.557 115.377 162.795 113.373L162.319 112.121H156.137H149.954V108.561V105.001H156.137H162.319L162.795 103.749C163.556 101.747 163.176 56.7987 162.392 56.0126C161.972 55.592 159.898 55.3461 155.865 55.2384L149.954 55.0812V32.3736C149.954 19.8845 149.821 9.32033 149.659 8.89786C148.805 6.67205 150.921 6.73851 81.9784 6.77268C38.4518 6.79404 16.9465 6.96541 16.2644 7.29579ZM26.0601 13.386C27.2027 14.5286 27.2473 15.2088 26.2704 16.603C24.8776 18.592 21.3132 17.3972 21.3132 14.9416C21.3132 14.0084 23.0999 12.4367 24.1613 12.4367C24.6835 12.4367 25.5379 12.8639 26.0601 13.386ZM34.8081 13.1824C35.6906 14.0653 35.7907 16.2821 34.9842 17.0886C33.5222 18.5507 30.3323 17.2348 30.3323 15.1694C30.3323 12.8819 33.2236 11.5984 34.8081 13.1824ZM43.7047 13.2223C45.51 14.8562 44.2976 17.6582 41.786 17.6582C40.1412 17.6582 39.3514 16.8684 39.3514 15.2236C39.3514 12.7514 41.8933 11.5827 43.7047 13.2223ZM105.57 16.0092C104.635 16.9571 104.607 16.9576 103.635 16.0638L102.649 15.1566L103.635 14.1527L104.621 13.1487L105.57 14.0981L106.52 15.0475L105.57 16.0092ZM1.02028 17.5562C-0.215335 18.8113 -0.29176 19.0823 0.591635 19.0823C0.943379 19.0823 1.44607 19.5632 1.7081 20.1504L2.18564 21.2184L2.52504 20.1504C2.71159 19.5632 3.17014 19.0823 3.5442 19.0823C4.46794 19.0823 4.40481 18.8345 3.15638 17.5609L2.08833 16.4715L1.02028 17.5562ZM115.22 23.2358C97.0303 23.3047 67.1249 23.3047 48.7635 23.2358C30.4025 23.167 45.285 23.1105 81.836 23.1105C118.387 23.1105 133.41 23.167 115.22 23.2358ZM60.0212 36.6458C61.1448 36.6458 61.1899 36.5209 61.2668 33.2043C61.3109 31.297 61.4296 30.5565 61.5326 31.5429L61.7192 33.323L72.0147 33.4317L82.3107 33.5408L72.0156 33.6785L61.7206 33.8162L61.5725 35.3494C61.4415 36.7042 61.2582 36.8831 60.0003 36.8831C58.7405 36.8831 58.5592 36.7051 58.4277 35.3404L58.2786 33.7976H40.3036H22.3286L22.123 34.8657C22.0096 35.4534 21.917 34.8657 21.917 33.5603C21.917 32.2549 22.0096 31.6677 22.123 32.2549L22.3286 33.323H40.334H58.3389L58.4334 31.5429C58.4851 30.5641 58.6014 31.3117 58.6916 33.2043C58.8482 36.4981 58.9052 36.6458 60.0212 36.6458ZM90.143 30.2375C90.143 30.368 90.0362 30.4748 89.9057 30.4748C89.7751 30.4748 89.6683 30.368 89.6683 30.2375C89.6683 30.1069 89.7751 30.0001 89.9057 30.0001C90.0362 30.0001 90.143 30.1069 90.143 30.2375ZM96.314 30.2375C96.314 30.368 96.2072 30.4748 96.0766 30.4748C95.9461 30.4748 95.8393 30.368 95.8393 30.2375C95.8393 30.1069 95.9461 30.0001 96.0766 30.0001C96.2072 30.0001 96.314 30.1069 96.314 30.2375ZM126.694 33.5812V37.1622L123.253 37.0227L119.811 36.8831L119.671 33.4416L119.532 30.0001H123.113H126.694V33.5812ZM110.08 31.8989C110.08 32.7956 109.763 32.8483 104.384 32.8483C99.004 32.8483 98.6874 32.7956 98.6874 31.8989C98.6874 31.0022 99.004 30.9495 104.384 30.9495C109.763 30.9495 110.08 31.0022 110.08 31.8989ZM143.308 31.8989C143.308 32.806 142.992 32.8483 136.188 32.8483C129.384 32.8483 129.067 32.806 129.067 31.8989C129.067 30.9918 129.384 30.9495 136.188 30.9495C142.992 30.9495 143.308 30.9918 143.308 31.8989ZM123.64 33.3723C122.567 34.6473 122.29 34.7622 121.58 34.2287C120.814 33.6524 120.811 33.6681 121.546 34.4731C122.451 35.4666 122.94 35.2625 124.331 33.3087C125.647 31.4598 125.216 31.4997 123.64 33.3723ZM112.453 34.9844V36.1711H105.836C99.2243 36.1711 98.3067 35.9494 98.8678 34.4869C99.0819 33.9296 100.408 33.7976 105.793 33.7976H112.453V34.9844ZM141.409 34.9844V36.1711H135.238C129.571 36.1711 129.067 36.0999 129.067 35.301C129.067 34.822 129.21 34.288 129.384 34.1143C129.558 33.94 132.335 33.7976 135.555 33.7976H141.409V34.9844ZM94.7712 36.9913C93.7924 37.0939 92.1904 37.0939 91.2111 36.9913C90.2323 36.8893 91.0331 36.8053 92.9912 36.8053C94.9492 36.8053 95.7505 36.8893 94.7712 36.9913ZM38.2833 41.7197C37.8262 41.8393 37.079 41.8393 36.6219 41.7197C36.1648 41.6006 36.5388 41.5028 37.4526 41.5028C38.3664 41.5028 38.7404 41.6006 38.2833 41.7197ZM143.107 45.1902L143.142 48.7503L142.967 45.3126L142.792 41.8754L116.23 41.7468L89.6683 41.6181L116.37 41.6238L143.071 41.63L143.107 45.1902ZM36.1273 46.2131C36.2032 47.4283 36.1055 48.3231 35.9099 48.2025C35.7143 48.0815 35.5539 47.3543 35.5539 46.5862V45.1902H28.9415C22.461 45.1902 22.3243 45.2115 22.123 46.2582C22.0096 46.8459 21.917 46.2582 21.917 44.9528C21.917 43.6474 22.0096 43.0598 22.123 43.6474C22.3243 44.6941 22.461 44.7155 28.9415 44.7155H35.5539L35.6184 43.4101C35.6977 41.8113 35.9317 43.1006 36.1273 46.2131ZM139.392 44.6932L140.697 43.5553L139.392 44.9552L138.087 46.3555L136.781 44.9552L135.476 43.5553L136.781 44.6932L138.087 45.8305L139.392 44.6932ZM46.1157 45.0653C44.7453 45.1612 42.5019 45.1612 41.1315 45.0653C39.761 44.9694 40.8822 44.8911 43.6236 44.8911C46.3649 44.8911 47.4861 44.9694 46.1157 45.0653ZM71.7489 45.0705C67.5066 45.1493 60.5642 45.1493 56.3215 45.0705C52.0792 44.9917 55.5501 44.9277 64.0352 44.9277C72.5202 44.9277 75.9916 44.9917 71.7489 45.0705ZM81.7263 45.0269C81.405 45.1569 80.7641 45.165 80.3023 45.0444C79.8404 44.9239 80.1034 44.8175 80.8866 44.808C81.6698 44.7985 82.0477 44.8968 81.7263 45.0269ZM38.8767 48.2756C38.8767 48.4062 38.7699 48.513 38.6393 48.513C38.5088 48.513 38.402 48.4062 38.402 48.2756C38.402 48.1451 38.5088 48.0383 38.6393 48.0383C38.7699 48.0383 38.8767 48.1451 38.8767 48.2756ZM90.143 48.2756C90.143 48.4062 90.0362 48.513 89.9057 48.513C89.7751 48.513 89.6683 48.4062 89.6683 48.2756C89.6683 48.1451 89.7751 48.0383 89.9057 48.0383C90.0362 48.0383 90.143 48.1451 90.143 48.2756ZM88.2542 56.5827C88.7968 57.4409 88.8766 103.069 88.3368 103.918C88.0544 104.362 80.4826 104.507 55.5962 104.542C37.7911 104.568 23.0069 104.455 22.743 104.292C22.4292 104.099 22.2626 95.7711 22.2626 80.3128C22.2626 58.2598 22.3195 56.5965 23.0933 56.1422C23.6449 55.8184 34.6643 55.6907 55.8644 55.7624C83.6593 55.8564 87.8631 55.9632 88.2542 56.5827ZM162.138 56.2661C162.355 56.483 162.592 67.0619 162.664 79.7736C162.768 97.9451 162.666 103.06 162.19 103.7C161.628 104.454 159.223 104.516 129.423 104.548C111.734 104.566 97.0483 104.449 96.7877 104.288C96.483 104.1 96.314 95.5541 96.314 80.3128C96.314 58.265 96.3714 56.595 97.1447 56.1284C98.151 55.5208 161.527 55.6551 162.138 56.2661ZM25.481 72.2479L25.3481 85.5392H55.3721L85.3961 85.5387V72.2474V58.9561H55.505H25.6144L25.481 72.2479ZM99.1621 72.2474V85.5387H129.305H159.448V72.2474V58.9561H129.305H99.1621V72.2474ZM82.548 60.1053C80.0493 61.4449 56.0571 71.7727 55.4343 71.777C55.0735 71.7794 48.6216 69.0893 41.0963 65.7992C33.5711 62.5092 27.3365 59.8951 27.2421 59.989C27.1476 60.0835 33.1581 62.8163 40.5989 66.0613C48.0396 69.3067 54.2039 72.0851 54.2969 72.2355C54.39 72.386 48.3956 75.1568 40.9767 78.3927C33.5573 81.6287 27.563 84.3515 27.6555 84.444C27.7476 84.5366 33.9561 81.9367 41.4519 78.6671C48.9472 75.3974 55.2259 72.7188 55.4039 72.715C55.5824 72.7112 61.9836 75.4345 69.6294 78.7672L83.5301 84.8266L56.3381 84.9624C41.3821 85.0369 28.4511 84.9738 27.6028 84.8224L26.0601 84.5461V72.2654C26.0601 62.8851 26.2001 59.9283 26.6535 59.7451C26.98 59.6136 39.9566 59.4973 55.4908 59.4873C79.369 59.4716 83.5515 59.5671 82.548 60.1053ZM157.905 59.7299L158.973 60.0161V72.5189V85.0217L130.136 85.0341C113.178 85.0417 101.592 84.8736 102.01 84.6263C103.19 83.93 128.975 72.7221 129.398 72.7221C129.614 72.7221 135.874 75.3927 143.31 78.6566C150.746 81.9206 156.99 84.5376 157.184 84.4716C157.378 84.4056 151.451 81.6984 144.014 78.4559C136.577 75.2128 130.495 72.4359 130.499 72.2849C130.503 72.1335 136.597 69.3641 144.042 66.1301C151.487 62.8965 157.494 60.1671 157.392 60.0645C157.289 59.9625 151.085 62.5552 143.604 65.8258C136.123 69.0964 129.716 71.7727 129.367 71.7727C129.017 71.7727 122.592 69.0869 115.088 65.8045C107.585 62.522 101.365 59.9183 101.264 60.0185C101.164 60.1186 105.937 62.3136 111.871 64.8964C117.805 67.4796 124.03 70.2086 125.706 70.961L128.752 72.329L117.399 77.3024C111.154 80.038 104.603 82.8937 102.841 83.6489L99.6368 85.0217V72.4985C99.6368 60.9707 99.7028 59.9577 100.468 59.7579C101.728 59.4284 156.68 59.4019 157.905 59.7299ZM84.9215 72.4515V84.9975L77.9198 81.9149C74.0687 80.2193 67.6604 77.4187 63.6792 75.6917C59.6979 73.9648 56.4458 72.4297 56.4525 72.2806C56.4648 72.0072 83.9061 59.9392 84.5654 59.9174C84.761 59.9107 84.9215 65.551 84.9215 72.4515ZM48.8451 62.4437C48.8451 62.7954 48.3648 63.2981 47.7771 63.5601L46.709 64.0377L47.7771 64.3771C48.3648 64.5636 48.8451 65.0222 48.8451 65.3962C48.8451 65.7703 49.0587 66.0765 49.3198 66.0765C49.5809 66.0765 49.7945 65.7703 49.7945 65.3962C49.7945 65.0222 50.2336 64.5769 50.77 64.407C51.717 64.106 51.7094 64.0642 50.508 62.9506C49.0853 61.6324 48.8451 61.5588 48.8451 62.4437ZM25.5854 89.5735V90.7603H47.6584H69.7314V89.5735V88.3868H47.6584H25.5854V89.5735ZM99.2471 89.4506L99.3995 90.5229H124.558C149.4 90.5229 149.716 90.511 149.716 89.5735C149.716 88.6374 149.359 88.6223 124.406 88.5012L99.0952 88.3783L99.2471 89.4506ZM25.5854 92.659C25.5854 93.596 25.902 93.6084 49.5572 93.6084C73.2123 93.6084 73.5289 93.596 73.5289 92.659C73.5289 91.722 73.2123 91.7096 49.5572 91.7096C25.902 91.7096 25.5854 91.722 25.5854 92.659ZM99.1621 92.659C99.1621 93.5932 99.4787 93.6084 118.862 93.6084C138.245 93.6084 138.561 93.5932 138.561 92.659C138.561 91.7248 138.245 91.7096 118.862 91.7096C99.4787 91.7096 99.1621 91.7248 99.1621 92.659ZM32.6165 96.3369C36.6138 96.4166 43.0221 96.4162 46.8571 96.3369C50.6917 96.2571 47.4211 96.1921 39.5887 96.1921C31.7564 96.1926 28.6187 96.2576 32.6165 96.3369ZM63.9165 96.3369C67.8977 96.4162 74.4133 96.4162 78.3945 96.3369C82.3757 96.2576 79.1184 96.1926 71.1555 96.1926C63.1926 96.1926 59.9353 96.2576 63.9165 96.3369ZM106.668 96.3369C110.665 96.4166 117.074 96.4162 120.909 96.3369C124.743 96.2571 121.472 96.1921 113.64 96.1921C105.808 96.1926 102.67 96.2576 106.668 96.3369ZM137.968 96.3369C141.949 96.4162 148.465 96.4162 152.446 96.3369C156.427 96.2576 153.17 96.1926 145.207 96.1926C137.244 96.1926 133.987 96.2576 137.968 96.3369ZM107.232 97.9086C107.232 98.1848 107.445 98.2793 107.707 98.1179C107.968 97.9565 108.181 97.7306 108.181 97.6152C108.181 97.4999 107.968 97.4059 107.707 97.4059C107.445 97.4059 107.232 97.6323 107.232 97.9086ZM113.165 97.8806C113.327 98.1417 113.779 98.3553 114.171 98.3553C114.562 98.3553 114.751 98.1417 114.589 97.8806C114.428 97.6195 113.976 97.4059 113.584 97.4059C113.192 97.4059 113.004 97.6195 113.165 97.8806ZM117.438 97.8806C117.276 98.1417 117.358 98.3553 117.619 98.3553C117.88 98.3553 118.226 98.1417 118.387 97.8806C118.548 97.6195 118.467 97.4059 118.206 97.4059C117.945 97.4059 117.599 97.6195 117.438 97.8806ZM109.991 98.2048C110.333 98.342 110.743 98.3249 110.901 98.1673C111.058 98.0097 110.778 97.8977 110.278 97.9181C109.725 97.9409 109.612 98.0534 109.991 98.2048ZM32.6165 99.6597C36.6138 99.7394 43.0221 99.739 46.8571 99.6597C50.6917 99.58 47.4211 99.5149 39.5887 99.5149C31.7564 99.5154 28.6187 99.5804 32.6165 99.6597ZM63.9165 99.6597C67.8977 99.739 74.4133 99.739 78.3945 99.6597C82.3757 99.5804 79.1184 99.5154 71.1555 99.5154C63.1926 99.5154 59.9353 99.5804 63.9165 99.6597ZM106.668 99.6597C110.665 99.7394 117.074 99.739 120.909 99.6597C124.743 99.58 121.472 99.5149 113.64 99.5149C105.808 99.5154 102.67 99.5804 106.668 99.6597ZM137.968 99.6597C141.949 99.739 148.465 99.739 152.446 99.6597C156.427 99.5804 153.17 99.5154 145.207 99.5154C137.244 99.5154 133.987 99.5804 137.968 99.6597ZM32.6165 101.558C36.6138 101.638 43.0221 101.638 46.8571 101.558C50.6917 101.479 47.4211 101.414 39.5887 101.414C31.7564 101.414 28.6187 101.479 32.6165 101.558ZM63.9165 101.558C67.8977 101.638 74.4133 101.638 78.3945 101.558C82.3757 101.479 79.1184 101.414 71.1555 101.414C63.1926 101.414 59.9353 101.479 63.9165 101.558ZM106.668 101.558C110.665 101.638 117.074 101.638 120.909 101.558C124.743 101.479 121.472 101.414 113.64 101.414C105.808 101.414 102.67 101.479 106.668 101.558ZM137.997 101.558C141.995 101.638 148.403 101.638 152.238 101.558C156.073 101.479 152.802 101.414 144.97 101.414C137.137 101.414 133.999 101.479 137.997 101.558ZM162.191 113.432C162.669 114.067 162.77 119.153 162.665 137.35C162.593 150.061 162.355 160.639 162.138 160.856C161.92 161.073 147.388 161.309 129.844 161.38C104.633 161.481 97.777 161.382 97.139 160.905C96.3994 160.352 96.3287 158.339 96.2912 136.822C96.2565 117.088 96.3577 113.263 96.9221 112.85C97.374 112.519 108.067 112.402 129.589 112.491C159.059 112.614 161.632 112.688 162.191 113.432ZM88.4308 113.347C88.5894 113.76 88.719 124.425 88.719 137.047C88.719 157.278 88.6307 160.085 87.9732 160.743C87.3101 161.406 83.7248 161.489 55.6631 161.489C34.8129 161.489 23.7873 161.322 23.1806 160.998C22.292 160.522 22.2626 159.752 22.2626 136.867C22.2626 123.866 22.405 113.086 22.5792 112.913C22.7529 112.738 37.576 112.596 55.5193 112.596C84.8298 112.596 88.1721 112.672 88.4308 113.347ZM25.481 128.736L25.3481 142.027H55.3721L85.3961 142.027V128.735V115.444H55.505H25.6144L25.481 128.736ZM99.4787 115.761C99.3045 115.934 99.1621 121.915 99.1621 129.052V142.027H129.305H159.448V128.735V115.444H129.621C113.217 115.444 99.6525 115.586 99.4787 115.761ZM84.1705 116.207C84.8289 116.459 84.9215 118.035 84.9215 129.002V141.51L56.1136 141.541C40.2689 141.559 27.3992 141.486 27.5136 141.381C27.628 141.275 33.9594 138.466 41.5838 135.139L55.4462 129.089L69.2544 135.143C76.8484 138.472 83.1466 141.111 83.2496 141.009C83.3521 140.906 77.3701 138.176 69.956 134.942C62.5413 131.708 56.5603 128.925 56.6647 128.756C56.7686 128.588 62.942 125.795 70.3827 122.549C77.8234 119.304 83.8339 116.571 83.7395 116.477C83.645 116.383 77.4105 118.997 69.8852 122.287C62.36 125.577 55.8601 128.267 55.4409 128.265C55.0218 128.263 48.5404 125.575 41.037 122.292C33.5341 119.01 27.3133 116.406 27.2136 116.506C27.1134 116.606 33.0613 119.313 40.4308 122.522C47.7999 125.731 53.9889 128.506 54.1835 128.687C54.3786 128.868 48.1839 131.794 40.4175 135.188L26.2974 141.359L26.1707 129.028C26.0724 119.481 26.1797 116.61 26.6454 116.315C27.3375 115.876 83.035 115.771 84.1705 116.207ZM156.599 116.593C154.439 117.752 129.789 128.419 129.305 128.405C129.044 128.397 122.659 125.685 115.117 122.379C107.575 119.072 101.329 116.442 101.236 116.534C101.144 116.627 107.101 119.329 114.475 122.539C121.848 125.749 128.031 128.511 128.215 128.676C128.399 128.841 122.204 131.735 114.449 135.107C106.694 138.479 100.189 141.321 99.9928 141.423C99.7968 141.524 99.6368 135.95 99.6368 129.035C99.6368 117.461 99.7028 116.446 100.468 116.246C100.924 116.127 114.008 116.013 129.542 115.993C153.413 115.962 157.602 116.055 156.599 116.593ZM158.973 128.951V141.51L155.769 140.137C136.797 132.008 129.862 128.765 130.737 128.432C131.255 128.235 137.659 125.45 144.97 122.243C152.28 119.036 158.421 116.408 158.617 116.403C158.813 116.398 158.973 122.045 158.973 128.951ZM152.008 128.539C151.85 128.952 151.27 129.474 150.718 129.7L149.716 130.111L150.741 130.416C151.304 130.584 151.906 131.183 152.078 131.746C152.317 132.527 152.453 132.601 152.654 132.058C152.798 131.667 153.278 131.026 153.72 130.634C154.471 129.97 154.45 129.85 153.41 128.855C152.455 127.941 152.256 127.896 152.008 128.539ZM144.258 135.592L157.786 141.533L129.582 141.542C114.069 141.548 101.469 141.46 101.581 141.348C102.414 140.515 129.026 129.282 129.78 129.445C130.302 129.558 136.817 132.324 144.258 135.592ZM25.5854 146.061V147.248H48.8451H72.1049V146.061V144.875H48.8451H25.5854V146.061ZM99.1621 146.061V147.248H118.15H137.137V146.061V144.875H118.15H99.1621V146.061ZM25.5854 149.39V150.582L44.2169 150.458L62.8484 150.334L63.0003 149.266L63.1518 148.198H44.3688H25.5854V149.39ZM99.2475 149.266L99.3995 150.334L120.642 150.457L141.884 150.581V149.389V148.198H120.49H99.0961L99.2475 149.266ZM32.6165 152.825C36.6138 152.905 43.0221 152.904 46.8571 152.825C50.6917 152.745 47.4211 152.68 39.5887 152.68C31.7564 152.68 28.6187 152.746 32.6165 152.825ZM63.9165 152.825C67.8977 152.904 74.4133 152.904 78.3945 152.825C82.3757 152.746 79.1184 152.681 71.1555 152.681C63.1926 152.681 59.9353 152.746 63.9165 152.825ZM106.668 152.825C110.665 152.905 117.074 152.904 120.909 152.825C124.743 152.745 121.472 152.68 113.64 152.68C105.808 152.68 102.67 152.746 106.668 152.825ZM137.968 152.825C141.949 152.904 148.465 152.904 152.446 152.825C156.427 152.746 153.17 152.681 145.207 152.681C137.244 152.681 133.987 152.746 137.968 152.825ZM32.6165 154.724C36.6138 154.803 43.0221 154.803 46.8571 154.724C50.6917 154.644 47.4211 154.579 39.5887 154.579C31.7564 154.579 28.6187 154.644 32.6165 154.724ZM63.9459 154.724C67.9433 154.803 74.3516 154.803 78.1866 154.724C82.0211 154.644 78.7505 154.579 70.9181 154.579C63.0858 154.579 59.9481 154.644 63.9459 154.724ZM106.668 154.724C110.665 154.803 117.074 154.803 120.909 154.724C124.743 154.644 121.472 154.579 113.64 154.579C105.808 154.579 102.67 154.644 106.668 154.724ZM137.997 154.724C141.995 154.803 148.403 154.803 152.238 154.724C156.073 154.644 152.802 154.579 144.97 154.579C137.137 154.579 133.999 154.644 137.997 154.724ZM32.6165 156.148C36.6138 156.227 43.0221 156.227 46.8571 156.148C50.6917 156.068 47.4211 156.003 39.5887 156.003C31.7564 156.003 28.6187 156.068 32.6165 156.148ZM63.9165 156.148C67.8977 156.227 74.4133 156.227 78.3945 156.148C82.3757 156.068 79.1184 156.003 71.1555 156.003C63.1926 156.003 59.9353 156.068 63.9165 156.148ZM106.668 156.148C110.665 156.227 117.074 156.227 120.909 156.148C124.743 156.068 121.472 156.003 113.64 156.003C105.808 156.003 102.67 156.068 106.668 156.148ZM137.968 156.148C141.949 156.227 148.465 156.227 152.446 156.148C156.427 156.068 153.17 156.003 145.207 156.003C137.244 156.003 133.987 156.068 137.968 156.148ZM32.6165 158.046C36.6138 158.126 43.0221 158.126 46.8571 158.046C50.6917 157.967 47.4211 157.902 39.5887 157.902C31.7564 157.902 28.6187 157.967 32.6165 158.046ZM63.9165 158.046C67.8977 158.126 74.4133 158.126 78.3945 158.046C82.3757 157.967 79.1184 157.902 71.1555 157.902C63.1926 157.902 59.9353 157.967 63.9165 158.046ZM106.668 158.046C110.665 158.126 117.074 158.126 120.909 158.046C124.743 157.967 121.472 157.902 113.64 157.902C105.808 157.902 102.67 157.967 106.668 158.046ZM137.968 158.046C141.949 158.126 148.465 158.126 152.446 158.046C156.427 157.967 153.17 157.902 145.207 157.902C137.244 157.902 133.987 157.967 137.968 158.046ZM7.22066 160.337L6.18204 161.504L7.33933 162.752C8.27684 163.764 8.49662 163.844 8.49662 163.175C8.49662 162.721 8.92384 162.237 9.446 162.101C10.5606 161.81 10.7229 161.014 9.66815 161.014C9.26799 161.014 8.78713 160.6 8.6001 160.093C8.27494 159.214 8.21133 159.226 7.22066 160.337Z" fill="black"/>
</svg>
