<svg width="257" height="158" viewBox="0 0 257 158" fill="none" xmlns="http://www.w3.org/2000/svg">
<path opacity="0.32" fill-rule="evenodd" clip-rule="evenodd" d="M140.207 1.03048C140.059 1.59758 139.425 2.25085 138.8 2.48203L137.662 2.9031L139.009 3.78548C139.75 4.27105 140.356 5.01721 140.356 5.44447C140.356 5.95274 140.949 5.63591 142.07 4.52957C143.648 2.97224 143.706 2.80712 142.796 2.44952C142.252 2.23589 141.685 1.59758 141.537 1.03048C141.389 0.463898 141.09 0 140.872 0C140.654 0 140.355 0.463898 140.207 1.03048ZM137.26 27.0907V44.8932H165.383H193.505V27.0907V9.28826H165.383H137.26V27.0907ZM191.673 10.7677C188.571 13.6011 165.916 31.9929 165.529 31.9929C165.117 31.9929 142.855 13.8075 139.858 11.0226C139.22 10.4297 143.23 10.3203 165.633 10.3203C180.649 10.3203 191.951 10.5143 191.673 10.7677ZM151.318 21.6236L158.926 27.9602L149.209 35.3124C143.864 39.3564 139.221 42.8318 138.891 43.0356C138.441 43.3142 138.292 39.3466 138.292 27.0588V10.7109L141.001 12.9989C142.491 14.257 147.134 18.1379 151.318 21.6236ZM192.811 43.1796C192.583 43.4081 172.654 28.4675 172.505 27.9561C172.448 27.7641 176.976 23.8481 182.567 19.2546L192.731 10.9029L192.868 26.9447C192.943 35.7675 192.917 43.0733 192.811 43.1796ZM53.6655 27.8648C53.6655 28.1486 54.8265 28.3808 56.2455 28.3808C57.6646 28.3808 58.8256 28.1486 58.8256 27.8648C58.8256 27.581 57.6646 27.3488 56.2455 27.3488C54.8265 27.3488 53.6655 27.581 53.6655 27.8648ZM70.4359 27.8648C70.2249 28.2064 80.4069 28.3808 100.592 28.3808C120.565 28.3808 131.068 28.2028 131.068 27.8648C131.068 27.5268 120.671 27.3488 100.911 27.3488C81.3636 27.3488 70.6429 27.5304 70.4359 27.8648ZM166.319 32.5915C166.939 32.2782 168.378 31.2189 169.516 30.2364L171.586 28.4504L181.127 35.6808C186.374 39.6578 190.888 43.1254 191.157 43.3865C191.456 43.6754 181.399 43.8612 165.413 43.8612H139.178L149.419 36.1483L159.659 28.435L162.424 30.7978C164.836 32.8582 165.335 33.0879 166.319 32.5915ZM275.275 38.9374C274.529 40.8879 274.045 41.3771 272.135 42.1068C270.892 42.581 269.875 43.1331 269.875 43.3338C269.875 43.5341 270.824 43.982 271.984 44.3298C273.813 44.8778 274.25 45.3153 275.289 47.6364C276.298 49.8908 276.546 50.1494 276.869 49.2794C278.321 45.369 278.533 45.0965 280.667 44.3922C281.855 44 282.92 43.5294 283.033 43.3462C283.146 43.1636 282.123 42.613 280.759 42.1222C278.61 41.3498 278.189 40.9561 277.599 39.166C277.224 38.0302 276.746 36.9951 276.537 36.8656C276.327 36.7366 275.759 37.6685 275.275 38.9374ZM50.0534 48.2582C50.0534 48.6901 49.4584 49.3144 48.7308 49.6462L47.4083 50.2484L48.7308 50.9414C49.4584 51.3228 50.0534 51.9755 50.0534 52.392C50.0534 53.5071 50.9636 53.3136 51.3434 52.1174C51.5235 51.5498 51.99 51.0854 52.3796 51.0854C53.5798 51.0854 53.8332 50.0007 52.7026 49.7051C52.1159 49.5513 51.4962 48.9868 51.3259 48.4496C50.9554 47.2824 50.0534 47.1472 50.0534 48.2582ZM188.161 49.606C187.632 50.83 186.896 51.5942 186.042 51.8089C184.351 52.233 184.367 53.038 186.074 53.4663C186.926 53.6799 187.603 54.3425 187.93 55.2822C188.568 57.1109 189.253 57.1775 189.686 55.453C189.9 54.5984 190.665 53.8631 191.889 53.3332L193.763 52.5215L191.992 51.8981C190.691 51.4404 190.054 50.8037 189.597 49.5028L188.973 47.7313L188.161 49.606ZM205.89 81.0142V107.331H247.945H290V81.0142V54.6975H247.945H205.89V81.0142ZM286.892 56.9571C286.189 57.6321 277.165 65.1814 266.839 73.7333C250.724 87.0805 247.949 89.1905 247.244 88.6316C244.471 86.4319 209.575 57.4876 208.742 56.6965C207.747 55.7507 208.609 55.7295 247.947 55.7295H288.171L286.892 56.9571ZM238.025 82.0261C238.373 82.3363 207.956 105.783 207.206 105.783C207.049 105.783 206.922 94.6355 206.922 81.0111V56.2394L222.273 68.9539C230.717 75.947 237.805 81.8295 238.025 82.0261ZM288.968 81.3151C288.968 94.8197 288.774 105.792 288.538 105.697C288.302 105.602 281.236 100.322 272.835 93.9636L257.562 82.4018L272.878 69.6217C281.302 62.592 288.368 56.823 288.581 56.8013C288.794 56.7796 288.968 67.811 288.968 81.3151ZM25.2847 62.4377C25.2847 62.7215 26.3157 62.9537 27.5763 62.9537C28.8369 62.9537 30.0114 62.7215 30.1868 62.4377C30.3834 62.1199 29.5041 61.9217 27.8952 61.9217C26.4597 61.9217 25.2847 62.1539 25.2847 62.4377ZM50.5694 62.4377C50.5694 62.7669 54.8595 62.9537 62.4073 62.9537C69.7424 62.9537 74.3664 62.7576 74.5641 62.4377C74.773 62.0992 70.6991 61.9217 62.7262 61.9217C54.9658 61.9217 50.5694 62.1085 50.5694 62.4377ZM87.2064 62.4377C87.2064 62.7788 106.289 62.9537 143.422 62.9537C180.342 62.9537 199.746 62.7767 199.956 62.4377C200.168 62.0951 181.298 61.9217 143.74 61.9217C106.395 61.9217 87.2064 62.0966 87.2064 62.4377ZM128.29 72.6311C128.076 73.2709 127.293 74.1125 126.551 74.5011C125.218 75.1998 125.215 75.2127 126.331 75.5667C126.952 75.7638 127.787 76.5476 128.187 77.3087L128.915 78.6922L129.251 77.3608C129.451 76.5683 130.148 75.8169 130.973 75.5042L132.358 74.9789L131.026 74.6084C130.245 74.3912 129.485 73.6657 129.187 72.853C128.683 71.4783 128.676 71.4767 128.29 72.6311ZM243.549 86.6826C247.297 89.787 248.024 90.1983 248.792 89.6497C249.282 89.2994 251.327 87.6481 253.337 85.9803L256.991 82.9483L272.241 94.4719C280.628 100.81 287.605 106.18 287.744 106.406C287.883 106.631 269.94 106.815 247.872 106.815C222.779 106.815 207.931 106.633 208.238 106.329C209.069 105.505 238.64 83.1227 238.927 83.1C239.076 83.0881 241.156 84.7001 243.549 86.6826ZM0 100.107C0 100.391 0.928826 100.623 2.06406 100.623C3.19929 100.623 4.12811 100.391 4.12811 100.107C4.12811 99.823 3.19929 99.5907 2.06406 99.5907C0.928826 99.5907 0 99.823 0 100.107ZM16.5125 100.107C16.5125 100.424 19.0925 100.623 23.2206 100.623C27.3488 100.623 29.9288 100.424 29.9288 100.107C29.9288 99.7894 27.3488 99.5907 23.2206 99.5907C19.0925 99.5907 16.5125 99.7894 16.5125 100.107ZM38.7011 100.107C38.7011 100.448 65.9636 100.623 119.457 100.623C172.951 100.623 200.214 100.448 200.214 100.107C200.214 99.7652 172.951 99.5907 119.457 99.5907C65.9636 99.5907 38.7011 99.7652 38.7011 100.107ZM81.3378 106.479C81.1159 107.363 80.5307 107.949 79.6463 108.171L78.2943 108.51L79.4688 109.138C80.1143 109.484 80.9301 110.304 81.2815 110.96L81.9198 112.154L82.2852 111.003C82.4864 110.37 83.2692 109.615 84.0257 109.326L85.4004 108.801L84.1671 108.139C83.489 107.774 82.651 106.947 82.3053 106.302L81.6773 105.127L81.3378 106.479ZM223.716 112.838C223.016 114.554 222.401 115.166 220.685 115.852L218.533 116.714L220.847 117.828C222.613 118.677 223.274 119.339 223.631 120.618C224.237 122.786 224.756 122.738 225.513 120.445C225.983 119.021 226.617 118.377 228.262 117.651L230.4 116.707L228.299 115.847C226.612 115.156 226.038 114.561 225.396 112.836L224.595 110.685L223.716 112.838ZM157.384 135.196V152.74H185.765H214.146V135.196V117.651H185.765H157.384V135.196ZM212.082 118.418C212.082 118.875 186.071 140.372 185.685 140.234C185.15 140.042 159.974 119.116 159.652 118.596C159.507 118.36 171.244 118.167 185.735 118.167C200.225 118.167 212.082 118.28 212.082 118.418ZM168.371 127.016C173.539 131.315 178.083 135.123 178.47 135.477C179.046 136.006 177.314 137.518 168.794 143.925L158.416 151.728V135.464C158.416 126.518 158.542 119.199 158.696 119.199C158.85 119.199 163.204 122.717 168.371 127.016ZM213.114 135.472V151.744L202.791 143.902C197.114 139.589 192.527 136.007 192.6 135.942C194.186 134.513 212.757 119.199 212.904 119.199C213.019 119.199 213.114 126.522 213.114 135.472ZM74.1863 132.99C75.1136 133.104 76.5069 133.102 77.2824 132.985C78.058 132.866 77.2989 132.773 75.5961 132.776C73.8932 132.778 73.2591 132.875 74.1863 132.99ZM105.175 133.003C113.781 133.082 127.713 133.082 136.136 133.002C144.559 132.923 137.518 132.858 120.489 132.858C103.461 132.858 96.5695 132.923 105.175 133.003ZM182.984 139.138L185.786 141.531L188.227 139.492C189.569 138.369 190.953 137.281 191.301 137.074C191.693 136.841 195.809 139.616 202.064 144.331L212.194 151.966L198.98 152.104C191.712 152.18 179.854 152.18 172.628 152.104L159.492 151.966L169.403 144.39C174.855 140.223 179.51 136.798 179.749 136.779C179.987 136.759 181.443 137.821 182.984 139.138ZM148.129 149.432C147.779 150.374 146.861 151.357 145.882 151.838L144.226 152.651L145.795 153.224C146.801 153.592 147.604 154.395 148.035 155.462L148.706 157.126L149.411 155.508C149.862 154.471 150.727 153.663 151.815 153.26L153.514 152.632L151.838 151.911C150.811 151.469 149.883 150.541 149.441 149.514L148.72 147.838L148.129 149.432Z" fill="black"/>
</svg>
