<svg width="38" height="40" viewBox="0 0 38 40" fill="none" xmlns="http://www.w3.org/2000/svg">
<rect width="37.8378" height="40" rx="18.9189" fill="#E0F2FF"/>
<path d="M25.682 25.5875L21.8597 17.4895V11.5565C21.8597 11.409 21.8043 11.2673 21.7055 11.1631C21.6069 11.0586 21.4728 11 21.3333 11H16.8582C16.5674 11 16.3318 11.249 16.3318 11.5565V17.4894L12.5199 25.5875C12.1936 26.277 12.228 27.096 12.6106 27.7523C12.9935 28.4086 13.6702 28.8087 14.3995 28.81H23.8024C24.5318 28.8086 25.2084 28.4086 25.5913 27.7523C25.974 27.096 26.0083 26.277 25.682 25.5875L25.682 25.5875ZM24.7002 27.1682C24.5081 27.4973 24.1682 27.6976 23.8024 27.697H14.3995C14.0332 27.6988 13.6922 27.499 13.4994 27.1696C13.3066 26.8404 13.2895 26.4289 13.4544 26.083L17.0373 18.5136H19.101C19.3919 18.5136 19.6274 18.2644 19.6274 17.9571C19.6274 17.6496 19.3918 17.4006 19.101 17.4006H17.3951V16.4823H19.101C19.3919 16.4823 19.6274 16.233 19.6274 15.9257C19.6274 15.6183 19.3918 15.369 19.101 15.369H17.3951V14.4507H19.101C19.3919 14.4507 19.6274 14.2016 19.6274 13.8942C19.6274 13.5869 19.3918 13.3376 19.101 13.3376H17.3951V12.1131H20.8173V17.6202C20.817 17.7072 20.8359 17.793 20.8726 17.8706L24.7476 26.083C24.9112 26.4289 24.8932 26.8398 24.7002 27.1683L24.7002 27.1682Z" fill="#0D58C6"/>
<path d="M15.4511 28.2036H25.4177L26.7248 26.9782V25.9161L22.6402 17.8285V11.5381L17.7385 11.8649V17.8285L13.4905 26.4063L13.9806 27.7134L15.4511 28.2036Z" fill="#0D58C6"/>
<path d="M15.0425 21.5122H19.8624" stroke="white" stroke-width="0.543331"/>
</svg>
