<svg width="310" height="228" viewBox="0 0 310 228" fill="none" xmlns="http://www.w3.org/2000/svg">
<g filter="url(#filter0_i_1315_12433)">
<path d="M290.647 1H18.8559C8.4739 1 0.0576172 9.40735 0.0576172 19.7783V209.126C0.0576172 219.497 8.4739 227.905 18.8559 227.905H290.647C301.029 227.905 309.446 219.497 309.446 209.126V19.7783C309.446 9.40735 301.029 1 290.647 1Z" fill="url(#paint0_linear_1315_12433)"/>
</g>
<path d="M290.648 1.29297H18.8561C8.63632 1.29297 0.351562 9.56893 0.351562 19.7778V209.126C0.351562 219.335 8.63632 227.61 18.8561 227.61H290.648C300.868 227.61 309.152 219.335 309.152 209.126V19.7778C309.152 9.56893 300.868 1.29297 290.648 1.29297Z" stroke="#D9E2F8" stroke-width="0.587931"/>
<path d="M91.699 34.6445H9.4563V50.2931H91.699V34.6445Z" fill="#D4EDFF"/>
<path d="M290.647 10.584H18.8557C13.7728 10.584 9.65234 14.7001 9.65234 19.7776V209.125C9.65234 214.203 13.7728 218.319 18.8557 218.319H290.647C295.73 218.319 299.851 214.203 299.851 209.125V19.7776C299.851 14.7001 295.73 10.584 290.647 10.584Z" stroke="#CFD9F0" stroke-width="0.391953"/>
<path d="M104.365 133.803H288.393" stroke="#CFD9F0" stroke-width="1.02432"/>
<path d="M20.4225 47.1626C23.018 47.1626 25.122 45.0608 25.122 42.468C25.122 39.8753 23.018 37.7734 20.4225 37.7734C17.827 37.7734 15.7229 39.8753 15.7229 42.468C15.7229 45.0608 17.827 47.1626 20.4225 47.1626Z" fill="#D1DFF4"/>
<path d="M45.4868 106.627H18.8559C17.1256 106.627 15.7229 108.028 15.7229 109.757V116.016C15.7229 117.745 17.1256 119.146 18.8559 119.146H45.4868C47.2171 119.146 48.6198 117.745 48.6198 116.016V109.757C48.6198 108.028 47.2171 106.627 45.4868 106.627Z" fill="#ECF0F9"/>
<path d="M82.3 106.627H55.6692C53.9388 106.627 52.5361 108.028 52.5361 109.757V116.016C52.5361 117.745 53.9388 119.146 55.6692 119.146H82.3C84.0304 119.146 85.4331 117.745 85.4331 116.016V109.757C85.4331 108.028 84.0304 106.627 82.3 106.627Z" fill="#ECF0F9"/>
<path d="M20.1046 65.9419C22.7001 65.9419 24.8042 63.8401 24.8042 61.2473C24.8042 58.6546 22.7001 56.5527 20.1046 56.5527C17.5091 56.5527 15.405 58.6546 15.405 61.2473C15.405 63.8401 17.5091 65.9419 20.1046 65.9419Z" fill="#ECF0F9"/>
<path d="M20.1046 81.5903C22.7001 81.5903 24.8042 79.4885 24.8042 76.8957C24.8042 74.303 22.7001 72.2012 20.1046 72.2012C17.5091 72.2012 15.405 74.303 15.405 76.8957C15.405 79.4885 17.5091 81.5903 20.1046 81.5903Z" fill="#ECF0F9"/>
<path d="M20.1046 97.2388C22.7001 97.2388 24.8042 95.1369 24.8042 92.5442C24.8042 89.9514 22.7001 87.8496 20.1046 87.8496C17.5091 87.8496 15.405 89.9514 15.405 92.5442C15.405 95.1369 17.5091 97.2388 20.1046 97.2388Z" fill="#ECF0F9"/>
<path d="M84.6499 134.014H16.5062C16.0736 134.014 15.7229 134.364 15.7229 134.796C15.7229 135.228 16.0736 135.579 16.5062 135.579H84.6499C85.0825 135.579 85.4332 135.228 85.4332 134.796C85.4332 134.364 85.0825 134.014 84.6499 134.014Z" fill="#ECF0F9"/>
<path d="M82.7033 188.783H19.2349C17.7276 188.783 16.5056 190.004 16.5056 191.51V197.011C16.5056 198.517 17.7276 199.737 19.2349 199.737H82.7033C84.2107 199.737 85.4326 198.517 85.4326 197.011V191.51C85.4326 190.004 84.2107 188.783 82.7033 188.783Z" fill="#ECF0F9"/>
<path d="M25.1216 137.925C26.8519 137.925 28.2546 136.524 28.2546 134.796C28.2546 133.067 26.8519 131.666 25.1216 131.666C23.3912 131.666 21.9885 133.067 21.9885 134.796C21.9885 136.524 23.3912 137.925 25.1216 137.925Z" fill="#CFD9F0"/>
<path d="M83.8661 171.57H18.0721C17.207 171.57 16.5056 172.271 16.5056 173.135V173.135C16.5056 173.999 17.207 174.7 18.0721 174.7H83.8661C84.7313 174.7 85.4326 173.999 85.4326 173.135C85.4326 172.271 84.7313 171.57 83.8661 171.57Z" fill="#ECF0F9"/>
<path d="M67.4176 163.746H18.0721C17.207 163.746 16.5056 164.447 16.5056 165.311V165.311C16.5056 166.175 17.207 166.876 18.0721 166.876H67.4176C68.2828 166.876 68.9841 166.175 68.9841 165.311C68.9841 164.447 68.2828 163.746 67.4176 163.746Z" fill="#ECF0F9"/>
<path d="M77.6 155.922H18.0721C17.207 155.922 16.5056 156.622 16.5056 157.487V157.487C16.5056 158.351 17.207 159.052 18.0721 159.052H77.6C78.4652 159.052 79.1666 158.351 79.1666 157.487C79.1666 156.622 78.4652 155.922 77.6 155.922Z" fill="#ECF0F9"/>
<path opacity="0.4" d="M134.399 142.619H106.96C105.453 142.619 104.231 143.84 104.231 145.346V152.412C104.231 153.917 105.453 155.138 106.96 155.138H134.399C135.906 155.138 137.128 153.917 137.128 152.412V145.346C137.128 143.84 135.906 142.619 134.399 142.619Z" fill="#CFD9F0"/>
<path opacity="0.4" d="M285.569 142.619H146.124C144.617 142.619 143.395 143.84 143.395 145.346V152.412C143.395 153.917 144.617 155.138 146.124 155.138H285.569C287.076 155.138 288.298 153.917 288.298 152.412V145.346C288.298 143.84 287.076 142.619 285.569 142.619Z" fill="#CFD9F0"/>
<path d="M9.4563 34.4746H293.781" stroke="#CFD9F0" stroke-width="0.34144"/>
<path d="M9.4563 50.123H91.6989" stroke="#CFD9F0" stroke-width="0.34144"/>
<path d="M283.348 17.0742H273.288V18.2786H283.348V17.0742Z" fill="#CFD9F0"/>
<path d="M283.348 20.2852H273.288V21.4895H283.348V20.2852Z" fill="#CFD9F0"/>
<path d="M283.353 23.4961H273.293V24.7005H283.353V23.4961Z" fill="#CFD9F0"/>
<path d="M91.895 34.6445V218.515" stroke="#CFD9F0" stroke-width="0.391953"/>
<path d="M270.242 168.141C270.242 167.432 269.674 167.221 269.049 167.047V166.413C269.232 166.47 269.368 166.601 269.396 166.789H270.195C270.171 166.211 269.721 165.817 269.049 165.751V165.465H268.766V165.742C268.085 165.77 267.615 166.141 267.615 166.714C267.615 167.334 268.052 167.535 268.63 167.704C268.677 167.718 268.724 167.733 268.766 167.742V168.446C268.536 168.404 268.32 168.282 268.32 167.977H267.521C267.521 168.662 268.014 169.043 268.766 169.098V169.517H269.049V169.108C269.8 169.084 270.242 168.676 270.242 168.141ZM268.414 166.653C268.414 166.484 268.555 166.404 268.766 166.39V166.968C268.522 166.887 268.414 166.813 268.414 166.653ZM269.049 168.465V167.826C269.293 167.906 269.443 167.995 269.443 168.174C269.443 168.357 269.297 168.451 269.049 168.465ZM271.191 166.972C271.191 166.526 271.393 166.357 271.699 166.357C271.953 166.357 272.094 166.508 272.094 166.756C272.094 167.183 271.544 167.436 270.961 167.92C270.674 168.16 270.393 168.493 270.393 169.033H272.892V168.39H271.515V168.38C271.934 167.967 272.892 167.554 272.892 166.7C272.892 166.08 272.423 165.714 271.723 165.714C270.843 165.714 270.44 166.211 270.44 166.972H271.191ZM273.523 169.075C273.523 169.267 273.358 169.456 273.123 169.488V169.817C273.621 169.751 273.922 169.385 273.922 168.84C273.922 168.493 273.781 168.277 273.494 168.277C273.26 168.277 273.076 168.423 273.076 168.676C273.076 168.929 273.26 169.075 273.523 169.075ZM274.069 168.103C274.069 168.77 274.67 169.108 275.413 169.108C276.155 169.108 276.757 168.77 276.757 168.103C276.757 167.667 276.451 167.423 276.146 167.287V167.277C276.371 167.155 276.615 166.958 276.615 166.592C276.615 166.033 276.08 165.714 275.413 165.714C274.745 165.714 274.21 166.033 274.21 166.592C274.21 166.958 274.449 167.155 274.68 167.277V167.287C274.369 167.423 274.069 167.667 274.069 168.103ZM275.413 167.066C275.084 167.066 274.914 166.883 274.914 166.662C274.914 166.451 275.084 166.263 275.413 166.263C275.741 166.263 275.911 166.451 275.911 166.662C275.911 166.883 275.741 167.066 275.413 167.066ZM275.413 168.512C275.069 168.512 274.867 168.291 274.867 168.028C274.867 167.775 275.069 167.554 275.413 167.554C275.756 167.554 275.957 167.775 275.957 168.028C275.957 168.291 275.756 168.512 275.413 168.512ZM277.661 166.784C277.661 166.474 277.891 166.357 278.14 166.357C278.404 166.357 278.563 166.46 278.563 166.738C278.563 166.982 278.389 167.094 278.041 167.094H277.895V167.643H278.06C278.436 167.643 278.657 167.761 278.657 168.075C278.657 168.319 278.497 168.465 278.159 168.465C277.74 168.465 277.567 168.263 277.567 167.887H276.815C276.815 168.667 277.299 169.108 278.215 169.108C278.934 169.108 279.456 168.76 279.456 168.122C279.456 167.723 279.292 167.451 278.892 167.324V167.314C279.155 167.179 279.362 166.958 279.362 166.606C279.362 166.033 278.807 165.714 278.201 165.714C277.369 165.714 276.909 166.164 276.909 166.784H277.661ZM280.366 166.972C280.366 166.526 280.568 166.357 280.873 166.357C281.127 166.357 281.268 166.508 281.268 166.756C281.268 167.183 280.718 167.436 280.136 167.92C279.849 168.16 279.567 168.493 279.567 169.033H282.067V168.39H280.69V168.38C281.109 167.967 282.067 167.554 282.067 166.7C282.067 166.08 281.598 165.714 280.897 165.714C280.018 165.714 279.614 166.211 279.614 166.972H280.366ZM282.65 169.075C282.871 169.075 283.05 168.92 283.05 168.676C283.05 168.437 282.871 168.277 282.65 168.277C282.425 168.277 282.251 168.437 282.251 168.676C282.251 168.92 282.425 169.075 282.65 169.075ZM284.581 169.108C285.553 169.108 286.005 168.333 286.005 167.413C286.005 166.493 285.553 165.714 284.581 165.714C283.608 165.714 283.152 166.493 283.152 167.413C283.152 168.333 283.608 169.108 284.581 169.108ZM284.581 168.465C284.106 168.465 283.95 168.056 283.95 167.413C283.95 166.77 284.106 166.357 284.581 166.357C285.055 166.357 285.206 166.77 285.206 167.413C285.206 168.056 285.055 168.465 284.581 168.465ZM285.981 165.789V166.432H287.517V166.441C286.94 166.935 286.498 167.995 286.498 169.033H287.343C287.343 168.033 287.625 166.982 288.363 166.385V165.789H285.981Z" fill="#CFD9F0"/>
<path d="M273.397 189.265C273.397 188.557 272.828 188.346 272.204 188.172V187.538C272.387 187.595 272.523 187.726 272.551 187.914H273.35C273.326 187.336 272.876 186.942 272.204 186.876V186.59H271.921V186.867C271.24 186.895 270.77 187.266 270.77 187.839C270.77 188.458 271.207 188.66 271.785 188.829C271.832 188.843 271.879 188.858 271.921 188.867V189.571C271.691 189.529 271.475 189.407 271.475 189.102H270.676C270.676 189.787 271.169 190.167 271.921 190.223V190.642H272.204V190.233C272.955 190.209 273.397 189.801 273.397 189.265ZM271.569 187.778C271.569 187.609 271.71 187.529 271.921 187.515V188.092C271.677 188.012 271.569 187.937 271.569 187.778ZM272.204 189.59V188.951C272.448 189.031 272.598 189.12 272.598 189.299C272.598 189.482 272.452 189.576 272.204 189.59ZM273.501 186.914V187.557H275.038V187.566C274.46 188.059 274.018 189.12 274.018 190.158H274.863C274.863 189.158 275.146 188.106 275.883 187.51V186.914H273.501ZM277.418 187.956C277.122 187.956 276.901 188.045 276.722 188.186V188.177L276.845 187.557H278.353V186.914H276.3L275.924 188.74H276.675C276.807 188.576 276.995 188.506 277.169 188.506C277.512 188.506 277.695 188.707 277.695 189.05C277.695 189.407 277.484 189.59 277.183 189.59C276.845 189.59 276.652 189.388 276.629 189.153H275.83C275.853 189.792 276.323 190.233 277.231 190.233C277.949 190.233 278.494 189.839 278.494 189.059C278.494 188.364 278.062 187.956 277.418 187.956ZM279.418 187.909C279.418 187.599 279.648 187.481 279.897 187.481C280.161 187.481 280.32 187.585 280.32 187.862C280.32 188.106 280.147 188.219 279.799 188.219H279.653V188.768H279.817C280.194 188.768 280.414 188.885 280.414 189.2C280.414 189.444 280.255 189.59 279.916 189.59C279.498 189.59 279.324 189.388 279.324 189.012H278.572C278.572 189.792 279.056 190.233 279.972 190.233C280.691 190.233 281.214 189.885 281.214 189.247C281.214 188.848 281.049 188.576 280.65 188.449V188.439C280.913 188.303 281.119 188.083 281.119 187.731C281.119 187.158 280.565 186.838 279.958 186.838C279.127 186.838 278.666 187.289 278.666 187.909H279.418ZM281.771 190.2C281.991 190.2 282.17 190.045 282.17 189.801C282.17 189.562 281.991 189.402 281.771 189.402C281.545 189.402 281.372 189.562 281.372 189.801C281.372 190.045 281.545 190.2 281.771 190.2ZM283.14 187.909C283.14 187.599 283.37 187.481 283.619 187.481C283.883 187.481 284.043 187.585 284.043 187.862C284.043 188.106 283.869 188.219 283.521 188.219H283.375V188.768H283.54C283.916 188.768 284.136 188.885 284.136 189.2C284.136 189.444 283.977 189.59 283.639 189.59C283.22 189.59 283.046 189.388 283.046 189.012H282.295C282.295 189.792 282.778 190.233 283.695 190.233C284.414 190.233 284.935 189.885 284.935 189.247C284.935 188.848 284.771 188.576 284.372 188.449V188.439C284.635 188.303 284.841 188.083 284.841 187.731C284.841 187.158 284.287 186.838 283.68 186.838C282.849 186.838 282.389 187.289 282.389 187.909H283.14ZM286.936 188.829V188.838C286.927 189.303 286.762 189.637 286.358 189.637C286.062 189.637 285.958 189.449 285.935 189.336H285.136C285.239 189.857 285.714 190.233 286.344 190.233C287.175 190.233 287.735 189.665 287.735 188.491C287.735 187.646 287.387 186.838 286.316 186.838C285.536 186.838 285.042 187.308 285.042 188.026C285.042 188.646 285.489 189.125 286.161 189.125C286.532 189.125 286.762 188.994 286.936 188.829ZM286.363 187.435C286.715 187.435 286.936 187.67 286.936 187.984C286.936 188.294 286.715 188.529 286.363 188.529C286.015 188.529 285.794 188.294 285.794 187.984C285.794 187.67 286.015 187.435 286.363 187.435Z" fill="#CFD9F0"/>
<path d="M272.365 178.311C272.365 177.602 271.797 177.39 271.172 177.217V176.583C271.355 176.64 271.492 176.771 271.52 176.959H272.319C272.295 176.381 271.844 175.987 271.172 175.921V175.635H270.89V175.912C270.209 175.94 269.738 176.311 269.738 176.884C269.738 177.504 270.176 177.705 270.754 177.874C270.801 177.888 270.848 177.903 270.89 177.911V178.616C270.66 178.574 270.443 178.452 270.443 178.147H269.645C269.645 178.832 270.138 179.212 270.89 179.268V179.687H271.172V179.278C271.924 179.254 272.365 178.846 272.365 178.311ZM270.538 176.823C270.538 176.654 270.679 176.574 270.89 176.56V177.137C270.646 177.057 270.538 176.982 270.538 176.823ZM271.172 178.635V177.996C271.416 178.076 271.567 178.165 271.567 178.344C271.567 178.527 271.421 178.621 271.172 178.635ZM273.362 175.959C273.362 176.311 273.151 176.635 272.535 176.635V177.198C272.765 177.198 273.038 177.198 273.221 177.01V179.203H274.02V175.959H273.362ZM274.825 179.245C274.825 179.437 274.66 179.626 274.426 179.658V179.986C274.923 179.921 275.224 179.555 275.224 179.01C275.224 178.663 275.083 178.447 274.797 178.447C274.562 178.447 274.379 178.592 274.379 178.846C274.379 179.099 274.562 179.245 274.825 179.245ZM276.078 177.287V177.278C276.088 176.813 276.252 176.48 276.656 176.48C276.953 176.48 277.056 176.668 277.079 176.78H277.878C277.775 176.259 277.3 175.883 276.67 175.883C275.839 175.883 275.279 176.452 275.279 177.626C275.279 178.47 275.627 179.278 276.699 179.278C277.479 179.278 277.972 178.808 277.972 178.09C277.972 177.47 277.526 176.992 276.854 176.992C276.483 176.992 276.252 177.123 276.078 177.287ZM276.652 178.682C276.299 178.682 276.078 178.447 276.078 178.133C276.078 177.823 276.299 177.588 276.652 177.588C277 177.588 277.22 177.823 277.22 178.133C277.22 178.447 277 178.682 276.652 178.682ZM278.923 175.959C278.923 176.311 278.711 176.635 278.095 176.635V177.198C278.325 177.198 278.598 177.198 278.781 177.01V179.203H279.581V175.959H278.923ZM280.738 175.959C280.738 176.311 280.526 176.635 279.911 176.635V177.198C280.141 177.198 280.414 177.198 280.597 177.01V179.203H281.396V175.959H280.738ZM282.153 179.245C282.375 179.245 282.553 179.09 282.553 178.846C282.553 178.607 282.375 178.447 282.153 178.447C281.927 178.447 281.754 178.607 281.754 178.846C281.754 179.09 281.927 179.245 282.153 179.245ZM283.513 177.142C283.513 176.696 283.716 176.527 284.021 176.527C284.274 176.527 284.415 176.677 284.415 176.926C284.415 177.353 283.865 177.606 283.283 178.09C282.997 178.33 282.714 178.663 282.714 179.203H285.215V178.56H283.838V178.55C284.256 178.137 285.215 177.724 285.215 176.869C285.215 176.25 284.745 175.883 284.044 175.883C283.166 175.883 282.761 176.381 282.761 177.142H283.513ZM286.159 176.954C286.159 176.644 286.39 176.527 286.638 176.527C286.902 176.527 287.062 176.63 287.062 176.907C287.062 177.152 286.888 177.264 286.54 177.264H286.394V177.813H286.559C286.935 177.813 287.156 177.931 287.156 178.245C287.156 178.489 286.996 178.635 286.658 178.635C286.239 178.635 286.066 178.433 286.066 178.057H285.314C285.314 178.837 285.797 179.278 286.714 179.278C287.433 179.278 287.954 178.93 287.954 178.292C287.954 177.893 287.79 177.62 287.391 177.494V177.484C287.654 177.348 287.86 177.128 287.86 176.776C287.86 176.203 287.306 175.883 286.7 175.883C285.868 175.883 285.408 176.334 285.408 176.954H286.159Z" fill="#CFD9F0"/>
<path d="M273.153 200.219C273.153 199.51 272.585 199.299 271.96 199.125V198.491C272.143 198.548 272.279 198.679 272.308 198.867H273.106C273.083 198.289 272.632 197.895 271.96 197.83V197.543H271.678V197.82C270.996 197.848 270.526 198.219 270.526 198.792C270.526 199.411 270.964 199.613 271.542 199.782C271.589 199.796 271.636 199.81 271.678 199.82V200.524C271.448 200.481 271.231 200.359 271.231 200.054H270.432C270.432 200.74 270.926 201.12 271.678 201.176V201.594H271.96V201.186C272.711 201.162 273.153 200.754 273.153 200.219ZM271.326 198.731C271.326 198.562 271.467 198.481 271.678 198.467V199.045C271.434 198.965 271.326 198.89 271.326 198.731ZM271.96 200.542V199.905C272.204 199.984 272.355 200.073 272.355 200.251C272.355 200.434 272.209 200.528 271.96 200.542ZM274.117 199.195V199.186C274.126 198.721 274.291 198.388 274.695 198.388C274.991 198.388 275.094 198.575 275.118 198.688H275.917C275.813 198.167 275.339 197.792 274.709 197.792C273.877 197.792 273.318 198.359 273.318 199.533C273.318 200.379 273.666 201.186 274.737 201.186C275.517 201.186 276.011 200.717 276.011 199.998C276.011 199.378 275.564 198.9 274.892 198.9C274.521 198.9 274.291 199.031 274.117 199.195ZM274.69 200.589C274.338 200.589 274.117 200.355 274.117 200.04C274.117 199.73 274.338 199.496 274.69 199.496C275.038 199.496 275.259 199.73 275.259 200.04C275.259 200.355 275.038 200.589 274.69 200.589ZM276.868 199.05C276.868 198.604 277.07 198.435 277.376 198.435C277.63 198.435 277.77 198.585 277.77 198.834C277.77 199.261 277.221 199.515 276.638 199.998C276.351 200.237 276.069 200.571 276.069 201.111H278.569V200.467H277.192V200.458C277.61 200.045 278.569 199.632 278.569 198.778C278.569 198.158 278.099 197.792 277.399 197.792C276.52 197.792 276.116 198.289 276.116 199.05H276.868ZM280.641 199.782V199.791C280.631 200.257 280.467 200.589 280.063 200.589C279.767 200.589 279.664 200.402 279.64 200.289H278.841C278.945 200.81 279.419 201.186 280.049 201.186C280.88 201.186 281.44 200.618 281.44 199.444C281.44 198.599 281.092 197.792 280.02 197.792C279.24 197.792 278.747 198.261 278.747 198.979C278.747 199.599 279.193 200.078 279.865 200.078C280.237 200.078 280.467 199.946 280.641 199.782ZM280.067 198.388C280.42 198.388 280.641 198.623 280.641 198.937C280.641 199.247 280.42 199.482 280.067 199.482C279.719 199.482 279.499 199.247 279.499 198.937C279.499 198.623 279.719 198.388 280.067 198.388ZM281.987 201.153C282.207 201.153 282.386 200.998 282.386 200.754C282.386 200.515 282.207 200.355 281.987 200.355C281.761 200.355 281.587 200.515 281.587 200.754C281.587 200.998 281.761 201.153 281.987 201.153ZM284.368 199.782V199.791C284.358 200.257 284.194 200.589 283.79 200.589C283.494 200.589 283.39 200.402 283.366 200.289H282.568C282.671 200.81 283.146 201.186 283.776 201.186C284.608 201.186 285.167 200.618 285.167 199.444C285.167 198.599 284.819 197.792 283.747 197.792C282.967 197.792 282.474 198.261 282.474 198.979C282.474 199.599 282.92 200.078 283.592 200.078C283.963 200.078 284.193 199.946 284.368 199.782ZM283.794 198.388C284.147 198.388 284.368 198.623 284.368 198.937C284.368 199.247 284.147 199.482 283.794 199.482C283.447 199.482 283.226 199.247 283.226 198.937C283.226 198.623 283.447 198.388 283.794 198.388ZM286.102 199.195V199.186C286.112 198.721 286.277 198.388 286.68 198.388C286.977 198.388 287.08 198.575 287.104 198.688H287.902C287.799 198.167 287.324 197.792 286.695 197.792C285.863 197.792 285.304 198.359 285.304 199.533C285.304 200.379 285.652 201.186 286.723 201.186C287.503 201.186 287.996 200.717 287.996 199.998C287.996 199.378 287.55 198.9 286.878 198.9C286.507 198.9 286.277 199.031 286.102 199.195ZM286.676 200.589C286.324 200.589 286.102 200.355 286.102 200.04C286.102 199.73 286.324 199.496 286.676 199.496C287.024 199.496 287.245 199.73 287.245 200.04C287.245 200.355 287.024 200.589 286.676 200.589Z" fill="#CFD9F0"/>
<path d="M133.995 166.092H118.33C117.465 166.092 116.764 166.792 116.764 167.657V167.657C116.764 168.521 117.465 169.222 118.33 169.222H133.995C134.861 169.222 135.562 168.521 135.562 167.657C135.562 166.792 134.861 166.092 133.995 166.092Z" fill="#ECF0F9"/>
<path d="M133.995 176.264H118.33C117.465 176.264 116.764 176.964 116.764 177.829V177.829C116.764 178.693 117.465 179.393 118.33 179.393H133.995C134.861 179.393 135.562 178.693 135.562 177.829C135.562 176.964 134.861 176.264 133.995 176.264Z" fill="#ECF0F9"/>
<path d="M133.995 186.436H118.33C117.465 186.436 116.764 187.136 116.764 188V188C116.764 188.865 117.465 189.565 118.33 189.565H133.995C134.861 189.565 135.562 188.865 135.562 188C135.562 187.136 134.861 186.436 133.995 186.436Z" fill="#ECF0F9"/>
<path d="M133.995 196.607H118.33C117.465 196.607 116.764 197.308 116.764 198.172V198.172C116.764 199.037 117.465 199.737 118.33 199.737H133.995C134.861 199.737 135.562 199.037 135.562 198.172V198.172C135.562 197.308 134.861 196.607 133.995 196.607Z" fill="#ECF0F9"/>
<path d="M107.364 170.787C109.094 170.787 110.497 169.386 110.497 167.657C110.497 165.929 109.094 164.527 107.364 164.527C105.634 164.527 104.231 165.929 104.231 167.657C104.231 169.386 105.634 170.787 107.364 170.787Z" fill="#ECF0F9"/>
<path d="M107.364 180.959C109.094 180.959 110.497 179.557 110.497 177.829C110.497 176.1 109.094 174.699 107.364 174.699C105.634 174.699 104.231 176.1 104.231 177.829C104.231 179.557 105.634 180.959 107.364 180.959Z" fill="#ECF0F9"/>
<path d="M107.364 191.131C109.094 191.131 110.497 189.729 110.497 188.001C110.497 186.272 109.094 184.871 107.364 184.871C105.634 184.871 104.231 186.272 104.231 188.001C104.231 189.729 105.634 191.131 107.364 191.131Z" fill="#ECF0F9"/>
<path d="M107.364 201.302C109.094 201.302 110.497 199.901 110.497 198.173C110.497 196.444 109.094 195.043 107.364 195.043C105.634 195.043 104.231 196.444 104.231 198.173C104.231 199.901 105.634 201.302 107.364 201.302Z" fill="#ECF0F9"/>
<path d="M104.365 124.166V130.044C104.365 130.476 104.716 130.826 105.148 130.826H111.032C111.465 130.826 111.816 130.476 111.816 130.044V124.166C111.816 123.734 111.465 123.384 111.032 123.384H105.148C104.716 123.384 104.365 123.734 104.365 124.166Z" fill="#ECF0F9"/>
<path d="M117.776 115.235V130.044C117.776 130.476 118.127 130.826 118.559 130.826H124.443C124.876 130.826 125.226 130.476 125.226 130.044V115.235C125.226 114.803 124.876 114.452 124.443 114.452H118.559C118.127 114.452 117.776 114.803 117.776 115.235Z" fill="#ECF0F9"/>
<path d="M131.187 101.838V130.044C131.187 130.476 131.538 130.826 131.971 130.826H137.855C138.287 130.826 138.638 130.476 138.638 130.044V101.838C138.638 101.406 138.287 101.056 137.855 101.056H131.971C131.538 101.056 131.187 101.406 131.187 101.838Z" fill="#ECF0F9"/>
<path d="M144.598 115.235V130.044C144.598 130.476 144.949 130.826 145.381 130.826H151.265C151.698 130.826 152.049 130.476 152.049 130.044V115.235C152.049 114.803 151.698 114.452 151.265 114.452H145.381C144.949 114.452 144.598 114.803 144.598 115.235Z" fill="#ECF0F9"/>
<path d="M158.009 118.956V130.044C158.009 130.476 158.36 130.826 158.792 130.826H164.676C165.109 130.826 165.46 130.476 165.46 130.044V118.956C165.46 118.524 165.109 118.174 164.676 118.174H158.792C158.36 118.174 158.009 118.524 158.009 118.956Z" fill="#ECF0F9"/>
<path d="M171.42 112.258V130.044C171.42 130.476 171.771 130.826 172.203 130.826H178.087C178.52 130.826 178.87 130.476 178.87 130.044V112.258C178.87 111.826 178.52 111.475 178.087 111.475H172.203C171.771 111.475 171.42 111.826 171.42 112.258Z" fill="#ECF0F9"/>
<path d="M184.831 107.048V130.044C184.831 130.476 185.181 130.826 185.614 130.826H191.498C191.931 130.826 192.281 130.476 192.281 130.044V107.048C192.281 106.616 191.931 106.266 191.498 106.266H185.614C185.181 106.266 184.831 106.616 184.831 107.048Z" fill="#ECF0F9"/>
<path d="M198.242 115.235V130.044C198.242 130.476 198.592 130.826 199.025 130.826H204.909C205.342 130.826 205.692 130.476 205.692 130.044V115.235C205.692 114.803 205.342 114.452 204.909 114.452H199.025C198.592 114.452 198.242 114.803 198.242 115.235Z" fill="#ECF0F9"/>
<path d="M211.653 118.956V130.044C211.653 130.476 212.004 130.826 212.436 130.826H218.32C218.753 130.826 219.104 130.476 219.104 130.044V118.956C219.104 118.524 218.753 118.174 218.32 118.174H212.436C212.004 118.174 211.653 118.524 211.653 118.956Z" fill="#ECF0F9"/>
<path d="M225.064 116.723V130.044C225.064 130.476 225.415 130.826 225.847 130.826H231.731C232.164 130.826 232.515 130.476 232.515 130.044V116.723C232.515 116.291 232.164 115.941 231.731 115.941H225.847C225.415 115.941 225.064 116.291 225.064 116.723Z" fill="#ECF0F9"/>
<path d="M238.475 107.048V130.044C238.475 130.476 238.826 130.826 239.258 130.826H245.142C245.575 130.826 245.925 130.476 245.925 130.044V107.048C245.925 106.616 245.575 106.266 245.142 106.266H239.258C238.826 106.266 238.475 106.616 238.475 107.048Z" fill="#ECF0F9"/>
<path d="M251.886 111.514V130.044C251.886 130.476 252.236 130.826 252.669 130.826H258.553C258.986 130.826 259.336 130.476 259.336 130.044V111.514C259.336 111.081 258.986 110.731 258.553 110.731H252.669C252.236 110.731 251.886 111.081 251.886 111.514Z" fill="#ECF0F9"/>
<path d="M265.297 107.048V130.044C265.297 130.476 265.647 130.826 266.08 130.826H271.964C272.396 130.826 272.747 130.476 272.747 130.044V107.048C272.747 106.616 272.396 106.266 271.964 106.266H266.08C265.647 106.266 265.297 106.616 265.297 107.048Z" fill="#ECF0F9"/>
<path d="M278.708 115.235V130.044C278.708 130.476 279.058 130.826 279.491 130.826H285.375C285.807 130.826 286.158 130.476 286.158 130.044V115.235C286.158 114.803 285.807 114.452 285.375 114.452H279.491C279.058 114.452 278.708 114.803 278.708 115.235Z" fill="#ECF0F9"/>
<path d="M104.365 92.0312H288.393" stroke="#ECF0F9" stroke-width="0.186417"/>
<path d="M104.365 80.123H288.393" stroke="#ECF0F9" stroke-width="0.186417"/>
<path d="M104.365 68.2148H288.393" stroke="#ECF0F9" stroke-width="0.186417"/>
<path d="M104.365 56.3066H288.393" stroke="#ECF0F9" stroke-width="0.186417"/>
<path d="M104.365 44.3984H288.393" stroke="#ECF0F9" stroke-width="0.186417"/>
<path d="M110.325 81.7048C111.041 76.0678 116.676 71.7004 122.325 71.7004C130.572 71.7004 134.998 81.5068 142.992 81.5068C151.917 81.5068 157.628 69.2559 166.643 69.2559C174.814 69.2559 180.191 79.4832 188.054 79.4832C198.831 79.4832 201.173 61.7715 211.801 61.7715C219.902 61.7715 223.936 73.4255 231.809 73.4255C242.15 73.4255 243.569 54.9877 253.834 54.9877C260.37 54.9877 262.46 63.6065 269.444 63.6065C278.974 63.6065 281.87 52.2384 283.178 47.4688" stroke="#CFD9F0" stroke-width="0.745668" stroke-linecap="round"/>
<path opacity="0.54" d="M20.9804 19.7312V20.622H19.207V25.0273H18.0996V20.622H16.3182V19.7312H20.9804ZM21.4298 25.0273V21.0151H22.3847L22.4569 21.8015C22.5639 21.5234 22.719 21.3094 22.9223 21.1596C23.131 21.0098 23.3904 20.9349 23.7007 20.9349C23.7916 20.9349 23.8746 20.9429 23.9494 20.959C24.0243 20.975 24.0859 20.9964 24.134 21.0232L24.0056 21.946C23.9521 21.9246 23.8853 21.9085 23.805 21.8978C23.7301 21.8871 23.6311 21.8818 23.5081 21.8818C23.3476 21.8818 23.1925 21.9219 23.0427 22.0021C22.8929 22.077 22.7699 22.1947 22.6736 22.3552C22.5773 22.5104 22.5291 22.7083 22.5291 22.949V25.0273H21.4298ZM26.3932 25.1076C26.1257 25.1076 25.885 25.0594 25.671 24.9631C25.457 24.8669 25.2858 24.7144 25.1575 24.5058C25.0344 24.2918 24.9729 24.0163 24.9729 23.6792V21.0151H26.0722V23.4144C26.0722 23.7247 26.1364 23.9414 26.2648 24.0644C26.3932 24.1821 26.5778 24.241 26.8185 24.241C26.9308 24.241 27.0405 24.2222 27.1475 24.1848C27.2545 24.142 27.3481 24.0778 27.4284 23.9922C27.514 23.9066 27.5808 23.7969 27.629 23.6632C27.6771 23.5241 27.7012 23.3609 27.7012 23.1737V21.0151H28.8005V25.0273H27.8216L27.7814 24.3292C27.6477 24.5967 27.4631 24.7946 27.2278 24.923C26.9977 25.0461 26.7195 25.1076 26.3932 25.1076ZM31.9287 19.1776C32.1159 19.1776 32.2844 19.199 32.4342 19.2418C32.5894 19.2792 32.7044 19.3273 32.7793 19.3862L32.6268 20.1164C32.568 20.079 32.5011 20.0495 32.4262 20.0281C32.3513 20.0067 32.263 19.996 32.1614 19.996C31.9528 19.996 31.7869 20.0442 31.6639 20.1405C31.5408 20.2314 31.4793 20.3892 31.4793 20.6139V21.1676L31.5275 21.3843V25.0273H30.4281V20.5337C30.4281 20.309 30.4656 20.1111 30.5405 19.9399C30.6154 19.7687 30.7197 19.6269 30.8534 19.5146C30.9872 19.4022 31.145 19.3193 31.3269 19.2658C31.5141 19.207 31.7147 19.1776 31.9287 19.1776ZM32.7472 21.0151V21.8336H29.73V21.0151H32.7472ZM34.4885 19.2578V23.7916C34.4885 23.9788 34.5206 24.1099 34.5848 24.1848C34.649 24.2597 34.756 24.2971 34.9057 24.2971C34.9967 24.2971 35.0716 24.2918 35.1304 24.2811C35.1893 24.265 35.2642 24.2436 35.3551 24.2169L35.2588 24.9391C35.1679 24.9926 35.0529 25.0327 34.9138 25.0594C34.78 25.0915 34.6463 25.1076 34.5126 25.1076C34.122 25.1076 33.8358 25.014 33.6539 24.8267C33.4774 24.6341 33.3891 24.3292 33.3891 23.912V19.2578H34.4885ZM38.4697 22.4676C38.4697 22.2375 38.4028 22.0583 38.2691 21.9299C38.1407 21.8015 37.9695 21.7373 37.7555 21.7373C37.5576 21.7373 37.3837 21.7882 37.2339 21.8898C37.0841 21.9914 36.9745 22.16 36.9049 22.3953L35.9661 22.1065C36.057 21.7534 36.2549 21.4699 36.5599 21.2559C36.8701 21.0419 37.2847 20.9349 37.8036 20.9349C38.1567 20.9349 38.4643 20.9911 38.7264 21.1034C38.9886 21.2104 39.1919 21.3736 39.3363 21.5929C39.4861 21.8122 39.561 22.0877 39.561 22.4194V24.0484C39.561 24.2517 39.6573 24.3533 39.8499 24.3533C39.9408 24.3533 40.0264 24.3399 40.1066 24.3132L40.0425 24.9952C39.9034 25.0648 39.7295 25.0996 39.5209 25.0996C39.3336 25.0996 39.1651 25.0675 39.0153 25.0033C38.8655 24.9391 38.7478 24.8428 38.6623 24.7144C38.5767 24.5807 38.5339 24.4148 38.5339 24.2169V24.1848L38.7264 24.1527C38.6944 24.356 38.6061 24.5298 38.4616 24.6743C38.3172 24.8134 38.1407 24.9204 37.932 24.9952C37.7287 25.0701 37.5174 25.1076 37.2981 25.1076C37.0253 25.1076 36.7899 25.0675 36.592 24.9872C36.394 24.9016 36.2416 24.7786 36.1346 24.6181C36.0276 24.4576 35.9741 24.2597 35.9741 24.0243C35.9741 23.7247 36.0704 23.4813 36.263 23.2941C36.4555 23.1015 36.731 22.9704 37.0895 22.9009L38.5981 22.596L38.59 23.278L37.6271 23.4706C37.4452 23.5081 37.3061 23.5589 37.2098 23.6231C37.1189 23.6819 37.0734 23.7809 37.0734 23.92C37.0734 24.0537 37.1216 24.1554 37.2179 24.2249C37.3195 24.2944 37.4399 24.3292 37.579 24.3292C37.6913 24.3292 37.801 24.3158 37.908 24.2891C38.015 24.2624 38.1112 24.2196 38.1968 24.1607C38.2824 24.1019 38.3493 24.0216 38.3974 23.92C38.4456 23.8183 38.4697 23.6953 38.4697 23.5509V22.4676ZM42.236 19.7874V23.7194C42.236 23.912 42.2841 24.0537 42.3804 24.1447C42.482 24.2303 42.6185 24.2731 42.7896 24.2731C42.9234 24.2731 43.0411 24.2543 43.1427 24.2169C43.2444 24.1741 43.3353 24.1179 43.4155 24.0484L43.5921 24.7786C43.4637 24.8802 43.3032 24.9605 43.1106 25.0193C42.918 25.0782 42.7147 25.1076 42.5008 25.1076C42.2333 25.1076 41.9952 25.0675 41.7866 24.9872C41.5833 24.907 41.4228 24.7786 41.3051 24.6021C41.1928 24.4255 41.1366 24.1901 41.1366 23.8959V20.0923L42.236 19.7874ZM43.5199 21.0151V21.8336H40.3984V21.0151H43.5199ZM44.9992 20.4374C44.7692 20.4374 44.598 20.3892 44.4856 20.2929C44.3733 20.1913 44.3171 20.0442 44.3171 19.8516C44.3171 19.6537 44.3733 19.5066 44.4856 19.4103C44.598 19.3086 44.7692 19.2578 44.9992 19.2578C45.2292 19.2578 45.4004 19.3086 45.5128 19.4103C45.6251 19.5066 45.6813 19.6537 45.6813 19.8516C45.6813 20.0442 45.6251 20.1913 45.5128 20.2929C45.4004 20.3892 45.2292 20.4374 44.9992 20.4374ZM45.5449 21.0151V25.0273H44.4455V21.0151H45.5449ZM48.7217 20.9349C49.1282 20.9349 49.484 21.0178 49.7889 21.1837C50.0992 21.3495 50.3399 21.5876 50.5111 21.8978C50.6876 22.2081 50.7759 22.5826 50.7759 23.0212C50.7759 23.4546 50.6876 23.829 50.5111 24.1447C50.3399 24.4549 50.0992 24.693 49.7889 24.8588C49.484 25.0247 49.1282 25.1076 48.7217 25.1076C48.3204 25.1076 47.9647 25.0247 47.6544 24.8588C47.3441 24.693 47.1007 24.4549 46.9242 24.1447C46.753 23.829 46.6674 23.4546 46.6674 23.0212C46.6674 22.5826 46.753 22.2081 46.9242 21.8978C47.1007 21.5876 47.3441 21.3495 47.6544 21.1837C47.9647 21.0178 48.3204 20.9349 48.7217 20.9349ZM48.7217 21.7534C48.5184 21.7534 48.3445 21.8015 48.2001 21.8978C48.061 21.9888 47.954 22.1279 47.8791 22.3151C47.8042 22.5023 47.7668 22.7377 47.7668 23.0212C47.7668 23.3048 47.8042 23.5402 47.8791 23.7274C47.954 23.9146 48.061 24.0564 48.2001 24.1527C48.3445 24.2436 48.5184 24.2891 48.7217 24.2891C48.9196 24.2891 49.0881 24.2436 49.2272 24.1527C49.3716 24.0564 49.4813 23.9146 49.5562 23.7274C49.6311 23.5402 49.6685 23.3048 49.6685 23.0212C49.6685 22.7377 49.6311 22.5023 49.5562 22.3151C49.4813 22.1279 49.3716 21.9888 49.2272 21.8978C49.0881 21.8015 48.9196 21.7534 48.7217 21.7534ZM51.8777 25.0273V21.0151H52.8647L52.9289 22.2188L52.7924 22.0904C52.8566 21.8283 52.9583 21.6116 53.0974 21.4404C53.2365 21.2693 53.405 21.1435 53.6029 21.0633C53.8062 20.9777 54.0282 20.9349 54.2689 20.9349C54.5471 20.9349 54.7932 20.9884 55.0072 21.0954C55.2265 21.2024 55.3977 21.3655 55.5207 21.5849C55.6491 21.7989 55.7133 22.069 55.7133 22.3953V25.0273H54.614V22.7083C54.614 22.3659 54.5471 22.1305 54.4134 22.0021C54.2796 21.8684 54.1058 21.8015 53.8918 21.8015C53.742 21.8015 53.5949 21.839 53.4504 21.9139C53.3114 21.9834 53.1963 22.0984 53.1054 22.2589C53.0198 22.4194 52.977 22.6334 52.977 22.9009V25.0273H51.8777ZM61.821 19.7312C62.6502 19.7312 63.2921 19.9613 63.7469 20.4213C64.2016 20.8761 64.4289 21.5287 64.4289 22.3793C64.4289 23.2245 64.2016 23.8772 63.7469 24.3372C63.2921 24.7973 62.6502 25.0273 61.821 25.0273H59.7748V19.7312H61.821ZM61.7648 24.1447C62.2677 24.1447 62.6448 23.9949 62.8963 23.6953C63.1531 23.3904 63.2814 22.9517 63.2814 22.3793C63.2814 21.8069 63.1531 21.3709 62.8963 21.0713C62.6448 20.7664 62.2677 20.6139 61.7648 20.6139H60.8821V24.1447H61.7648ZM67.8675 22.4676C67.8675 22.2375 67.8006 22.0583 67.6669 21.9299C67.5385 21.8015 67.3673 21.7373 67.1533 21.7373C66.9554 21.7373 66.7815 21.7882 66.6317 21.8898C66.4819 21.9914 66.3723 22.16 66.3027 22.3953L65.3639 22.1065C65.4548 21.7534 65.6527 21.4699 65.9577 21.2559C66.2679 21.0419 66.6825 20.9349 67.2014 20.9349C67.5545 20.9349 67.8621 20.9911 68.1243 21.1034C68.3864 21.2104 68.5897 21.3736 68.7341 21.5929C68.8839 21.8122 68.9588 22.0877 68.9588 22.4194V24.0484C68.9588 24.2517 69.0551 24.3533 69.2477 24.3533C69.3386 24.3533 69.4242 24.3399 69.5044 24.3132L69.4403 24.9952C69.3012 25.0648 69.1273 25.0996 68.9187 25.0996C68.7314 25.0996 68.5629 25.0675 68.4131 25.0033C68.2633 24.9391 68.1457 24.8428 68.0601 24.7144C67.9745 24.5807 67.9317 24.4148 67.9317 24.2169V24.1848L68.1243 24.1527C68.0922 24.356 68.0039 24.5298 67.8594 24.6743C67.715 24.8134 67.5385 24.9204 67.3298 24.9952C67.1266 25.0701 66.9152 25.1076 66.6959 25.1076C66.4231 25.1076 66.1877 25.0675 65.9898 24.9872C65.7918 24.9016 65.6394 24.7786 65.5324 24.6181C65.4254 24.4576 65.3719 24.2597 65.3719 24.0243C65.3719 23.7247 65.4682 23.4813 65.6608 23.2941C65.8533 23.1015 66.1289 22.9704 66.4873 22.9009L67.9959 22.596L67.9878 23.278L67.0249 23.4706C66.843 23.5081 66.7039 23.5589 66.6076 23.6231C66.5167 23.6819 66.4712 23.7809 66.4712 23.92C66.4712 24.0537 66.5194 24.1554 66.6157 24.2249C66.7173 24.2944 66.8377 24.3292 66.9768 24.3292C67.0891 24.3292 67.1988 24.3158 67.3058 24.2891C67.4128 24.2624 67.509 24.2196 67.5946 24.1607C67.6802 24.1019 67.7471 24.0216 67.7953 23.92C67.8434 23.8183 67.8675 23.6953 67.8675 23.5509V22.4676ZM71.975 25.1076C71.5685 25.1076 71.1967 25.0354 70.8597 24.8909C70.528 24.7465 70.2578 24.5432 70.0492 24.2811L70.6831 23.6391C70.8115 23.8317 70.9827 23.9895 71.1967 24.1126C71.4107 24.2356 71.6648 24.2971 71.959 24.2971C72.1676 24.2971 72.3335 24.2677 72.4565 24.2089C72.5849 24.1447 72.6491 24.0457 72.6491 23.912C72.6491 23.8264 72.6197 23.7541 72.5608 23.6953C72.502 23.6311 72.3843 23.5803 72.2078 23.5428L71.5016 23.3984C71.0362 23.3021 70.7045 23.1577 70.5066 22.9651C70.314 22.7671 70.2177 22.513 70.2177 22.2028C70.2177 21.9834 70.2819 21.7775 70.4103 21.5849C70.544 21.3923 70.742 21.2372 71.0041 21.1195C71.2662 20.9964 71.5926 20.9349 71.9831 20.9349C72.3843 20.9349 72.732 20.9991 73.0262 21.1275C73.3258 21.2505 73.5612 21.4351 73.7324 21.6812L73.0744 22.3231C72.9567 22.1359 72.8016 21.9941 72.609 21.8978C72.4217 21.7962 72.2238 21.7454 72.0152 21.7454C71.8654 21.7454 71.737 21.7614 71.63 21.7935C71.523 21.8256 71.4428 21.8711 71.3893 21.9299C71.3358 21.9834 71.309 22.053 71.309 22.1386C71.309 22.2242 71.3465 22.299 71.4214 22.3632C71.4963 22.4221 71.6327 22.4729 71.8306 22.5157L72.6491 22.6842C73.045 22.7645 73.3285 22.9009 73.4997 23.0935C73.6709 23.2807 73.7565 23.5081 73.7565 23.7755C73.7565 24.0323 73.6869 24.2624 73.5478 24.4656C73.4141 24.6636 73.2135 24.8214 72.946 24.9391C72.6839 25.0514 72.3602 25.1076 71.975 25.1076ZM74.815 25.0273V19.2578H75.9144V21.6972C76.0428 21.4404 76.2193 21.2505 76.444 21.1275C76.6687 20.9991 76.9228 20.9349 77.2063 20.9349C77.4845 20.9349 77.7305 20.9884 77.9445 21.0954C78.1639 21.2024 78.3351 21.3655 78.4581 21.5849C78.5865 21.7989 78.6507 22.069 78.6507 22.3953V25.0273H77.5513V22.7163C77.5513 22.3686 77.4845 22.1305 77.3507 22.0021C77.217 21.8684 77.0458 21.8015 76.8372 21.8015C76.682 21.8015 76.5322 21.839 76.3878 21.9139C76.2487 21.9834 76.1337 22.1011 76.0428 22.267C75.9572 22.4274 75.9144 22.6414 75.9144 22.9089V25.0273H74.815ZM82.3243 25.1076C82.0782 25.1076 81.8536 25.0568 81.6503 24.9551C81.4523 24.8481 81.2865 24.7037 81.1528 24.5218C81.0244 24.3346 80.9361 24.1259 80.8879 23.8959L81.0003 23.7515L80.9361 25.0273H79.9651V19.2578H81.0645V22.1466L80.9602 21.9781C81.0458 21.6785 81.2089 21.4297 81.4497 21.2318C81.6904 21.0339 81.9926 20.9349 82.3564 20.9349C82.672 20.9349 82.9582 21.0178 83.215 21.1837C83.4718 21.3495 83.6724 21.5876 83.8169 21.8978C83.9666 22.2081 84.0415 22.5853 84.0415 23.0293C84.0415 23.4626 83.9666 23.8344 83.8169 24.1447C83.6724 24.4549 83.4691 24.693 83.207 24.8588C82.9502 25.0247 82.656 25.1076 82.3243 25.1076ZM81.9953 24.265C82.2895 24.265 82.5196 24.1607 82.6854 23.9521C82.8566 23.7381 82.9422 23.4278 82.9422 23.0212C82.9422 22.6147 82.8593 22.3071 82.6934 22.0984C82.5276 21.8845 82.2976 21.7775 82.0033 21.7775C81.8108 21.7775 81.6449 21.8283 81.5058 21.9299C81.3667 22.0316 81.2571 22.176 81.1768 22.3632C81.1019 22.5505 81.0645 22.7725 81.0645 23.0293C81.0645 23.2914 81.1019 23.5161 81.1768 23.7033C81.2571 23.8852 81.3667 24.0243 81.5058 24.1206C81.6503 24.2169 81.8134 24.265 81.9953 24.265ZM87.0075 20.9349C87.4141 20.9349 87.7698 21.0178 88.0748 21.1837C88.385 21.3495 88.6258 21.5876 88.797 21.8978C88.9735 22.2081 89.0618 22.5826 89.0618 23.0212C89.0618 23.4546 88.9735 23.829 88.797 24.1447C88.6258 24.4549 88.385 24.693 88.0748 24.8588C87.7698 25.0247 87.4141 25.1076 87.0075 25.1076C86.6063 25.1076 86.2505 25.0247 85.9403 24.8588C85.63 24.693 85.3866 24.4549 85.2101 24.1447C85.0389 23.829 84.9533 23.4546 84.9533 23.0212C84.9533 22.5826 85.0389 22.2081 85.2101 21.8978C85.3866 21.5876 85.63 21.3495 85.9403 21.1837C86.2505 21.0178 86.6063 20.9349 87.0075 20.9349ZM87.0075 21.7534C86.8042 21.7534 86.6304 21.8015 86.4859 21.8978C86.3468 21.9888 86.2398 22.1279 86.165 22.3151C86.0901 22.5023 86.0526 22.7377 86.0526 23.0212C86.0526 23.3048 86.0901 23.5402 86.165 23.7274C86.2398 23.9146 86.3468 24.0564 86.4859 24.1527C86.6304 24.2436 86.8042 24.2891 87.0075 24.2891C87.2055 24.2891 87.374 24.2436 87.5131 24.1527C87.6575 24.0564 87.7672 23.9146 87.8421 23.7274C87.9169 23.5402 87.9544 23.3048 87.9544 23.0212C87.9544 22.7377 87.9169 22.5023 87.8421 22.3151C87.7672 22.1279 87.6575 21.9888 87.5131 21.8978C87.374 21.8015 87.2055 21.7534 87.0075 21.7534ZM92.427 22.4676C92.427 22.2375 92.3601 22.0583 92.2263 21.9299C92.0979 21.8015 91.9268 21.7373 91.7128 21.7373C91.5148 21.7373 91.341 21.7882 91.1912 21.8898C91.0414 21.9914 90.9317 22.16 90.8622 22.3953L89.9233 22.1065C90.0143 21.7534 90.2122 21.4699 90.5171 21.2559C90.8274 21.0419 91.242 20.9349 91.7609 20.9349C92.114 20.9349 92.4216 20.9911 92.6837 21.1034C92.9459 21.2104 93.1491 21.3736 93.2936 21.5929C93.4434 21.8122 93.5183 22.0877 93.5183 22.4194V24.0484C93.5183 24.2517 93.6146 24.3533 93.8071 24.3533C93.8981 24.3533 93.9837 24.3399 94.0639 24.3132L93.9997 24.9952C93.8606 25.0648 93.6868 25.0996 93.4781 25.0996C93.2909 25.0996 93.1224 25.0675 92.9726 25.0033C92.8228 24.9391 92.7051 24.8428 92.6195 24.7144C92.5339 24.5807 92.4911 24.4148 92.4911 24.2169V24.1848L92.6837 24.1527C92.6516 24.356 92.5634 24.5298 92.4189 24.6743C92.2745 24.8134 92.0979 24.9204 91.8893 24.9952C91.686 25.0701 91.4747 25.1076 91.2554 25.1076C90.9826 25.1076 90.7472 25.0675 90.5492 24.9872C90.3513 24.9016 90.1988 24.7786 90.0919 24.6181C89.9849 24.4576 89.9314 24.2597 89.9314 24.0243C89.9314 23.7247 90.0277 23.4813 90.2202 23.2941C90.4128 23.1015 90.6883 22.9704 91.0468 22.9009L92.5553 22.596L92.5473 23.278L91.5844 23.4706C91.4025 23.5081 91.2634 23.5589 91.1671 23.6231C91.0762 23.6819 91.0307 23.7809 91.0307 23.92C91.0307 24.0537 91.0789 24.1554 91.1751 24.2249C91.2768 24.2944 91.3972 24.3292 91.5362 24.3292C91.6486 24.3292 91.7583 24.3158 91.8652 24.2891C91.9722 24.2624 92.0685 24.2196 92.1541 24.1607C92.2397 24.1019 92.3066 24.0216 92.3547 23.92C92.4029 23.8183 92.427 23.6953 92.427 23.5509V22.4676ZM94.9296 25.0273V21.0151H95.8846L95.9568 21.8015C96.0638 21.5234 96.2189 21.3094 96.4222 21.1596C96.6308 21.0098 96.8903 20.9349 97.2006 20.9349C97.2915 20.9349 97.3744 20.9429 97.4493 20.959C97.5242 20.975 97.5857 20.9964 97.6339 21.0232L97.5055 21.946C97.452 21.9246 97.3851 21.9085 97.3049 21.8978C97.23 21.8871 97.131 21.8818 97.008 21.8818C96.8475 21.8818 96.6923 21.9219 96.5426 22.0021C96.3928 22.077 96.2697 22.1947 96.1734 22.3552C96.0771 22.5104 96.029 22.7083 96.029 22.949V25.0273H94.9296ZM99.9351 25.1076C99.6034 25.1076 99.3065 25.0247 99.0444 24.8588C98.7876 24.693 98.5843 24.4549 98.4345 24.1447C98.2901 23.8344 98.2179 23.4626 98.2179 23.0293C98.2179 22.5853 98.2954 22.2081 98.4506 21.8978C98.6057 21.5822 98.8143 21.3441 99.0765 21.1837C99.344 21.0178 99.6435 20.9349 99.9752 20.9349C100.328 20.9349 100.62 21.0365 100.85 21.2398C101.08 21.4431 101.23 21.7052 101.299 22.0262L101.195 22.1546V19.2578H102.294V25.0273H101.307L101.235 23.8076L101.371 23.8718C101.334 24.1233 101.248 24.3426 101.115 24.5298C100.981 24.7117 100.812 24.8535 100.609 24.9551C100.406 25.0568 100.181 25.1076 99.9351 25.1076ZM100.256 24.265C100.449 24.265 100.614 24.2169 100.754 24.1206C100.893 24.0189 101 23.8718 101.075 23.6792C101.155 23.4867 101.195 23.2566 101.195 22.9891C101.195 22.7324 101.157 22.5157 101.083 22.3392C101.008 22.1573 100.901 22.0182 100.762 21.9219C100.623 21.8256 100.459 21.7775 100.272 21.7775C99.9725 21.7775 99.7371 21.8845 99.566 22.0984C99.4001 22.3071 99.3172 22.6147 99.3172 23.0212C99.3172 23.4278 99.4001 23.7381 99.566 23.9521C99.7318 24.1607 99.9618 24.265 100.256 24.265Z" fill="black"/>
<defs>
<filter id="filter0_i_1315_12433" x="0.0576172" y="1" width="309.388" height="227.632" filterUnits="userSpaceOnUse" color-interpolation-filters="sRGB">
<feFlood flood-opacity="0" result="BackgroundImageFix"/>
<feBlend mode="normal" in="SourceGraphic" in2="BackgroundImageFix" result="shape"/>
<feColorMatrix in="SourceAlpha" type="matrix" values="0 0 0 0 0 0 0 0 0 0 0 0 0 0 0 0 0 0 127 0" result="hardAlpha"/>
<feOffset dy="0.727564"/>
<feGaussianBlur stdDeviation="0.363782"/>
<feComposite in2="hardAlpha" operator="arithmetic" k2="-1" k3="1"/>
<feColorMatrix type="matrix" values="0 0 0 0 1 0 0 0 0 1 0 0 0 0 1 0 0 0 0.1 0"/>
<feBlend mode="normal" in2="shape" result="effect1_innerShadow_1315_12433"/>
</filter>
<linearGradient id="paint0_linear_1315_12433" x1="154.752" y1="1" x2="154.752" y2="227.905" gradientUnits="userSpaceOnUse">
<stop stop-color="white" stop-opacity="0.4"/>
<stop offset="0.25" stop-color="white" stop-opacity="0.3"/>
<stop offset="0.5" stop-color="#F6F9FC" stop-opacity="0.3"/>
<stop offset="0.6" stop-color="#F6F9FC"/>
</linearGradient>
</defs>
</svg>
