<svg width="30" height="21" viewBox="0 0 30 21" fill="none" xmlns="http://www.w3.org/2000/svg">
<g clip-path="url(#clip0_1720_11110)">
<path d="M1.55978 21H28.4402C29.3043 20.9508 30 20.2234 30 19.343V1.65703C30 0.749219 29.2663 0.00546875 28.3641 0H1.63587C0.733696 0.00546875 0 0.749219 0 1.65703V19.3375C0 20.2234 0.695652 20.9508 1.55978 21Z" fill="#FEFEFE"/>
<path d="M12.9022 12.5945V21H17.0761V12.5945H30V8.39453H17.0761V0H12.9022V8.39453H0V12.5945H12.9022Z" fill="#C8102E"/>
<path d="M18.4674 6.79766V0H28.375C29.0598 0.0109375 29.6468 0.442969 29.8859 1.05L18.4674 6.79766Z" fill="#012169"/>
<path d="M18.4674 14.2024V21H28.4402C29.0978 20.9618 29.6522 20.5352 29.8859 19.95L18.4674 14.2024Z" fill="#012169"/>
<path d="M11.5109 14.2024V21H1.55979C0.902179 20.9618 0.342397 20.5352 0.114136 19.9391L11.5109 14.2024Z" fill="#012169"/>
<path d="M11.5109 6.79766V0H1.62501C0.940223 0.0109375 0.347831 0.448438 0.114136 1.06094L11.5109 6.79766Z" fill="#012169"/>
<path d="M0 7.00005H4.15761L0 4.90552V7.00005Z" fill="#012169"/>
<path d="M30 7H25.8207L30 4.89453V7Z" fill="#012169"/>
<path d="M30 14H25.8207L30 16.1055V14Z" fill="#012169"/>
<path d="M0 14H4.15761L0 16.0945V14Z" fill="#012169"/>
<path d="M30 1.77734L19.6467 7H21.9619L30 2.95312V1.77734Z" fill="#C8102E"/>
<path d="M10.3315 14H8.0163L0 18.0359V19.2117L10.3533 14H10.3315Z" fill="#C8102E"/>
<path d="M5.71739 7.00537H8.03261L0 2.9585V4.12881L5.71739 7.00537Z" fill="#C8102E"/>
<path d="M24.2554 13.9946H21.9402L30 18.0579V16.8876L24.2554 13.9946Z" fill="#C8102E"/>
</g>
<defs>
<clipPath id="clip0_1720_11110">
<rect width="30" height="21" rx="2" fill="white"/>
</clipPath>
</defs>
</svg>
