<svg width="31" height="22" viewBox="0 0 31 22" fill="none" xmlns="http://www.w3.org/2000/svg">
<path d="M0.0705566 21.5H30.0706V19.883H0.0705566V21.5ZM30.0706 18.2695V16.6539H0.0705566V18.2695H30.0706ZM30.0706 15.039V13.4227H0.0705566V15.0383L30.0706 15.039ZM30.0706 11.8085V10.1922H0.0705566V11.8078L30.0706 11.8085ZM30.0706 8.578V6.9617H0.0705566V8.5773L30.0706 8.578ZM30.0706 5.3475V3.7305H0.0705566V5.3461L30.0706 5.3475ZM30.0706 2.117V0.5H0.0705566V2.1156L30.0706 2.117Z" fill="#B22234"/>
<path d="M0.0705566 2.11475H30.0706V3.73035H0.0705566V2.11475ZM30.0706 6.96085H0.0705566V5.34524H30.0706V6.96085ZM0.0705566 8.57645H30.0706V10.192H0.0705566V8.57645ZM30.0706 13.4225H0.0705566V11.8069H30.0706V13.4225ZM0.0705566 15.0381H30.0706V16.6537H0.0705566V15.0381ZM30.0706 19.8842H0.0705566V18.2686H30.0706V19.8842Z" fill="white"/>
<path d="M15.0706 0.5H0.0705566V11.8078H15.0706V0.5Z" fill="#3C3B6E"/>
<path d="M1.32136 0.984619L1.67859 2.15362L0.744385 1.43122H1.89965L0.964121 2.15362L1.32136 0.984619Z" fill="white"/>
<path d="M1.32136 3.24634L1.67859 4.41534L0.744385 3.69294H1.89965L0.964779 4.41534L1.32136 3.24634Z" fill="white"/>
<path d="M1.32136 5.50781L1.67859 6.6768L0.744385 5.95441H1.89965L0.964779 6.6768L1.32136 5.50781Z" fill="white"/>
<path d="M1.32136 7.76929L1.67859 8.9383L0.744385 8.21589H1.89965L0.964779 8.9383L1.32136 7.76929Z" fill="white"/>
<path d="M1.32136 10.0308L1.67859 11.1997L0.744385 10.4774H1.89965L0.964779 11.1997L1.32136 10.0308Z" fill="white"/>
<path d="M2.57007 2.11475L2.9273 3.28374L1.99243 2.56135H3.15033L2.21546 3.28374L2.57007 2.11475Z" fill="white"/>
<path d="M2.57007 4.37622L2.9273 5.54523L1.99243 4.82282H3.15033L2.21546 5.54523L2.57007 4.37622Z" fill="white"/>
<path d="M2.57007 6.6377L2.9273 7.80668L1.99243 7.08568H3.15033L2.21546 7.80809L2.57007 6.6377Z" fill="white"/>
<path d="M2.57007 8.89917L2.9273 10.0682L1.99243 9.34577H3.15033L2.21546 10.0682L2.57007 8.89917Z" fill="white"/>
<path d="M3.82079 0.984619L4.17803 2.15362L3.24316 1.43122H4.39843L3.46355 2.15362L3.82079 0.984619Z" fill="white"/>
<path d="M3.82079 3.24609L4.17803 4.41509L3.24316 3.69269H4.39843L3.46355 4.41509L3.82079 3.24609Z" fill="white"/>
<path d="M3.82079 5.50806L4.17803 6.67704L3.24316 5.95466H4.39843L3.46355 6.67704L3.82079 5.50806Z" fill="white"/>
<path d="M3.82079 7.76929L4.17803 8.9383L3.24316 8.21589H4.39843L3.46355 8.9383L3.82079 7.76929Z" fill="white"/>
<path d="M3.82079 10.0308L4.17803 11.1997L3.24316 10.4774H4.39843L3.46355 11.1997L3.82079 10.0308Z" fill="white"/>
<path d="M5.06988 2.11475L5.42712 3.28374L4.49292 2.56135H5.64817L4.71594 3.28374L5.06988 2.11475Z" fill="white"/>
<path d="M5.06988 4.37622L5.42712 5.54523L4.49292 4.82282H5.64817L4.71594 5.54523L5.06988 4.37622Z" fill="white"/>
<path d="M5.06988 6.6377L5.42712 7.80668L4.49292 7.0843H5.64817L4.71594 7.80668L5.06988 6.6377Z" fill="white"/>
<path d="M5.06988 8.89917L5.42712 10.0682L4.49292 9.34577H5.64817L4.71594 10.0682L5.06988 8.89917Z" fill="white"/>
<path d="M6.32234 0.984619L6.67958 2.15362L5.74536 1.43122H6.90063L5.96577 2.15362L6.32234 0.984619Z" fill="white"/>
<path d="M6.32234 3.24634L6.67958 4.41534L5.74536 3.69294H6.90063L5.96577 4.41534L6.32234 3.24634Z" fill="white"/>
<path d="M6.32234 5.50781L6.67958 6.6768L5.74536 5.95441H6.90063L5.96577 6.6768L6.32234 5.50781Z" fill="white"/>
<path d="M6.32234 7.76929L6.67958 8.9383L5.74536 8.21589H6.90063L5.96577 8.9383L6.32234 7.76929Z" fill="white"/>
<path d="M6.32234 10.0308L6.67958 11.1997L5.74536 10.4774H6.90063L5.96577 11.1997L6.32234 10.0308Z" fill="white"/>
<path d="M7.57039 2.11475L7.92763 3.28374L6.99341 2.56135H8.14868L7.2138 3.28374L7.57039 2.11475Z" fill="white"/>
<path d="M7.57039 4.37622L7.92763 5.54523L6.99341 4.82282H8.14868L7.2138 5.54523L7.57039 4.37622Z" fill="white"/>
<path d="M7.57039 6.6377L7.92763 7.80668L6.99341 7.0843H8.14868L7.2138 7.80668L7.57039 6.6377Z" fill="white"/>
<path d="M7.57039 8.89917L7.92763 10.0682L6.99341 9.34577H8.14868L7.2138 10.0682L7.57039 8.89917Z" fill="white"/>
<path d="M8.8199 0.984619L9.17712 2.15362L8.24292 1.43122H9.39817L8.46333 2.15362L8.8199 0.984619Z" fill="white"/>
<path d="M8.8199 3.24634L9.17712 4.41534L8.24292 3.69294H9.39817L8.46333 4.41534L8.8199 3.24634Z" fill="white"/>
<path d="M8.8199 5.50781L9.17712 6.6768L8.24292 5.95441H9.39817L8.46333 6.6768L8.8199 5.50781Z" fill="white"/>
<path d="M8.8199 7.76929L9.17712 8.9383L8.24292 8.21589H9.39817L8.46333 8.9383L8.8199 7.76929Z" fill="white"/>
<path d="M8.8199 10.0308L9.17712 11.1997L8.24292 10.4774H9.39817L8.46333 11.1997L8.8199 10.0308Z" fill="white"/>
<path d="M10.0707 2.11475L10.4273 3.28374L9.49243 2.56135H10.6477L9.71348 3.28374L10.0707 2.11475Z" fill="white"/>
<path d="M10.0707 4.37622L10.4273 5.54523L9.49243 4.82282H10.6477L9.71348 5.54523L10.0707 4.37622Z" fill="white"/>
<path d="M10.0701 6.6377L10.4266 7.80668L9.49243 7.08568H10.6477L9.71348 7.80809L10.0701 6.6377Z" fill="white"/>
<path d="M10.0707 8.89917L10.4273 10.0682L9.49243 9.34577H10.6477L9.71348 10.0682L10.0707 8.89917Z" fill="white"/>
<path d="M11.3205 0.984619L11.677 2.15362L10.7422 1.43122H11.9007L10.9658 2.15362L11.3205 0.984619Z" fill="white"/>
<path d="M11.3205 3.24609L11.677 4.41509L10.7422 3.69269H11.9007L10.9658 4.41509L11.3205 3.24609Z" fill="white"/>
<path d="M11.3205 5.50806L11.677 6.67704L10.7422 5.95466H11.9007L10.9658 6.67704L11.3205 5.50806Z" fill="white"/>
<path d="M11.3205 7.76929L11.677 8.9383L10.7422 8.21589H11.9007L10.9658 8.9383L11.3205 7.76929Z" fill="white"/>
<path d="M11.3205 10.0308L11.677 11.1997L10.7422 10.4774H11.9007L10.9658 11.1997L11.3205 10.0308Z" fill="white"/>
<path d="M12.5699 2.11475L12.9272 3.28374L11.9929 2.56135H13.1482L12.2133 3.28374L12.5699 2.11475Z" fill="white"/>
<path d="M12.5699 4.37622L12.9272 5.54523L11.9929 4.82282H13.1482L12.2133 5.54523L12.5699 4.37622Z" fill="white"/>
<path d="M12.5705 6.63794L12.9278 7.80693L11.9929 7.08593H13.1482L12.2133 7.80834L12.5705 6.63794Z" fill="white"/>
<path d="M12.5699 8.89917L12.9272 10.0682L11.9929 9.34577H13.1482L12.2133 10.0682L12.5699 8.89917Z" fill="white"/>
<path d="M13.8209 0.984619L14.1781 2.15362L13.2439 1.43122H14.3992L13.467 2.15362L13.8209 0.984619Z" fill="white"/>
<path d="M13.8209 3.24609L14.1781 4.41509L13.2439 3.69269H14.3992L13.4649 4.41509L13.8209 3.24609Z" fill="white"/>
<path d="M13.8209 5.50806L14.1781 6.67704L13.2439 5.95466H14.3992L13.4649 6.67704L13.8209 5.50806Z" fill="white"/>
<path d="M13.8209 7.76929L14.1781 8.9383L13.2439 8.21589H14.3992L13.4649 8.9383L13.8209 7.76929Z" fill="white"/>
<path d="M13.8209 10.0308L14.1781 11.1997L13.2439 10.4774H14.3992L13.4649 11.1997L13.8209 10.0308Z" fill="white"/>
</svg>
