<svg width="377" height="212" viewBox="0 0 377 212" fill="none" xmlns="http://www.w3.org/2000/svg">
<rect width="376.889" height="212" rx="4" fill="url(#paint0_linear_1315_15478)"/>
<g filter="url(#filter0_i_1315_15478)">
<g filter="url(#filter1_b_1315_15478)">
<path d="M220 106C220 88.3269 205.673 74 188 74C170.327 74 156 88.3269 156 106C156 123.673 170.327 138 188 138C205.673 138 220 123.673 220 106Z" fill="white" fill-opacity="0.08"/>
<path d="M188 74.9167C205.167 74.9167 219.083 88.8331 219.083 106C219.083 123.167 205.167 137.083 188 137.083C170.833 137.083 156.917 123.167 156.917 106C156.917 88.8331 170.833 74.9167 188 74.9167Z" stroke="url(#paint1_linear_1315_15478)" stroke-opacity="0.88" stroke-width="1.83333"/>
</g>
</g>
<path d="M198.948 104.808L181.93 96.2987C181.043 95.8555 180 96.5 180 97.4912V114.51C180 115.501 181.043 116.146 181.93 115.702L198.948 107.193C199.931 106.702 199.931 105.299 198.948 104.808Z" fill="white"/>
<defs>
<filter id="filter0_i_1315_15478" x="156" y="74" width="64" height="64" filterUnits="userSpaceOnUse" color-interpolation-filters="sRGB">
<feFlood flood-opacity="0" result="BackgroundImageFix"/>
<feBlend mode="normal" in="SourceGraphic" in2="BackgroundImageFix" result="shape"/>
<feColorMatrix in="SourceAlpha" type="matrix" values="0 0 0 0 0 0 0 0 0 0 0 0 0 0 0 0 0 0 127 0" result="hardAlpha"/>
<feOffset/>
<feGaussianBlur stdDeviation="2.75"/>
<feComposite in2="hardAlpha" operator="arithmetic" k2="-1" k3="1"/>
<feColorMatrix type="matrix" values="0 0 0 0 0 0 0 0 0 0 0 0 0 0 0 0 0 0 0.08 0"/>
<feBlend mode="normal" in2="shape" result="effect1_innerShadow_1315_15478"/>
</filter>
<filter id="filter1_b_1315_15478" x="92" y="10" width="192" height="192" filterUnits="userSpaceOnUse" color-interpolation-filters="sRGB">
<feFlood flood-opacity="0" result="BackgroundImageFix"/>
<feGaussianBlur in="BackgroundImageFix" stdDeviation="32"/>
<feComposite in2="SourceAlpha" operator="in" result="effect1_backgroundBlur_1315_15478"/>
<feBlend mode="normal" in="SourceGraphic" in2="effect1_backgroundBlur_1315_15478" result="shape"/>
</filter>
<linearGradient id="paint0_linear_1315_15478" x1="8.71555" y1="8.1649" x2="391.063" y2="157.372" gradientUnits="userSpaceOnUse">
<stop stop-color="#1A2B6B"/>
<stop offset="0.265625" stop-color="#0D58C6"/>
<stop offset="0.473958" stop-color="#6F8BEF"/>
<stop offset="1" stop-color="white"/>
</linearGradient>
<linearGradient id="paint1_linear_1315_15478" x1="188" y1="74" x2="188" y2="138" gradientUnits="userSpaceOnUse">
<stop stop-color="white"/>
<stop offset="1" stop-color="white" stop-opacity="0"/>
</linearGradient>
</defs>
</svg>
