<svg width="296" height="976" viewBox="0 0 296 976" fill="none" xmlns="http://www.w3.org/2000/svg">
<path d="M2.797 480.215C213.315 480.215 197.877 951.455 383.133 951.455" stroke="url(#paint0_linear_1315_13058)" stroke-width="1.54372"/>
<path d="M2.797 480.215C213.315 480.215 197.877 565.838 383.133 565.838" stroke="url(#paint1_linear_1315_13058)" stroke-width="1.54372"/>
<path d="M2.797 480.215C213.315 480.215 197.877 775.209 383.133 775.209" stroke="url(#paint2_linear_1315_13058)" stroke-width="1.54372"/>
<path d="M385.929 384.592C213.314 384.592 213.314 480.215 0.00012625 480.215" stroke="url(#paint3_linear_1315_13058)" stroke-width="1.54372"/>
<path d="M385.929 204.596C213.314 204.596 213.314 480.215 0.000134118 480.215" stroke="url(#paint4_linear_1315_13058)" stroke-width="1.54372"/>
<path d="M385.929 25.2246C213.314 25.2246 213.314 480.215 0.000141959 480.215" stroke="url(#paint5_linear_1315_13058)" stroke-width="1.54372"/>
<path d="M321.865 932.16H290.99V901.285H321.865V932.16Z" fill="#F3F7FB"/>
<path d="M290.992 760.034L260.117 760.035L260.117 729.16L290.992 729.16L290.992 760.034Z" fill="#F3F7FB"/>
<path d="M283.152 735.891L277.425 741.618C277.021 742.022 276.384 742.075 275.919 741.743L273.353 739.91C272.927 739.606 272.351 739.622 271.943 739.949L266.789 744.072" stroke="#0D58C6" stroke-width="0.742064" stroke-linecap="round" stroke-linejoin="round"/>
<path d="M278.477 735.891L283.153 735.891L283.153 740.566" stroke="#0D58C6" stroke-width="0.742064" stroke-linecap="round" stroke-linejoin="round"/>
<path d="M277.892 751.084L283.737 751.084C284.059 751.084 284.321 751.345 284.321 751.668L284.321 752.837C284.321 753.16 284.059 753.421 283.737 753.421L277.892 753.421C277.569 753.421 277.308 753.16 277.308 752.837L277.308 751.668C277.308 751.345 277.569 751.084 277.892 751.084Z" stroke="#0D58C6" stroke-width="0.742064" stroke-linecap="round" stroke-linejoin="round"/>
<path d="M268.542 751.084L274.385 751.084C274.708 751.084 274.97 751.345 274.97 751.668L274.97 752.837C274.97 753.16 274.708 753.421 274.385 753.421L268.542 753.421C268.219 753.421 267.957 753.16 267.957 752.837L267.957 751.668C267.957 751.345 268.219 751.084 268.542 751.084Z" stroke="#0D58C6" stroke-width="0.742064" stroke-linecap="round" stroke-linejoin="round"/>
<path d="M267.374 748.744L273.217 748.744C273.54 748.744 273.802 749.007 273.802 749.329L273.802 750.498C273.802 750.821 273.54 751.083 273.217 751.083L267.374 751.083C267.051 751.083 266.789 750.821 266.789 750.498L266.789 749.329C266.789 749.007 267.051 748.744 267.374 748.744Z" stroke="#0D58C6" stroke-width="0.742064" stroke-linecap="round" stroke-linejoin="round"/>
<path d="M268.542 746.408L274.385 746.408C274.708 746.408 274.97 746.67 274.97 746.993L274.97 748.161C274.97 748.484 274.708 748.745 274.385 748.745L268.542 748.745C268.219 748.745 267.957 748.484 267.957 748.161L267.957 746.993C267.957 746.67 268.219 746.408 268.542 746.408Z" stroke="#0D58C6" stroke-width="0.742064" stroke-linecap="round" stroke-linejoin="round"/>
<path d="M276.725 748.746L282.568 748.746C282.891 748.746 283.153 749.009 283.153 749.331L283.153 750.5C283.153 750.823 282.891 751.084 282.568 751.084L276.725 751.084C276.402 751.084 276.14 750.823 276.14 750.5L276.14 749.331C276.14 749.009 276.402 748.746 276.725 748.746Z" stroke="#0D58C6" stroke-width="0.742064" stroke-linecap="round" stroke-linejoin="round"/>
<path d="M277.892 746.408L283.737 746.408C284.059 746.408 284.321 746.67 284.321 746.993L284.321 748.161C284.321 748.484 284.059 748.745 283.737 748.745L277.892 748.745C277.569 748.745 277.308 748.484 277.308 748.161L277.308 746.993C277.308 746.67 277.569 746.408 277.892 746.408Z" stroke="#0D58C6" stroke-width="0.742064" stroke-linecap="round" stroke-linejoin="round"/>
<path d="M277.892 744.07L283.737 744.07C284.059 744.07 284.321 744.332 284.321 744.655L284.321 745.823C284.321 746.146 284.059 746.408 283.737 746.408L277.892 746.408C277.569 746.408 277.308 746.146 277.308 745.823L277.308 744.655C277.308 744.332 277.569 744.07 277.892 744.07Z" stroke="#0D58C6" stroke-width="0.742064" stroke-linecap="round" stroke-linejoin="round"/>
<path d="M209.943 629.589L179.068 629.589L179.068 598.715L209.943 598.715L209.943 629.589Z" fill="#F3F7FB"/>
<path d="M194.531 612.178C195.983 612.178 197.16 613.355 197.16 614.808C197.16 616.26 195.983 617.438 194.531 617.438C193.078 617.438 191.901 616.26 191.901 614.808C191.901 613.355 193.078 612.178 194.531 612.178Z" stroke="#0D58C6" stroke-width="0.742064" stroke-linecap="round" stroke-linejoin="round"/>
<path d="M199.207 622.698C198.86 620.116 196.485 618.305 193.903 618.652C191.796 618.935 190.14 620.592 189.857 622.698L199.207 622.698Z" stroke="#0D58C6" stroke-width="0.742064" stroke-linecap="round" stroke-linejoin="round"/>
<path d="M186.349 605.164L186.933 605.164C187.256 605.164 187.517 605.426 187.517 605.749L187.517 609.84" stroke="#0D58C6" stroke-width="0.742064" stroke-linecap="round" stroke-linejoin="round"/>
<path d="M186.349 609.84L188.687 609.84" stroke="#0D58C6" stroke-width="0.742064" stroke-linecap="round" stroke-linejoin="round"/>
<path d="M186.349 619.189L186.933 619.189C187.256 619.189 187.517 619.452 187.517 619.774L187.517 622.696" stroke="#0D58C6" stroke-width="0.742064" stroke-linecap="round" stroke-linejoin="round"/>
<path d="M200.376 619.189L200.96 619.189C201.283 619.189 201.544 619.452 201.544 619.774L201.544 622.696" stroke="#0D58C6" stroke-width="0.742064" stroke-linecap="round" stroke-linejoin="round"/>
<path d="M193.363 608.671C193.363 609.316 192.839 609.84 192.193 609.84C191.547 609.84 191.024 609.316 191.024 608.671L191.024 606.333C191.024 605.687 191.547 605.164 192.193 605.164C192.839 605.164 193.363 605.687 193.363 606.333L193.363 608.671Z" stroke="#0D58C6" stroke-width="0.742064" stroke-linecap="round" stroke-linejoin="round"/>
<path d="M188.687 615.684C188.687 616.33 188.163 616.853 187.518 616.853C186.872 616.853 186.349 616.33 186.349 615.684L186.349 613.347C186.349 612.701 186.872 612.178 187.518 612.178C188.163 612.178 188.687 612.701 188.687 613.347L188.687 615.684Z" stroke="#0D58C6" stroke-width="0.742064" stroke-linecap="round" stroke-linejoin="round"/>
<path d="M200.376 605.164L200.96 605.164C201.283 605.164 201.544 605.426 201.544 605.749L201.544 609.84" stroke="#0D58C6" stroke-width="0.742064" stroke-linecap="round" stroke-linejoin="round"/>
<path d="M200.376 609.84L202.713 609.84" stroke="#0D58C6" stroke-width="0.742064" stroke-linecap="round" stroke-linejoin="round"/>
<path d="M198.037 608.671C198.037 609.316 197.514 609.84 196.869 609.84C196.223 609.84 195.7 609.316 195.7 608.671L195.7 606.333C195.7 605.687 196.223 605.164 196.869 605.164C197.514 605.164 198.037 605.687 198.037 606.333L198.037 608.671Z" stroke="#0D58C6" stroke-width="0.742064" stroke-linecap="round" stroke-linejoin="round"/>
<path d="M202.713 615.684C202.713 616.33 202.19 616.853 201.544 616.853C200.899 616.853 200.376 616.33 200.376 615.684L200.376 613.347C200.376 612.701 200.899 612.178 201.544 612.178C202.19 612.178 202.713 612.701 202.713 613.347L202.713 615.684Z" stroke="#0D58C6" stroke-width="0.742064" stroke-linecap="round" stroke-linejoin="round"/>
<path d="M254.716 554.718L223.842 554.718L223.842 523.844L254.716 523.844L254.716 554.718Z" fill="#F3F7FB"/>
<path d="M237.441 531.695L238.61 531.695C239.256 531.695 239.779 532.219 239.779 532.865L239.779 537.54C239.779 540.121 237.685 542.215 235.104 542.215C232.521 542.215 230.429 540.121 230.429 537.54L230.429 532.865C230.429 532.219 230.951 531.695 231.597 531.695L232.766 531.695" stroke="#0D58C6" stroke-width="0.742064" stroke-linecap="round" stroke-linejoin="round"/>
<path d="M232.767 530.527L232.767 533.449" stroke="#0D58C6" stroke-width="0.742064" stroke-linecap="round" stroke-linejoin="round"/>
<path d="M237.441 530.527L237.441 533.449" stroke="#0D58C6" stroke-width="0.742064" stroke-linecap="round" stroke-linejoin="round"/>
<path d="M245.622 535.203C246.913 535.203 247.96 536.25 247.96 537.541C247.96 538.832 246.913 539.879 245.622 539.879C244.331 539.879 243.284 538.832 243.284 537.541C243.284 536.25 244.331 535.203 245.622 535.203Z" stroke="#0D58C6" stroke-width="0.742064" stroke-linecap="round" stroke-linejoin="round"/>
<path d="M235.104 542.217L235.104 542.801C235.104 545.706 237.459 548.06 240.364 548.06C243.269 548.06 245.623 545.706 245.623 542.801L245.623 539.879" stroke="#0D58C6" stroke-width="0.742064" stroke-linecap="round" stroke-linejoin="round"/>
<path d="M240.819 808.659L209.945 808.659L209.945 777.785L240.819 777.785L240.819 808.659Z" fill="#F3F7FB"/>
<path d="M217.64 802.445L233.942 802.445" stroke="#0D58C6" stroke-width="0.742064" stroke-linecap="round" stroke-linejoin="round"/>
<path d="M225.79 787.307L225.79 784.979" stroke="#0D58C6" stroke-width="0.742064" stroke-linecap="round" stroke-linejoin="round"/>
<path d="M231.613 802.448L226.463 790.087C226.309 789.716 225.882 789.54 225.51 789.695C225.332 789.769 225.191 789.91 225.117 790.087C223.585 793.765 219.968 802.448 219.968 802.448" stroke="#0D58C6" stroke-width="0.742064" stroke-linecap="round" stroke-linejoin="round"/>
<path d="M229.285 793.129L222.298 793.129" stroke="#0D58C6" stroke-width="0.742064" stroke-linecap="round" stroke-linejoin="round"/>
<path d="M223.576 793.785L229.671 797.787" stroke="#0D58C6" stroke-width="0.742064" stroke-linecap="round" stroke-linejoin="round"/>
<path d="M228.006 793.785L221.909 797.787" stroke="#0D58C6" stroke-width="0.742064" stroke-linecap="round" stroke-linejoin="round"/>
<path d="M221.909 797.787L231.613 802.446" stroke="#0D58C6" stroke-width="0.742064" stroke-linecap="round" stroke-linejoin="round"/>
<path d="M229.673 797.787L219.97 802.446" stroke="#0D58C6" stroke-width="0.742064" stroke-linecap="round" stroke-linejoin="round"/>
<path d="M223.464 787.307C223.169 786.356 222.158 785.823 221.206 786.119C221.182 786.127 221.158 786.134 221.134 786.143" stroke="#0D58C6" stroke-width="0.742064" stroke-linecap="round" stroke-linejoin="round"/>
<path d="M228.12 787.307C228.415 786.356 229.424 785.823 230.375 786.119C230.4 786.127 230.424 786.134 230.448 786.143" stroke="#0D58C6" stroke-width="0.742064" stroke-linecap="round" stroke-linejoin="round"/>
<path d="M254.716 428.132L223.842 428.132L223.842 397.258L254.716 397.258L254.716 428.132Z" fill="#F3F7FB"/>
<path d="M240.206 409.852L247.477 416.704C247.875 417.102 247.875 417.749 247.477 418.147C247.477 418.147 247.477 418.147 247.477 418.147L246.755 418.869C246.358 419.267 245.713 419.267 245.314 418.87L245.313 418.869L238.46 411.602" stroke="#0D58C6" stroke-width="0.742064" stroke-linecap="round" stroke-linejoin="round"/>
<path d="M232.655 409.822C235.081 408.476 237.081 406.477 238.427 404.051C238.824 403.653 239.469 403.652 239.867 404.049C239.868 404.05 239.868 404.051 239.869 404.051L242.604 406.786C243.002 407.183 243.003 407.828 242.606 408.226L242.604 408.229C240.154 409.542 238.146 411.549 236.833 413.999C236.435 414.398 235.789 414.399 235.39 414.001C235.39 414.001 235.39 414 235.39 413.999L232.655 411.266C232.257 410.868 232.257 410.222 232.655 409.823C232.655 409.823 232.655 409.822 232.655 409.822Z" stroke="#0D58C6" stroke-width="0.742064" stroke-linecap="round" stroke-linejoin="round"/>
<path d="M239.8 420.089C239.8 419.443 239.277 418.92 238.632 418.92L232.788 418.92C232.142 418.92 231.619 419.443 231.619 420.089L231.619 421.257L239.8 421.257L239.8 420.089Z" stroke="#0D58C6" stroke-width="0.742064" stroke-linecap="round" stroke-linejoin="round"/>
<path d="M230.451 421.258L240.971 421.258" stroke="#0D58C6" stroke-width="0.742064" stroke-linecap="round" stroke-linejoin="round"/>
<path d="M209.943 377.191L179.068 377.191L179.068 346.316L209.943 346.316L209.943 377.191Z" fill="#F3F7FB"/>
<path d="M201.793 362.95L194.895 365.269L193.97 364.351L192.599 364.812C192.295 364.914 192.131 365.243 192.232 365.548C192.258 365.623 192.298 365.692 192.351 365.751L194.205 367.826C194.516 368.175 195.005 368.304 195.447 368.154L197.479 367.472L197.067 370.406C197.022 370.724 197.244 371.019 197.562 371.064C197.652 371.076 197.743 371.069 197.829 371.04L198.885 370.684C199.049 370.629 199.18 370.504 199.242 370.343L200.79 366.359L202.722 365.71C203.484 365.452 203.893 364.626 203.636 363.864C203.379 363.102 202.552 362.693 201.79 362.95L201.793 362.95Z" stroke="#0D58C6" stroke-width="0.742064" stroke-linecap="round" stroke-linejoin="round"/>
<path d="M199.862 363.599L197.704 362.112C197.553 362.009 197.362 361.982 197.188 362.04L196.15 362.389C195.845 362.491 195.681 362.821 195.783 363.125C195.812 363.211 195.861 363.289 195.925 363.354L197.103 364.525" stroke="#0D58C6" stroke-width="0.742064" stroke-linecap="round" stroke-linejoin="round"/>
<path d="M190.322 366.941C186.814 365.334 185.274 361.186 186.882 357.679C188.489 354.172 192.636 352.631 196.144 354.239C198.627 355.377 200.219 357.858 200.219 360.589" stroke="#0D58C6" stroke-width="0.742064" stroke-linecap="round" stroke-linejoin="round"/>
<path d="M188.789 355.197L192.889 356.751C193.424 356.951 193.734 357.51 193.621 358.07L193.378 359.284C193.29 359.725 192.955 360.076 192.518 360.186L190.905 360.589L190.012 362.828C189.837 363.266 189.534 363.64 189.142 363.901L187.717 364.877" stroke="#0D58C6" stroke-width="0.742064" stroke-linecap="round" stroke-linejoin="round"/>
<path d="M198.085 355.559L196.941 357.829C196.804 358.106 196.781 358.425 196.879 358.718L197.309 360.008" stroke="#0D58C6" stroke-width="0.742064" stroke-linecap="round" stroke-linejoin="round"/>
<path d="M260.116 225.684H290.99V256.559H260.116V225.684Z" fill="#F3F7FB"/>
<path d="M272.545 241.684L275.468 238.762" stroke="#0D58C6" stroke-width="0.742064" stroke-linecap="round" stroke-linejoin="round"/>
<path d="M269.039 241.684L270.792 239.931" stroke="#0D58C6" stroke-width="0.742064" stroke-linecap="round" stroke-linejoin="round"/>
<path d="M276.05 241.684L277.803 239.931" stroke="#0D58C6" stroke-width="0.742064" stroke-linecap="round" stroke-linejoin="round"/>
<path d="M284.233 235.256C284.233 235.256 282.48 234.087 282.48 232.334" stroke="#0D58C6" stroke-width="0.742064" stroke-linecap="round" stroke-linejoin="round"/>
<path d="M280.726 235.256C280.726 235.256 282.479 234.087 282.479 232.334" stroke="#0D58C6" stroke-width="0.742064" stroke-linecap="round" stroke-linejoin="round"/>
<path d="M277.22 235.256C277.22 235.256 275.467 234.087 275.467 232.334" stroke="#0D58C6" stroke-width="0.742064" stroke-linecap="round" stroke-linejoin="round"/>
<path d="M273.713 235.256C273.713 235.256 275.466 234.087 275.466 232.334" stroke="#0D58C6" stroke-width="0.742064" stroke-linecap="round" stroke-linejoin="round"/>
<path d="M270.206 235.256C270.206 235.256 268.453 234.087 268.453 232.334" stroke="#0D58C6" stroke-width="0.742064" stroke-linecap="round" stroke-linejoin="round"/>
<path d="M266.699 235.256C266.699 235.256 268.453 234.087 268.453 232.334" stroke="#0D58C6" stroke-width="0.742064" stroke-linecap="round" stroke-linejoin="round"/>
<path d="M266.7 232.334L284.233 232.334" stroke="#0D58C6" stroke-width="0.742064" stroke-linecap="round" stroke-linejoin="round"/>
<path d="M270.791 249.865C272.352 249.865 273.638 248.638 273.71 247.078C274.43 247.726 275.538 247.666 276.186 246.946C276.833 246.227 276.774 245.117 276.054 244.47C275.732 244.18 275.312 244.02 274.879 244.02L270.791 244.02C269.177 244.02 267.869 245.329 267.869 246.943C267.869 248.557 269.177 249.865 270.791 249.865Z" stroke="#0D58C6" stroke-width="0.742064" stroke-linecap="round" stroke-linejoin="round"/>
<path d="M290.991 45.071H321.865V75.9453H290.991V45.071Z" fill="#F3F7FB"/>
<path d="M240.82 213.558H209.945V182.684H240.82V213.558Z" fill="#F3F7FB"/>
<path d="M217.265 206.576H234.149" stroke="#0D58C6" stroke-width="0.742064" stroke-linecap="round" stroke-linejoin="round"/>
<path d="M218.817 203.084H220.952C221.166 203.084 221.34 203.258 221.34 203.473V206.578H218.429V203.473C218.429 203.258 218.603 203.084 218.817 203.084Z" stroke="#0D58C6" stroke-width="0.742064" stroke-linecap="round" stroke-linejoin="round"/>
<path d="M224.639 196.098H226.775C226.989 196.098 227.162 196.271 227.162 196.486V206.577H224.251V196.486C224.251 196.271 224.424 196.098 224.639 196.098Z" stroke="#0D58C6" stroke-width="0.742064" stroke-linecap="round" stroke-linejoin="round"/>
<path d="M230.462 199.592H232.598C232.812 199.592 232.986 199.766 232.986 199.98V206.579H230.074V199.98C230.074 199.767 230.248 199.592 230.462 199.592Z" stroke="#0D58C6" stroke-width="0.742064" stroke-linecap="round" stroke-linejoin="round"/>
<path d="M222.027 192.506L218.908 195.621" stroke="#0D58C6" stroke-width="0.742064" stroke-linecap="round" stroke-linejoin="round"/>
<path d="M227.794 193.439L224.165 192.469" stroke="#0D58C6" stroke-width="0.742064" stroke-linecap="round" stroke-linejoin="round"/>
<path d="M232.514 190.773L229.734 192.947" stroke="#0D58C6" stroke-width="0.742064" stroke-linecap="round" stroke-linejoin="round"/>
<path d="M223.087 190.857C223.731 190.857 224.252 191.379 224.252 192.022C224.252 192.665 223.731 193.187 223.087 193.187C222.444 193.187 221.923 192.665 221.923 192.022C221.923 191.379 222.444 190.857 223.087 190.857Z" stroke="#0D58C6" stroke-width="0.742064" stroke-linecap="round" stroke-linejoin="round"/>
<path d="M233.569 189.111C234.212 189.111 234.733 189.633 234.733 190.277C234.733 190.919 234.212 191.441 233.569 191.441C232.926 191.441 232.404 190.919 232.404 190.277C232.404 189.633 232.926 189.111 233.569 189.111Z" stroke="#0D58C6" stroke-width="0.742064" stroke-linecap="round" stroke-linejoin="round"/>
<path d="M228.909 192.605C229.552 192.605 230.074 193.128 230.074 193.771C230.074 194.413 229.552 194.935 228.909 194.935C228.266 194.935 227.744 194.413 227.744 193.771C227.744 193.128 228.266 192.605 228.909 192.605Z" stroke="#0D58C6" stroke-width="0.742064" stroke-linecap="round" stroke-linejoin="round"/>
<path d="M218.429 195.516C219.072 195.516 219.594 196.038 219.594 196.68C219.594 197.324 219.072 197.845 218.429 197.845C217.786 197.845 217.265 197.324 217.265 196.68C217.265 196.038 217.786 195.516 218.429 195.516Z" stroke="#0D58C6" stroke-width="0.742064" stroke-linecap="round" stroke-linejoin="round"/>
<defs>
<linearGradient id="paint0_linear_1315_13058" x1="2.79701" y1="715.835" x2="383.133" y2="715.835" gradientUnits="userSpaceOnUse">
<stop stop-color="#0D58C6"/>
<stop offset="1" stop-color="#0D58C6" stop-opacity="0"/>
</linearGradient>
<linearGradient id="paint1_linear_1315_13058" x1="2.797" y1="523.026" x2="383.133" y2="523.026" gradientUnits="userSpaceOnUse">
<stop stop-color="#0D58C6"/>
<stop offset="1" stop-color="#0D58C6" stop-opacity="0"/>
</linearGradient>
<linearGradient id="paint2_linear_1315_13058" x1="2.797" y1="627.712" x2="383.133" y2="627.712" gradientUnits="userSpaceOnUse">
<stop stop-color="#0D58C6"/>
<stop offset="1" stop-color="#0D58C6" stop-opacity="0"/>
</linearGradient>
<linearGradient id="paint3_linear_1315_13058" x1="0.00012416" y1="432.403" x2="385.929" y2="432.403" gradientUnits="userSpaceOnUse">
<stop stop-color="#0D58C6"/>
<stop offset="1" stop-color="#0D58C6" stop-opacity="0"/>
</linearGradient>
<linearGradient id="paint4_linear_1315_13058" x1="0.000128094" y1="342.405" x2="385.929" y2="342.405" gradientUnits="userSpaceOnUse">
<stop stop-color="#0D58C6"/>
<stop offset="1" stop-color="#0D58C6" stop-opacity="0"/>
</linearGradient>
<linearGradient id="paint5_linear_1315_13058" x1="0.000132014" y1="252.72" x2="385.929" y2="252.72" gradientUnits="userSpaceOnUse">
<stop stop-color="#0D58C6"/>
<stop offset="1" stop-color="#0D58C6" stop-opacity="0"/>
</linearGradient>
</defs>
</svg>
